M48
; DRILL file {KiCad (6.0.9-0)} date 2023 July 05, Wednesday 23:25:08
; FORMAT={-:-/ absolute / inch / decimal}
; #@! TF.CreationDate,2023-07-05T23:25:08+02:00
; #@! TF.GenerationSoftware,Kicad,Pcbnew,(6.0.9-0)
; #@! TF.FileFunction,Plated,1,2,PTH
FMAT,2
INCH
; #@! TA.AperFunction,Plated,PTH,ViaDrill
T1C0.0118
; #@! TA.AperFunction,Plated,PTH,ViaDrill
T2C0.0157
; #@! TA.AperFunction,Plated,PTH,ViaDrill
T3C0.0197
; #@! TA.AperFunction,Plated,PTH,ComponentDrill
T4C0.0472
%
G90
G05
T1
X3.13Y-2.56
X3.14Y-2.27
X3.14Y-2.32
X3.14Y-2.37
X3.14Y-2.42
X3.14Y-2.47
X3.14Y-3.09
X3.15Y-3.0
X3.18Y-3.15
X3.2408Y-2.9128
X3.2408Y-2.9428
X3.27Y-3.15
X3.2708Y-2.9128
X3.2708Y-2.9428
X3.275Y-2.755
X3.3008Y-2.9128
X3.3008Y-2.9428
X3.3025Y-2.3898
X3.3025Y-2.4198
X3.31Y-2.62
X3.3308Y-2.9128
X3.3308Y-2.9428
X3.3325Y-2.3898
X3.3325Y-2.4198
X3.3608Y-2.9128
X3.3608Y-2.9428
X3.3625Y-2.3898
X3.3625Y-2.4198
X3.3925Y-2.3898
X3.3925Y-2.4198
X3.394Y-2.98
X3.4Y-2.58
X3.4Y-3.075
X3.47Y-2.74
X3.5Y-2.31
X3.55Y-2.17
X3.55Y-2.25
X3.58Y-2.496
X3.58Y-2.564
X3.594Y-2.752
X3.606Y-2.934
X3.65Y-2.17
X3.65Y-2.25
X3.709Y-3.1
X3.71Y-3.04
X3.75Y-2.2
X3.765Y-2.515
X3.78Y-2.91
X3.8Y-2.55
X3.85Y-2.17
X3.85Y-2.25
X3.85Y-2.58
X3.85Y-2.64
X3.85Y-2.77
X3.85Y-2.84
X3.85Y-3.05
X3.85Y-3.09
X3.895Y-2.365
X3.92Y-2.55
X3.92Y-2.93
X3.92Y-3.09
X3.93Y-2.75
X3.95Y-2.17
X3.95Y-2.25
X3.955Y-2.415
X3.955Y-2.475
X3.9618Y-2.745
X4.04Y-2.745
X4.04Y-2.77
X4.05Y-2.17
X4.05Y-2.25
X4.06Y-2.8
X4.08Y-2.745
X4.08Y-2.77
X4.08Y-2.925
X4.09Y-3.03
X4.105Y-2.505
X4.11Y-2.575
X4.135Y-2.365
X4.15Y-2.17
X4.15Y-2.25
X4.16Y-2.795
X4.175Y-2.91
X4.2Y-3.15
X4.23Y-2.4
X4.23Y-2.495
X4.25Y-2.17
X4.25Y-2.25
X4.265Y-2.4
X4.265Y-2.495
X4.3Y-3.15
X4.305Y-2.88
X4.32Y-2.765
X4.33Y-2.53
X4.35Y-2.17
X4.35Y-2.25
X4.35Y-3.05
X4.4Y-2.55
X4.4Y-2.695
X4.4Y-3.15
X4.425Y-2.9142
X4.425Y-2.9642
X4.45Y-2.55
X4.5204Y-2.62
X4.5244Y-2.9142
X4.5244Y-2.9642
X4.525Y-3.15
X4.625Y-2.9142
X4.625Y-2.9642
X4.625Y-3.085
X4.625Y-3.15
X4.65Y-2.475
T2
X3.345Y-2.2648
X4.035Y-3.035
X4.11Y-2.635
T3
X3.28Y-2.245
X3.31Y-3.09
X3.815Y-2.725
X4.14Y-3.065
X4.4Y-2.77
T4
X3.5118Y-2.6382
X3.5118Y-2.835
X3.5118Y-3.0319
X4.4567Y-2.2445
X4.4567Y-2.4413
T0
M30
