G04 #@! TF.GenerationSoftware,KiCad,Pcbnew,(6.0.9-0)*
G04 #@! TF.CreationDate,2023-07-05T23:25:05+02:00*
G04 #@! TF.ProjectId,dcdc_7909,64636463-5f37-4393-9039-2e6b69636164,2.0*
G04 #@! TF.SameCoordinates,Original*
G04 #@! TF.FileFunction,Soldermask,Top*
G04 #@! TF.FilePolarity,Negative*
%FSLAX46Y46*%
G04 Gerber Fmt 4.6, Leading zero omitted, Abs format (unit mm)*
G04 Created by KiCad (PCBNEW (6.0.9-0)) date 2023-07-05 23:25:05*
%MOMM*%
%LPD*%
G01*
G04 APERTURE LIST*
G04 Aperture macros list*
%AMRoundRect*
0 Rectangle with rounded corners*
0 $1 Rounding radius*
0 $2 $3 $4 $5 $6 $7 $8 $9 X,Y pos of 4 corners*
0 Add a 4 corners polygon primitive as box body*
4,1,4,$2,$3,$4,$5,$6,$7,$8,$9,$2,$3,0*
0 Add four circle primitives for the rounded corners*
1,1,$1+$1,$2,$3*
1,1,$1+$1,$4,$5*
1,1,$1+$1,$6,$7*
1,1,$1+$1,$8,$9*
0 Add four rect primitives between the rounded corners*
20,1,$1+$1,$2,$3,$4,$5,0*
20,1,$1+$1,$4,$5,$6,$7,0*
20,1,$1+$1,$6,$7,$8,$9,0*
20,1,$1+$1,$8,$9,$2,$3,0*%
G04 Aperture macros list end*
%ADD10RoundRect,0.301000X-0.325000X-0.650000X0.325000X-0.650000X0.325000X0.650000X-0.325000X0.650000X0*%
%ADD11RoundRect,0.301000X0.650000X-0.325000X0.650000X0.325000X-0.650000X0.325000X-0.650000X-0.325000X0*%
%ADD12RoundRect,0.276000X0.250000X-0.225000X0.250000X0.225000X-0.250000X0.225000X-0.250000X-0.225000X0*%
%ADD13RoundRect,0.276000X0.225000X0.250000X-0.225000X0.250000X-0.225000X-0.250000X0.225000X-0.250000X0*%
%ADD14C,3.602120*%
%ADD15RoundRect,0.151000X0.100000X-0.625000X0.100000X0.625000X-0.100000X0.625000X-0.100000X-0.625000X0*%
%ADD16RoundRect,0.301000X1.175000X-0.575000X1.175000X0.575000X-1.175000X0.575000X-1.175000X-0.575000X0*%
%ADD17RoundRect,0.251000X-0.200000X-0.275000X0.200000X-0.275000X0.200000X0.275000X-0.200000X0.275000X0*%
%ADD18RoundRect,0.251000X0.275000X-0.200000X0.275000X0.200000X-0.275000X0.200000X-0.275000X-0.200000X0*%
%ADD19RoundRect,0.301000X0.337500X0.475000X-0.337500X0.475000X-0.337500X-0.475000X0.337500X-0.475000X0*%
%ADD20RoundRect,0.301000X0.475000X-0.337500X0.475000X0.337500X-0.475000X0.337500X-0.475000X-0.337500X0*%
%ADD21RoundRect,0.301000X-0.337500X-0.475000X0.337500X-0.475000X0.337500X0.475000X-0.337500X0.475000X0*%
%ADD22RoundRect,0.301000X-0.475000X0.337500X-0.475000X-0.337500X0.475000X-0.337500X0.475000X0.337500X0*%
%ADD23RoundRect,0.251000X-0.275000X0.200000X-0.275000X-0.200000X0.275000X-0.200000X0.275000X0.200000X0*%
%ADD24RoundRect,0.051000X-1.200000X-0.750000X1.200000X-0.750000X1.200000X0.750000X-1.200000X0.750000X0*%
%ADD25RoundRect,0.051000X-0.525000X-0.750000X0.525000X-0.750000X0.525000X0.750000X-0.525000X0.750000X0*%
%ADD26RoundRect,0.113500X0.362500X0.062500X-0.362500X0.062500X-0.362500X-0.062500X0.362500X-0.062500X0*%
%ADD27RoundRect,0.051000X0.825000X1.190000X-0.825000X1.190000X-0.825000X-1.190000X0.825000X-1.190000X0*%
%ADD28RoundRect,0.051000X-0.927250X-1.143000X0.927250X-1.143000X0.927250X1.143000X-0.927250X1.143000X0*%
%ADD29RoundRect,0.051000X1.250000X1.150000X-1.250000X1.150000X-1.250000X-1.150000X1.250000X-1.150000X0*%
%ADD30RoundRect,0.051000X-0.750000X1.000000X-0.750000X-1.000000X0.750000X-1.000000X0.750000X1.000000X0*%
%ADD31RoundRect,0.051000X-1.900000X1.000000X-1.900000X-1.000000X1.900000X-1.000000X1.900000X1.000000X0*%
%ADD32RoundRect,0.051000X0.927250X1.143000X-0.927250X1.143000X-0.927250X-1.143000X0.927250X-1.143000X0*%
%ADD33RoundRect,0.276000X-0.225000X-0.250000X0.225000X-0.250000X0.225000X0.250000X-0.225000X0.250000X0*%
%ADD34RoundRect,0.051000X-1.775000X-0.500000X1.775000X-0.500000X1.775000X0.500000X-1.775000X0.500000X0*%
%ADD35RoundRect,0.051000X-0.500000X-1.775000X0.500000X-1.775000X0.500000X1.775000X-0.500000X1.775000X0*%
%ADD36RoundRect,0.051000X-0.500000X-0.500000X0.500000X-0.500000X0.500000X0.500000X-0.500000X0.500000X0*%
%ADD37RoundRect,0.051000X-1.900000X-0.500000X1.900000X-0.500000X1.900000X0.500000X-1.900000X0.500000X0*%
%ADD38RoundRect,0.051000X-0.500000X-1.900000X0.500000X-1.900000X0.500000X1.900000X-0.500000X1.900000X0*%
%ADD39RoundRect,0.276000X-0.250000X0.225000X-0.250000X-0.225000X0.250000X-0.225000X0.250000X0.225000X0*%
G04 APERTURE END LIST*
D10*
X92710000Y-77978000D03*
X95660000Y-77978000D03*
D11*
X89281000Y-60579000D03*
X89281000Y-63529000D03*
D12*
X82042000Y-68733000D03*
X82042000Y-67183000D03*
D13*
X81547000Y-56001500D03*
X79997000Y-56001500D03*
D14*
X89200000Y-67010000D03*
X89200000Y-72010000D03*
X113200000Y-62010000D03*
X113200000Y-57010000D03*
D15*
X82216000Y-76516000D03*
X82866000Y-76516000D03*
X83516000Y-76516000D03*
X84166000Y-76516000D03*
X84816000Y-76516000D03*
X85466000Y-76516000D03*
X85466000Y-72216000D03*
X84816000Y-72216000D03*
X84166000Y-72216000D03*
X83516000Y-72216000D03*
X82866000Y-72216000D03*
X82216000Y-72216000D03*
D16*
X83841000Y-74366000D03*
D17*
X84935000Y-70429000D03*
X86585000Y-70429000D03*
X86170000Y-57144500D03*
X87820000Y-57144500D03*
D18*
X92329000Y-75501000D03*
X92329000Y-73851000D03*
D14*
X89200000Y-77010000D03*
D15*
X83401500Y-63231500D03*
X84051500Y-63231500D03*
X84701500Y-63231500D03*
X85351500Y-63231500D03*
X86001500Y-63231500D03*
X86651500Y-63231500D03*
X86651500Y-58931500D03*
X86001500Y-58931500D03*
X85351500Y-58931500D03*
X84701500Y-58931500D03*
X84051500Y-58931500D03*
X83401500Y-58931500D03*
D16*
X85026500Y-61081500D03*
D19*
X82774700Y-78536800D03*
X80699700Y-78536800D03*
D20*
X81280000Y-64686000D03*
X81280000Y-62611000D03*
D21*
X85979000Y-55366500D03*
X88054000Y-55366500D03*
D20*
X80263000Y-69385000D03*
X80263000Y-67310000D03*
D22*
X81280000Y-57667500D03*
X81280000Y-59742500D03*
D21*
X84618000Y-68707000D03*
X86693000Y-68707000D03*
D23*
X92202000Y-67564000D03*
X92202000Y-69214000D03*
D24*
X107416750Y-62230000D03*
D25*
X105041750Y-62230000D03*
D26*
X104574000Y-70469000D03*
X104574000Y-69969000D03*
X104574000Y-69469000D03*
X104574000Y-68969000D03*
X104574000Y-68469000D03*
X101674000Y-68469000D03*
X101674000Y-68969000D03*
X101674000Y-69469000D03*
X101674000Y-69969000D03*
X101674000Y-70469000D03*
D27*
X103124000Y-69469000D03*
D28*
X95897750Y-71882000D03*
X99682250Y-71882000D03*
D12*
X103251000Y-66942000D03*
X103251000Y-65392000D03*
D28*
X95897750Y-66929000D03*
X99682250Y-66929000D03*
D29*
X116967000Y-66548000D03*
X112667000Y-66548000D03*
D12*
X101727000Y-66955000D03*
X101727000Y-65405000D03*
D30*
X117221000Y-72139500D03*
X114921000Y-72139500D03*
X112621000Y-72139500D03*
D31*
X114921000Y-78439500D03*
D18*
X107061000Y-66547000D03*
X107061000Y-64897000D03*
D32*
X102743000Y-62255400D03*
X98958500Y-62255400D03*
D33*
X106045000Y-67945000D03*
X107595000Y-67945000D03*
X107061000Y-73964800D03*
X108611000Y-73964800D03*
D34*
X107889000Y-59182000D03*
D35*
X110164000Y-73207000D03*
D34*
X96139000Y-59182000D03*
D36*
X93864000Y-75482000D03*
D35*
X93864000Y-73207000D03*
D36*
X110164000Y-75482000D03*
D37*
X102014000Y-59182000D03*
D36*
X110164000Y-59182000D03*
D35*
X110164000Y-61457000D03*
D34*
X107889000Y-75482000D03*
X96139000Y-75482000D03*
D38*
X110164000Y-67332000D03*
X93864000Y-67332000D03*
D35*
X93864000Y-61457000D03*
D37*
X102014000Y-75482000D03*
D36*
X93864000Y-59182000D03*
D33*
X101447000Y-78626000D03*
X102997000Y-78626000D03*
D13*
X107836000Y-69469000D03*
X106286000Y-69469000D03*
D39*
X105537000Y-64897000D03*
X105537000Y-66447000D03*
D17*
X99695000Y-77089000D03*
X101345000Y-77089000D03*
D33*
X107061000Y-72466200D03*
X108611000Y-72466200D03*
D24*
X104355000Y-72644000D03*
D25*
X101980000Y-72644000D03*
D13*
X96914000Y-60706000D03*
X95364000Y-60706000D03*
D17*
X106744000Y-70993000D03*
X108394000Y-70993000D03*
D21*
X113284000Y-69850000D03*
X115359000Y-69850000D03*
D18*
X108585000Y-66547000D03*
X108585000Y-64897000D03*
D20*
X117094000Y-60981500D03*
X117094000Y-58906500D03*
D13*
X96914000Y-62230000D03*
X95364000Y-62230000D03*
G36*
X82444891Y-75813874D02*
G01*
X82491944Y-75853197D01*
X82560660Y-75861830D01*
X82623289Y-75831867D01*
X82630800Y-75823197D01*
X82632690Y-75822543D01*
X82634202Y-75823853D01*
X82633975Y-75825618D01*
X82628379Y-75833994D01*
X82617000Y-75891199D01*
X82617000Y-77140801D01*
X82628379Y-77198006D01*
X82640055Y-77215480D01*
X82640186Y-77217476D01*
X82638523Y-77218587D01*
X82637109Y-77218126D01*
X82590056Y-77178803D01*
X82521340Y-77170170D01*
X82458711Y-77200133D01*
X82451200Y-77208803D01*
X82449310Y-77209457D01*
X82447798Y-77208147D01*
X82448025Y-77206382D01*
X82453621Y-77198006D01*
X82465000Y-77140801D01*
X82465000Y-75891199D01*
X82453621Y-75833994D01*
X82441945Y-75816520D01*
X82441814Y-75814524D01*
X82443477Y-75813413D01*
X82444891Y-75813874D01*
G37*
G36*
X85044891Y-75813874D02*
G01*
X85091944Y-75853197D01*
X85160660Y-75861830D01*
X85223289Y-75831867D01*
X85230800Y-75823197D01*
X85232690Y-75822543D01*
X85234202Y-75823853D01*
X85233975Y-75825618D01*
X85228379Y-75833994D01*
X85217000Y-75891199D01*
X85217000Y-77140801D01*
X85228379Y-77198006D01*
X85240055Y-77215480D01*
X85240186Y-77217476D01*
X85238523Y-77218587D01*
X85237109Y-77218126D01*
X85190056Y-77178803D01*
X85121340Y-77170170D01*
X85058711Y-77200133D01*
X85051200Y-77208803D01*
X85049310Y-77209457D01*
X85047798Y-77208147D01*
X85048025Y-77206382D01*
X85053621Y-77198006D01*
X85065000Y-77140801D01*
X85065000Y-75891199D01*
X85053621Y-75833994D01*
X85041945Y-75816520D01*
X85041814Y-75814524D01*
X85043477Y-75813413D01*
X85044891Y-75813874D01*
G37*
G36*
X84394891Y-75813874D02*
G01*
X84441944Y-75853197D01*
X84510660Y-75861830D01*
X84573289Y-75831867D01*
X84580800Y-75823197D01*
X84582690Y-75822543D01*
X84584202Y-75823853D01*
X84583975Y-75825618D01*
X84578379Y-75833994D01*
X84567000Y-75891199D01*
X84567000Y-77140801D01*
X84578379Y-77198006D01*
X84590055Y-77215480D01*
X84590186Y-77217476D01*
X84588523Y-77218587D01*
X84587109Y-77218126D01*
X84540056Y-77178803D01*
X84471340Y-77170170D01*
X84408711Y-77200133D01*
X84401200Y-77208803D01*
X84399310Y-77209457D01*
X84397798Y-77208147D01*
X84398025Y-77206382D01*
X84403621Y-77198006D01*
X84415000Y-77140801D01*
X84415000Y-75891199D01*
X84403621Y-75833994D01*
X84391945Y-75816520D01*
X84391814Y-75814524D01*
X84393477Y-75813413D01*
X84394891Y-75813874D01*
G37*
G36*
X83744891Y-75813874D02*
G01*
X83791944Y-75853197D01*
X83860660Y-75861830D01*
X83923289Y-75831867D01*
X83930800Y-75823197D01*
X83932690Y-75822543D01*
X83934202Y-75823853D01*
X83933975Y-75825618D01*
X83928379Y-75833994D01*
X83917000Y-75891199D01*
X83917000Y-77140801D01*
X83928379Y-77198006D01*
X83940055Y-77215480D01*
X83940186Y-77217476D01*
X83938523Y-77218587D01*
X83937109Y-77218126D01*
X83890056Y-77178803D01*
X83821340Y-77170170D01*
X83758711Y-77200133D01*
X83751200Y-77208803D01*
X83749310Y-77209457D01*
X83747798Y-77208147D01*
X83748025Y-77206382D01*
X83753621Y-77198006D01*
X83765000Y-77140801D01*
X83765000Y-75891199D01*
X83753621Y-75833994D01*
X83741945Y-75816520D01*
X83741814Y-75814524D01*
X83743477Y-75813413D01*
X83744891Y-75813874D01*
G37*
G36*
X83094891Y-75813874D02*
G01*
X83141944Y-75853197D01*
X83210660Y-75861830D01*
X83273289Y-75831867D01*
X83280800Y-75823197D01*
X83282690Y-75822543D01*
X83284202Y-75823853D01*
X83283975Y-75825618D01*
X83278379Y-75833994D01*
X83267000Y-75891199D01*
X83267000Y-77140801D01*
X83278379Y-77198006D01*
X83290055Y-77215480D01*
X83290186Y-77217476D01*
X83288523Y-77218587D01*
X83287109Y-77218126D01*
X83240056Y-77178803D01*
X83171340Y-77170170D01*
X83108711Y-77200133D01*
X83101200Y-77208803D01*
X83099310Y-77209457D01*
X83097798Y-77208147D01*
X83098025Y-77206382D01*
X83103621Y-77198006D01*
X83115000Y-77140801D01*
X83115000Y-75891199D01*
X83103621Y-75833994D01*
X83091945Y-75816520D01*
X83091814Y-75814524D01*
X83093477Y-75813413D01*
X83094891Y-75813874D01*
G37*
G36*
X83744891Y-71513874D02*
G01*
X83791944Y-71553197D01*
X83860660Y-71561830D01*
X83923289Y-71531867D01*
X83930800Y-71523197D01*
X83932690Y-71522543D01*
X83934202Y-71523853D01*
X83933975Y-71525618D01*
X83928379Y-71533994D01*
X83917000Y-71591199D01*
X83917000Y-72840801D01*
X83928379Y-72898006D01*
X83940055Y-72915480D01*
X83940186Y-72917476D01*
X83938523Y-72918587D01*
X83937109Y-72918126D01*
X83890056Y-72878803D01*
X83821340Y-72870170D01*
X83758711Y-72900133D01*
X83751200Y-72908803D01*
X83749310Y-72909457D01*
X83747798Y-72908147D01*
X83748025Y-72906382D01*
X83753621Y-72898006D01*
X83765000Y-72840801D01*
X83765000Y-71591199D01*
X83753621Y-71533994D01*
X83741945Y-71516520D01*
X83741814Y-71514524D01*
X83743477Y-71513413D01*
X83744891Y-71513874D01*
G37*
G36*
X85044891Y-71513874D02*
G01*
X85091944Y-71553197D01*
X85160660Y-71561830D01*
X85223289Y-71531867D01*
X85230800Y-71523197D01*
X85232690Y-71522543D01*
X85234202Y-71523853D01*
X85233975Y-71525618D01*
X85228379Y-71533994D01*
X85217000Y-71591199D01*
X85217000Y-72840801D01*
X85228379Y-72898006D01*
X85240055Y-72915480D01*
X85240186Y-72917476D01*
X85238523Y-72918587D01*
X85237109Y-72918126D01*
X85190056Y-72878803D01*
X85121340Y-72870170D01*
X85058711Y-72900133D01*
X85051200Y-72908803D01*
X85049310Y-72909457D01*
X85047798Y-72908147D01*
X85048025Y-72906382D01*
X85053621Y-72898006D01*
X85065000Y-72840801D01*
X85065000Y-71591199D01*
X85053621Y-71533994D01*
X85041945Y-71516520D01*
X85041814Y-71514524D01*
X85043477Y-71513413D01*
X85044891Y-71513874D01*
G37*
G36*
X83094891Y-71513874D02*
G01*
X83141944Y-71553197D01*
X83210660Y-71561830D01*
X83273289Y-71531867D01*
X83280800Y-71523197D01*
X83282690Y-71522543D01*
X83284202Y-71523853D01*
X83283975Y-71525618D01*
X83278379Y-71533994D01*
X83267000Y-71591199D01*
X83267000Y-72840801D01*
X83278379Y-72898006D01*
X83290055Y-72915480D01*
X83290186Y-72917476D01*
X83288523Y-72918587D01*
X83287109Y-72918126D01*
X83240056Y-72878803D01*
X83171340Y-72870170D01*
X83108711Y-72900133D01*
X83101200Y-72908803D01*
X83099310Y-72909457D01*
X83097798Y-72908147D01*
X83098025Y-72906382D01*
X83103621Y-72898006D01*
X83115000Y-72840801D01*
X83115000Y-71591199D01*
X83103621Y-71533994D01*
X83091945Y-71516520D01*
X83091814Y-71514524D01*
X83093477Y-71513413D01*
X83094891Y-71513874D01*
G37*
G36*
X82444891Y-71513874D02*
G01*
X82491944Y-71553197D01*
X82560660Y-71561830D01*
X82623289Y-71531867D01*
X82630800Y-71523197D01*
X82632690Y-71522543D01*
X82634202Y-71523853D01*
X82633975Y-71525618D01*
X82628379Y-71533994D01*
X82617000Y-71591199D01*
X82617000Y-72840801D01*
X82628379Y-72898006D01*
X82640055Y-72915480D01*
X82640186Y-72917476D01*
X82638523Y-72918587D01*
X82637109Y-72918126D01*
X82590056Y-72878803D01*
X82521340Y-72870170D01*
X82458711Y-72900133D01*
X82451200Y-72908803D01*
X82449310Y-72909457D01*
X82447798Y-72908147D01*
X82448025Y-72906382D01*
X82453621Y-72898006D01*
X82465000Y-72840801D01*
X82465000Y-71591199D01*
X82453621Y-71533994D01*
X82441945Y-71516520D01*
X82441814Y-71514524D01*
X82443477Y-71513413D01*
X82444891Y-71513874D01*
G37*
G36*
X84394891Y-71513874D02*
G01*
X84441944Y-71553197D01*
X84510660Y-71561830D01*
X84573289Y-71531867D01*
X84580800Y-71523197D01*
X84582690Y-71522543D01*
X84584202Y-71523853D01*
X84583975Y-71525618D01*
X84578379Y-71533994D01*
X84567000Y-71591199D01*
X84567000Y-72840801D01*
X84578379Y-72898006D01*
X84590055Y-72915480D01*
X84590186Y-72917476D01*
X84588523Y-72918587D01*
X84587109Y-72918126D01*
X84540056Y-72878803D01*
X84471340Y-72870170D01*
X84408711Y-72900133D01*
X84401200Y-72908803D01*
X84399310Y-72909457D01*
X84397798Y-72908147D01*
X84398025Y-72906382D01*
X84403621Y-72898006D01*
X84415000Y-72840801D01*
X84415000Y-71591199D01*
X84403621Y-71533994D01*
X84391945Y-71516520D01*
X84391814Y-71514524D01*
X84393477Y-71513413D01*
X84394891Y-71513874D01*
G37*
G36*
X103999006Y-68264529D02*
G01*
X104000058Y-68266104D01*
X104053434Y-68310711D01*
X104122226Y-68319351D01*
X104160690Y-68304218D01*
X104162668Y-68304514D01*
X104163400Y-68306375D01*
X104162533Y-68307742D01*
X104132685Y-68327685D01*
X104108525Y-68363844D01*
X104100000Y-68406699D01*
X104100000Y-68531301D01*
X104108525Y-68574156D01*
X104132685Y-68610315D01*
X104168844Y-68634475D01*
X104211699Y-68643000D01*
X104936301Y-68643000D01*
X104979156Y-68634475D01*
X105000898Y-68619948D01*
X105002894Y-68619817D01*
X105004005Y-68621480D01*
X105003544Y-68622894D01*
X104964223Y-68669945D01*
X104955592Y-68738661D01*
X104985556Y-68801291D01*
X104994219Y-68808798D01*
X104994873Y-68810688D01*
X104993563Y-68812199D01*
X104991798Y-68811972D01*
X104979156Y-68803525D01*
X104936301Y-68795000D01*
X104211699Y-68795000D01*
X104168844Y-68803525D01*
X104132685Y-68827685D01*
X104108525Y-68863844D01*
X104100000Y-68906699D01*
X104100000Y-69031301D01*
X104108525Y-69074156D01*
X104132685Y-69110315D01*
X104168844Y-69134475D01*
X104211699Y-69143000D01*
X104936301Y-69143000D01*
X104979156Y-69134475D01*
X105000898Y-69119948D01*
X105002894Y-69119817D01*
X105004005Y-69121480D01*
X105003544Y-69122894D01*
X104964223Y-69169945D01*
X104955592Y-69238661D01*
X104985556Y-69301291D01*
X104994219Y-69308798D01*
X104994873Y-69310688D01*
X104993563Y-69312199D01*
X104991798Y-69311972D01*
X104979156Y-69303525D01*
X104936301Y-69295000D01*
X104211699Y-69295000D01*
X104168844Y-69303525D01*
X104132685Y-69327685D01*
X104108525Y-69363844D01*
X104100000Y-69406699D01*
X104100000Y-69531301D01*
X104108525Y-69574156D01*
X104132685Y-69610315D01*
X104168844Y-69634475D01*
X104211699Y-69643000D01*
X104936301Y-69643000D01*
X104979156Y-69634475D01*
X105000898Y-69619948D01*
X105002894Y-69619817D01*
X105004005Y-69621480D01*
X105003544Y-69622894D01*
X104964223Y-69669945D01*
X104955592Y-69738661D01*
X104985556Y-69801291D01*
X104994219Y-69808798D01*
X104994873Y-69810688D01*
X104993563Y-69812199D01*
X104991798Y-69811972D01*
X104979156Y-69803525D01*
X104936301Y-69795000D01*
X104211699Y-69795000D01*
X104168844Y-69803525D01*
X104132685Y-69827685D01*
X104108525Y-69863844D01*
X104100000Y-69906699D01*
X104100000Y-70031301D01*
X104108525Y-70074156D01*
X104132685Y-70110315D01*
X104168844Y-70134475D01*
X104211699Y-70143000D01*
X104936301Y-70143000D01*
X104979156Y-70134475D01*
X105000898Y-70119948D01*
X105002894Y-70119817D01*
X105004005Y-70121480D01*
X105003544Y-70122894D01*
X104964223Y-70169945D01*
X104955592Y-70238661D01*
X104985556Y-70301291D01*
X104994219Y-70308798D01*
X104994873Y-70310688D01*
X104993563Y-70312199D01*
X104991798Y-70311972D01*
X104979156Y-70303525D01*
X104936301Y-70295000D01*
X104211699Y-70295000D01*
X104168844Y-70303525D01*
X104132685Y-70327685D01*
X104108525Y-70363844D01*
X104100000Y-70406699D01*
X104100000Y-70531301D01*
X104108525Y-70574156D01*
X104132685Y-70610315D01*
X104163957Y-70631210D01*
X104164842Y-70633004D01*
X104163731Y-70634667D01*
X104162456Y-70634835D01*
X104159495Y-70634246D01*
X104159287Y-70634193D01*
X104104681Y-70617095D01*
X104037817Y-70635439D01*
X104000099Y-70671834D01*
X103999006Y-70673471D01*
X103997213Y-70674356D01*
X103995549Y-70673245D01*
X103995381Y-70671970D01*
X103998000Y-70658801D01*
X103998000Y-68279199D01*
X103995381Y-68266030D01*
X103996024Y-68264136D01*
X103997986Y-68263746D01*
X103999006Y-68264529D01*
G37*
G36*
X102252451Y-68264755D02*
G01*
X102252619Y-68266030D01*
X102250000Y-68279199D01*
X102250000Y-70658801D01*
X102252619Y-70671970D01*
X102251976Y-70673864D01*
X102250014Y-70674254D01*
X102248994Y-70673471D01*
X102247942Y-70671896D01*
X102194566Y-70627289D01*
X102125774Y-70618649D01*
X102087310Y-70633782D01*
X102085332Y-70633486D01*
X102084600Y-70631625D01*
X102085467Y-70630258D01*
X102115315Y-70610315D01*
X102139475Y-70574156D01*
X102148000Y-70531301D01*
X102148000Y-70406699D01*
X102139475Y-70363844D01*
X102115315Y-70327685D01*
X102079156Y-70303525D01*
X102036301Y-70295000D01*
X101311699Y-70295000D01*
X101268844Y-70303525D01*
X101247102Y-70318052D01*
X101245106Y-70318183D01*
X101243995Y-70316520D01*
X101244456Y-70315106D01*
X101283777Y-70268055D01*
X101292408Y-70199339D01*
X101262444Y-70136709D01*
X101253781Y-70129202D01*
X101253127Y-70127312D01*
X101254437Y-70125801D01*
X101256202Y-70126028D01*
X101268844Y-70134475D01*
X101311699Y-70143000D01*
X102036301Y-70143000D01*
X102079156Y-70134475D01*
X102115315Y-70110315D01*
X102139475Y-70074156D01*
X102148000Y-70031301D01*
X102148000Y-69906699D01*
X102139475Y-69863844D01*
X102115315Y-69827685D01*
X102079156Y-69803525D01*
X102036301Y-69795000D01*
X101311699Y-69795000D01*
X101268844Y-69803525D01*
X101247102Y-69818052D01*
X101245106Y-69818183D01*
X101243995Y-69816520D01*
X101244456Y-69815106D01*
X101283777Y-69768055D01*
X101292408Y-69699339D01*
X101262444Y-69636709D01*
X101253781Y-69629202D01*
X101253127Y-69627312D01*
X101254437Y-69625801D01*
X101256202Y-69626028D01*
X101268844Y-69634475D01*
X101311699Y-69643000D01*
X102036301Y-69643000D01*
X102079156Y-69634475D01*
X102115315Y-69610315D01*
X102139475Y-69574156D01*
X102148000Y-69531301D01*
X102148000Y-69406699D01*
X102139475Y-69363844D01*
X102115315Y-69327685D01*
X102079156Y-69303525D01*
X102036301Y-69295000D01*
X101311699Y-69295000D01*
X101268844Y-69303525D01*
X101247102Y-69318052D01*
X101245106Y-69318183D01*
X101243995Y-69316520D01*
X101244456Y-69315106D01*
X101283777Y-69268055D01*
X101292408Y-69199339D01*
X101262444Y-69136709D01*
X101253781Y-69129202D01*
X101253127Y-69127312D01*
X101254437Y-69125801D01*
X101256202Y-69126028D01*
X101268844Y-69134475D01*
X101311699Y-69143000D01*
X102036301Y-69143000D01*
X102079156Y-69134475D01*
X102115315Y-69110315D01*
X102139475Y-69074156D01*
X102148000Y-69031301D01*
X102148000Y-68906699D01*
X102139475Y-68863844D01*
X102115315Y-68827685D01*
X102079156Y-68803525D01*
X102036301Y-68795000D01*
X101311699Y-68795000D01*
X101268844Y-68803525D01*
X101247102Y-68818052D01*
X101245106Y-68818183D01*
X101243995Y-68816520D01*
X101244456Y-68815106D01*
X101283777Y-68768055D01*
X101292408Y-68699339D01*
X101262444Y-68636709D01*
X101253781Y-68629202D01*
X101253127Y-68627312D01*
X101254437Y-68625801D01*
X101256202Y-68626028D01*
X101268844Y-68634475D01*
X101311699Y-68643000D01*
X102036301Y-68643000D01*
X102079156Y-68634475D01*
X102115315Y-68610315D01*
X102139475Y-68574156D01*
X102148000Y-68531301D01*
X102148000Y-68406699D01*
X102139475Y-68363844D01*
X102115315Y-68327685D01*
X102084043Y-68306790D01*
X102083158Y-68304996D01*
X102084269Y-68303333D01*
X102085544Y-68303165D01*
X102088505Y-68303754D01*
X102088713Y-68303807D01*
X102143319Y-68320905D01*
X102210183Y-68302561D01*
X102247901Y-68266166D01*
X102248994Y-68264529D01*
X102250787Y-68263644D01*
X102252451Y-68264755D01*
G37*
G36*
X84930391Y-62529374D02*
G01*
X84977444Y-62568697D01*
X85046160Y-62577330D01*
X85108789Y-62547367D01*
X85116300Y-62538697D01*
X85118190Y-62538043D01*
X85119702Y-62539353D01*
X85119475Y-62541118D01*
X85113879Y-62549494D01*
X85102500Y-62606699D01*
X85102500Y-63856301D01*
X85113879Y-63913506D01*
X85125555Y-63930980D01*
X85125686Y-63932976D01*
X85124023Y-63934087D01*
X85122609Y-63933626D01*
X85075556Y-63894303D01*
X85006840Y-63885670D01*
X84944211Y-63915633D01*
X84936700Y-63924303D01*
X84934810Y-63924957D01*
X84933298Y-63923647D01*
X84933525Y-63921882D01*
X84939121Y-63913506D01*
X84950500Y-63856301D01*
X84950500Y-62606699D01*
X84939121Y-62549494D01*
X84927445Y-62532020D01*
X84927314Y-62530024D01*
X84928977Y-62528913D01*
X84930391Y-62529374D01*
G37*
G36*
X86230391Y-62529374D02*
G01*
X86277444Y-62568697D01*
X86346160Y-62577330D01*
X86408789Y-62547367D01*
X86416300Y-62538697D01*
X86418190Y-62538043D01*
X86419702Y-62539353D01*
X86419475Y-62541118D01*
X86413879Y-62549494D01*
X86402500Y-62606699D01*
X86402500Y-63856301D01*
X86413879Y-63913506D01*
X86425555Y-63930980D01*
X86425686Y-63932976D01*
X86424023Y-63934087D01*
X86422609Y-63933626D01*
X86375556Y-63894303D01*
X86306840Y-63885670D01*
X86244211Y-63915633D01*
X86236700Y-63924303D01*
X86234810Y-63924957D01*
X86233298Y-63923647D01*
X86233525Y-63921882D01*
X86239121Y-63913506D01*
X86250500Y-63856301D01*
X86250500Y-62606699D01*
X86239121Y-62549494D01*
X86227445Y-62532020D01*
X86227314Y-62530024D01*
X86228977Y-62528913D01*
X86230391Y-62529374D01*
G37*
G36*
X84280391Y-62529374D02*
G01*
X84327444Y-62568697D01*
X84396160Y-62577330D01*
X84458789Y-62547367D01*
X84466300Y-62538697D01*
X84468190Y-62538043D01*
X84469702Y-62539353D01*
X84469475Y-62541118D01*
X84463879Y-62549494D01*
X84452500Y-62606699D01*
X84452500Y-63856301D01*
X84463879Y-63913506D01*
X84475555Y-63930980D01*
X84475686Y-63932976D01*
X84474023Y-63934087D01*
X84472609Y-63933626D01*
X84425556Y-63894303D01*
X84356840Y-63885670D01*
X84294211Y-63915633D01*
X84286700Y-63924303D01*
X84284810Y-63924957D01*
X84283298Y-63923647D01*
X84283525Y-63921882D01*
X84289121Y-63913506D01*
X84300500Y-63856301D01*
X84300500Y-62606699D01*
X84289121Y-62549494D01*
X84277445Y-62532020D01*
X84277314Y-62530024D01*
X84278977Y-62528913D01*
X84280391Y-62529374D01*
G37*
G36*
X83630391Y-62529374D02*
G01*
X83677444Y-62568697D01*
X83746160Y-62577330D01*
X83808789Y-62547367D01*
X83816300Y-62538697D01*
X83818190Y-62538043D01*
X83819702Y-62539353D01*
X83819475Y-62541118D01*
X83813879Y-62549494D01*
X83802500Y-62606699D01*
X83802500Y-63856301D01*
X83813879Y-63913506D01*
X83825555Y-63930980D01*
X83825686Y-63932976D01*
X83824023Y-63934087D01*
X83822609Y-63933626D01*
X83775556Y-63894303D01*
X83706840Y-63885670D01*
X83644211Y-63915633D01*
X83636700Y-63924303D01*
X83634810Y-63924957D01*
X83633298Y-63923647D01*
X83633525Y-63921882D01*
X83639121Y-63913506D01*
X83650500Y-63856301D01*
X83650500Y-62606699D01*
X83639121Y-62549494D01*
X83627445Y-62532020D01*
X83627314Y-62530024D01*
X83628977Y-62528913D01*
X83630391Y-62529374D01*
G37*
G36*
X85580391Y-62529374D02*
G01*
X85627444Y-62568697D01*
X85696160Y-62577330D01*
X85758789Y-62547367D01*
X85766300Y-62538697D01*
X85768190Y-62538043D01*
X85769702Y-62539353D01*
X85769475Y-62541118D01*
X85763879Y-62549494D01*
X85752500Y-62606699D01*
X85752500Y-63856301D01*
X85763879Y-63913506D01*
X85775555Y-63930980D01*
X85775686Y-63932976D01*
X85774023Y-63934087D01*
X85772609Y-63933626D01*
X85725556Y-63894303D01*
X85656840Y-63885670D01*
X85594211Y-63915633D01*
X85586700Y-63924303D01*
X85584810Y-63924957D01*
X85583298Y-63923647D01*
X85583525Y-63921882D01*
X85589121Y-63913506D01*
X85600500Y-63856301D01*
X85600500Y-62606699D01*
X85589121Y-62549494D01*
X85577445Y-62532020D01*
X85577314Y-62530024D01*
X85578977Y-62528913D01*
X85580391Y-62529374D01*
G37*
G36*
X84280391Y-58229374D02*
G01*
X84327444Y-58268697D01*
X84396160Y-58277330D01*
X84458789Y-58247367D01*
X84466300Y-58238697D01*
X84468190Y-58238043D01*
X84469702Y-58239353D01*
X84469475Y-58241118D01*
X84463879Y-58249494D01*
X84452500Y-58306699D01*
X84452500Y-59556301D01*
X84463879Y-59613506D01*
X84475555Y-59630980D01*
X84475686Y-59632976D01*
X84474023Y-59634087D01*
X84472609Y-59633626D01*
X84425556Y-59594303D01*
X84356840Y-59585670D01*
X84294211Y-59615633D01*
X84286700Y-59624303D01*
X84284810Y-59624957D01*
X84283298Y-59623647D01*
X84283525Y-59621882D01*
X84289121Y-59613506D01*
X84300500Y-59556301D01*
X84300500Y-58306699D01*
X84289121Y-58249494D01*
X84277445Y-58232020D01*
X84277314Y-58230024D01*
X84278977Y-58228913D01*
X84280391Y-58229374D01*
G37*
G36*
X83630391Y-58229374D02*
G01*
X83677444Y-58268697D01*
X83746160Y-58277330D01*
X83808789Y-58247367D01*
X83816300Y-58238697D01*
X83818190Y-58238043D01*
X83819702Y-58239353D01*
X83819475Y-58241118D01*
X83813879Y-58249494D01*
X83802500Y-58306699D01*
X83802500Y-59556301D01*
X83813879Y-59613506D01*
X83825555Y-59630980D01*
X83825686Y-59632976D01*
X83824023Y-59634087D01*
X83822609Y-59633626D01*
X83775556Y-59594303D01*
X83706840Y-59585670D01*
X83644211Y-59615633D01*
X83636700Y-59624303D01*
X83634810Y-59624957D01*
X83633298Y-59623647D01*
X83633525Y-59621882D01*
X83639121Y-59613506D01*
X83650500Y-59556301D01*
X83650500Y-58306699D01*
X83639121Y-58249494D01*
X83627445Y-58232020D01*
X83627314Y-58230024D01*
X83628977Y-58228913D01*
X83630391Y-58229374D01*
G37*
G36*
X86230391Y-58229374D02*
G01*
X86277444Y-58268697D01*
X86346160Y-58277330D01*
X86408789Y-58247367D01*
X86416300Y-58238697D01*
X86418190Y-58238043D01*
X86419702Y-58239353D01*
X86419475Y-58241118D01*
X86413879Y-58249494D01*
X86402500Y-58306699D01*
X86402500Y-59556301D01*
X86413879Y-59613506D01*
X86425555Y-59630980D01*
X86425686Y-59632976D01*
X86424023Y-59634087D01*
X86422609Y-59633626D01*
X86375556Y-59594303D01*
X86306840Y-59585670D01*
X86244211Y-59615633D01*
X86236700Y-59624303D01*
X86234810Y-59624957D01*
X86233298Y-59623647D01*
X86233525Y-59621882D01*
X86239121Y-59613506D01*
X86250500Y-59556301D01*
X86250500Y-58306699D01*
X86239121Y-58249494D01*
X86227445Y-58232020D01*
X86227314Y-58230024D01*
X86228977Y-58228913D01*
X86230391Y-58229374D01*
G37*
G36*
X85580391Y-58229374D02*
G01*
X85627444Y-58268697D01*
X85696160Y-58277330D01*
X85758789Y-58247367D01*
X85766300Y-58238697D01*
X85768190Y-58238043D01*
X85769702Y-58239353D01*
X85769475Y-58241118D01*
X85763879Y-58249494D01*
X85752500Y-58306699D01*
X85752500Y-59556301D01*
X85763879Y-59613506D01*
X85775555Y-59630980D01*
X85775686Y-59632976D01*
X85774023Y-59634087D01*
X85772609Y-59633626D01*
X85725556Y-59594303D01*
X85656840Y-59585670D01*
X85594211Y-59615633D01*
X85586700Y-59624303D01*
X85584810Y-59624957D01*
X85583298Y-59623647D01*
X85583525Y-59621882D01*
X85589121Y-59613506D01*
X85600500Y-59556301D01*
X85600500Y-58306699D01*
X85589121Y-58249494D01*
X85577445Y-58232020D01*
X85577314Y-58230024D01*
X85578977Y-58228913D01*
X85580391Y-58229374D01*
G37*
G36*
X84930391Y-58229374D02*
G01*
X84977444Y-58268697D01*
X85046160Y-58277330D01*
X85108789Y-58247367D01*
X85116300Y-58238697D01*
X85118190Y-58238043D01*
X85119702Y-58239353D01*
X85119475Y-58241118D01*
X85113879Y-58249494D01*
X85102500Y-58306699D01*
X85102500Y-59556301D01*
X85113879Y-59613506D01*
X85125555Y-59630980D01*
X85125686Y-59632976D01*
X85124023Y-59634087D01*
X85122609Y-59633626D01*
X85075556Y-59594303D01*
X85006840Y-59585670D01*
X84944211Y-59615633D01*
X84936700Y-59624303D01*
X84934810Y-59624957D01*
X84933298Y-59623647D01*
X84933525Y-59621882D01*
X84939121Y-59613506D01*
X84950500Y-59556301D01*
X84950500Y-58306699D01*
X84939121Y-58249494D01*
X84927445Y-58232020D01*
X84927314Y-58230024D01*
X84928977Y-58228913D01*
X84930391Y-58229374D01*
G37*
M02*
