M48
; DRILL file {KiCad 5.1.5-52549c5~86~ubuntu18.04.1} date So 26 Apr 2020 14:43:11 CEST
; FORMAT={-:-/ absolute / inch / decimal}
; #@! TF.CreationDate,2020-04-26T14:43:11+02:00
; #@! TF.GenerationSoftware,Kicad,Pcbnew,5.1.5-52549c5~86~ubuntu18.04.1
FMAT,2
INCH
T1C0.0118
T2C0.0157
T3C0.0197
T4C0.0315
T5C0.0472
%
G90
G05
T1
X3.15Y-2.32
X3.15Y-2.37
X3.15Y-2.42
X3.15Y-2.56
X3.15Y-2.61
X3.15Y-3.08
X3.1775Y-2.7425
X3.1775Y-2.7725
X3.2Y-3.08
X3.2075Y-2.7425
X3.2075Y-2.7725
X3.22Y-2.32
X3.22Y-2.37
X3.2375Y-2.7425
X3.2375Y-2.7725
X3.2675Y-2.7425
X3.2675Y-2.7725
X3.29Y-2.32
X3.35Y-2.32
X3.39Y-2.32
X3.42Y-3.08
X3.43Y-2.32
X3.47Y-2.32
X3.5Y-2.24
X3.54Y-2.455
X3.54Y-2.5
X3.6Y-2.24
X3.6Y-2.3
X3.62Y-2.95
X3.64Y-2.455
X3.64Y-2.5
X3.68Y-2.95
X3.7Y-2.24
X3.7Y-2.3
X3.74Y-2.455
X3.74Y-2.5
X3.75Y-2.97
X3.75Y-3.09
X3.76Y-2.635
X3.76Y-2.665
X3.79Y-2.635
X3.79Y-2.665
X3.8Y-2.97
X3.8Y-3.09
X3.82Y-2.635
X3.82Y-2.665
X3.85Y-2.635
X3.85Y-2.665
X3.85Y-2.97
X3.85Y-3.09
X3.88Y-2.635
X3.88Y-2.665
X3.9Y-2.2
X3.9Y-2.305
X4.0Y-2.2
X4.0Y-2.3
X4.0Y-2.4
X4.0Y-3.0
X4.0Y-3.05
X4.0Y-3.1
X4.04Y-2.85
X4.04Y-2.9
X4.04Y-2.95
X4.05Y-2.46
X4.05Y-2.5
X4.07Y-2.75
X4.1Y-2.2
X4.1Y-2.3
X4.1Y-2.46
X4.1Y-2.5
X4.1Y-2.85
X4.1Y-2.9
X4.1Y-2.95
X4.1Y-3.0
X4.1Y-3.1
X4.15Y-2.46
X4.15Y-2.5
X4.15Y-2.55
X4.15Y-2.6
X4.15Y-2.65
X4.15Y-2.7
X4.15Y-2.75
X4.2Y-2.55
X4.2Y-2.6
X4.2Y-2.65
X4.2Y-2.7
X4.2Y-2.75
X4.2Y-2.95
X4.2Y-3.0
X4.2Y-3.1
X4.3Y-2.2
X4.3Y-2.3
X4.3Y-2.6
X4.3Y-2.65
X4.3Y-2.7
X4.3Y-2.75
X4.3Y-2.8
X4.3Y-2.85
X4.3Y-2.9
X4.3Y-2.95
X4.3Y-3.0
X4.3Y-3.1
X4.4Y-2.7
X4.4Y-2.75
X4.4Y-2.94
X4.4Y-3.0
X4.4Y-3.1
X4.5Y-2.7
X4.5Y-2.75
X4.5Y-2.94
X4.5Y-3.0
X4.5Y-3.1
T2
X3.225Y-2.8975
X3.705Y-2.69
T3
X3.8Y-2.495
X3.82Y-2.795
T4
X3.5875Y-2.39
X3.6875Y-2.39
X3.7875Y-2.39
X3.8875Y-2.39
X4.0875Y-2.39
X4.1875Y-2.39
X4.2875Y-2.39
T5
X4.4567Y-2.4413
X3.5118Y-2.6382
X4.4567Y-2.2445
X3.5118Y-2.835
X3.5118Y-3.0319
T0
M30
