G04 #@! TF.GenerationSoftware,KiCad,Pcbnew,5.1.5-52549c5~86~ubuntu18.04.1*
G04 #@! TF.CreationDate,2020-04-26T14:43:08+02:00*
G04 #@! TF.ProjectId,dcdc_7909,64636463-5f37-4393-9039-2e6b69636164,rev?*
G04 #@! TF.SameCoordinates,Original*
G04 #@! TF.FileFunction,Copper,L2,Bot*
G04 #@! TF.FilePolarity,Positive*
%FSLAX46Y46*%
G04 Gerber Fmt 4.6, Leading zero omitted, Abs format (unit mm)*
G04 Created by KiCad (PCBNEW 5.1.5-52549c5~86~ubuntu18.04.1) date 2020-04-26 14:43:08*
%MOMM*%
%LPD*%
G04 APERTURE LIST*
%ADD10C,2.000000*%
%ADD11R,2.000000X2.000000*%
%ADD12C,0.100000*%
%ADD13C,3.500120*%
%ADD14C,0.700000*%
%ADD15C,0.800000*%
%ADD16C,0.900000*%
%ADD17C,1.000000*%
%ADD18C,0.508000*%
%ADD19C,1.016000*%
%ADD20C,0.254000*%
%ADD21C,0.200000*%
G04 APERTURE END LIST*
D10*
X91122500Y-60706000D03*
X93662500Y-60706000D03*
X96202500Y-60706000D03*
X98742500Y-60706000D03*
X103822500Y-60706000D03*
X106362500Y-60706000D03*
D11*
X108902500Y-60706000D03*
G04 #@! TA.AperFunction,SMDPad,CuDef*
D12*
G36*
X106686779Y-56245144D02*
G01*
X106709834Y-56248563D01*
X106732443Y-56254227D01*
X106754387Y-56262079D01*
X106775457Y-56272044D01*
X106795448Y-56284026D01*
X106814168Y-56297910D01*
X106831438Y-56313562D01*
X106847090Y-56330832D01*
X106860974Y-56349552D01*
X106872956Y-56369543D01*
X106882921Y-56390613D01*
X106890773Y-56412557D01*
X106896437Y-56435166D01*
X106899856Y-56458221D01*
X106901000Y-56481500D01*
X106901000Y-57056500D01*
X106899856Y-57079779D01*
X106896437Y-57102834D01*
X106890773Y-57125443D01*
X106882921Y-57147387D01*
X106872956Y-57168457D01*
X106860974Y-57188448D01*
X106847090Y-57207168D01*
X106831438Y-57224438D01*
X106814168Y-57240090D01*
X106795448Y-57253974D01*
X106775457Y-57265956D01*
X106754387Y-57275921D01*
X106732443Y-57283773D01*
X106709834Y-57289437D01*
X106686779Y-57292856D01*
X106663500Y-57294000D01*
X106188500Y-57294000D01*
X106165221Y-57292856D01*
X106142166Y-57289437D01*
X106119557Y-57283773D01*
X106097613Y-57275921D01*
X106076543Y-57265956D01*
X106056552Y-57253974D01*
X106037832Y-57240090D01*
X106020562Y-57224438D01*
X106004910Y-57207168D01*
X105991026Y-57188448D01*
X105979044Y-57168457D01*
X105969079Y-57147387D01*
X105961227Y-57125443D01*
X105955563Y-57102834D01*
X105952144Y-57079779D01*
X105951000Y-57056500D01*
X105951000Y-56481500D01*
X105952144Y-56458221D01*
X105955563Y-56435166D01*
X105961227Y-56412557D01*
X105969079Y-56390613D01*
X105979044Y-56369543D01*
X105991026Y-56349552D01*
X106004910Y-56330832D01*
X106020562Y-56313562D01*
X106037832Y-56297910D01*
X106056552Y-56284026D01*
X106076543Y-56272044D01*
X106097613Y-56262079D01*
X106119557Y-56254227D01*
X106142166Y-56248563D01*
X106165221Y-56245144D01*
X106188500Y-56244000D01*
X106663500Y-56244000D01*
X106686779Y-56245144D01*
G37*
G04 #@! TD.AperFunction*
G04 #@! TA.AperFunction,SMDPad,CuDef*
G36*
X106686779Y-57995144D02*
G01*
X106709834Y-57998563D01*
X106732443Y-58004227D01*
X106754387Y-58012079D01*
X106775457Y-58022044D01*
X106795448Y-58034026D01*
X106814168Y-58047910D01*
X106831438Y-58063562D01*
X106847090Y-58080832D01*
X106860974Y-58099552D01*
X106872956Y-58119543D01*
X106882921Y-58140613D01*
X106890773Y-58162557D01*
X106896437Y-58185166D01*
X106899856Y-58208221D01*
X106901000Y-58231500D01*
X106901000Y-58806500D01*
X106899856Y-58829779D01*
X106896437Y-58852834D01*
X106890773Y-58875443D01*
X106882921Y-58897387D01*
X106872956Y-58918457D01*
X106860974Y-58938448D01*
X106847090Y-58957168D01*
X106831438Y-58974438D01*
X106814168Y-58990090D01*
X106795448Y-59003974D01*
X106775457Y-59015956D01*
X106754387Y-59025921D01*
X106732443Y-59033773D01*
X106709834Y-59039437D01*
X106686779Y-59042856D01*
X106663500Y-59044000D01*
X106188500Y-59044000D01*
X106165221Y-59042856D01*
X106142166Y-59039437D01*
X106119557Y-59033773D01*
X106097613Y-59025921D01*
X106076543Y-59015956D01*
X106056552Y-59003974D01*
X106037832Y-58990090D01*
X106020562Y-58974438D01*
X106004910Y-58957168D01*
X105991026Y-58938448D01*
X105979044Y-58918457D01*
X105969079Y-58897387D01*
X105961227Y-58875443D01*
X105955563Y-58852834D01*
X105952144Y-58829779D01*
X105951000Y-58806500D01*
X105951000Y-58231500D01*
X105952144Y-58208221D01*
X105955563Y-58185166D01*
X105961227Y-58162557D01*
X105969079Y-58140613D01*
X105979044Y-58119543D01*
X105991026Y-58099552D01*
X106004910Y-58080832D01*
X106020562Y-58063562D01*
X106037832Y-58047910D01*
X106056552Y-58034026D01*
X106076543Y-58022044D01*
X106097613Y-58012079D01*
X106119557Y-58004227D01*
X106142166Y-57998563D01*
X106165221Y-57995144D01*
X106188500Y-57994000D01*
X106663500Y-57994000D01*
X106686779Y-57995144D01*
G37*
G04 #@! TD.AperFunction*
G04 #@! TA.AperFunction,SMDPad,CuDef*
G36*
X102799779Y-70552144D02*
G01*
X102822834Y-70555563D01*
X102845443Y-70561227D01*
X102867387Y-70569079D01*
X102888457Y-70579044D01*
X102908448Y-70591026D01*
X102927168Y-70604910D01*
X102944438Y-70620562D01*
X102960090Y-70637832D01*
X102973974Y-70656552D01*
X102985956Y-70676543D01*
X102995921Y-70697613D01*
X103003773Y-70719557D01*
X103009437Y-70742166D01*
X103012856Y-70765221D01*
X103014000Y-70788500D01*
X103014000Y-71263500D01*
X103012856Y-71286779D01*
X103009437Y-71309834D01*
X103003773Y-71332443D01*
X102995921Y-71354387D01*
X102985956Y-71375457D01*
X102973974Y-71395448D01*
X102960090Y-71414168D01*
X102944438Y-71431438D01*
X102927168Y-71447090D01*
X102908448Y-71460974D01*
X102888457Y-71472956D01*
X102867387Y-71482921D01*
X102845443Y-71490773D01*
X102822834Y-71496437D01*
X102799779Y-71499856D01*
X102776500Y-71501000D01*
X102201500Y-71501000D01*
X102178221Y-71499856D01*
X102155166Y-71496437D01*
X102132557Y-71490773D01*
X102110613Y-71482921D01*
X102089543Y-71472956D01*
X102069552Y-71460974D01*
X102050832Y-71447090D01*
X102033562Y-71431438D01*
X102017910Y-71414168D01*
X102004026Y-71395448D01*
X101992044Y-71375457D01*
X101982079Y-71354387D01*
X101974227Y-71332443D01*
X101968563Y-71309834D01*
X101965144Y-71286779D01*
X101964000Y-71263500D01*
X101964000Y-70788500D01*
X101965144Y-70765221D01*
X101968563Y-70742166D01*
X101974227Y-70719557D01*
X101982079Y-70697613D01*
X101992044Y-70676543D01*
X102004026Y-70656552D01*
X102017910Y-70637832D01*
X102033562Y-70620562D01*
X102050832Y-70604910D01*
X102069552Y-70591026D01*
X102089543Y-70579044D01*
X102110613Y-70569079D01*
X102132557Y-70561227D01*
X102155166Y-70555563D01*
X102178221Y-70552144D01*
X102201500Y-70551000D01*
X102776500Y-70551000D01*
X102799779Y-70552144D01*
G37*
G04 #@! TD.AperFunction*
G04 #@! TA.AperFunction,SMDPad,CuDef*
G36*
X104549779Y-70552144D02*
G01*
X104572834Y-70555563D01*
X104595443Y-70561227D01*
X104617387Y-70569079D01*
X104638457Y-70579044D01*
X104658448Y-70591026D01*
X104677168Y-70604910D01*
X104694438Y-70620562D01*
X104710090Y-70637832D01*
X104723974Y-70656552D01*
X104735956Y-70676543D01*
X104745921Y-70697613D01*
X104753773Y-70719557D01*
X104759437Y-70742166D01*
X104762856Y-70765221D01*
X104764000Y-70788500D01*
X104764000Y-71263500D01*
X104762856Y-71286779D01*
X104759437Y-71309834D01*
X104753773Y-71332443D01*
X104745921Y-71354387D01*
X104735956Y-71375457D01*
X104723974Y-71395448D01*
X104710090Y-71414168D01*
X104694438Y-71431438D01*
X104677168Y-71447090D01*
X104658448Y-71460974D01*
X104638457Y-71472956D01*
X104617387Y-71482921D01*
X104595443Y-71490773D01*
X104572834Y-71496437D01*
X104549779Y-71499856D01*
X104526500Y-71501000D01*
X103951500Y-71501000D01*
X103928221Y-71499856D01*
X103905166Y-71496437D01*
X103882557Y-71490773D01*
X103860613Y-71482921D01*
X103839543Y-71472956D01*
X103819552Y-71460974D01*
X103800832Y-71447090D01*
X103783562Y-71431438D01*
X103767910Y-71414168D01*
X103754026Y-71395448D01*
X103742044Y-71375457D01*
X103732079Y-71354387D01*
X103724227Y-71332443D01*
X103718563Y-71309834D01*
X103715144Y-71286779D01*
X103714000Y-71263500D01*
X103714000Y-70788500D01*
X103715144Y-70765221D01*
X103718563Y-70742166D01*
X103724227Y-70719557D01*
X103732079Y-70697613D01*
X103742044Y-70676543D01*
X103754026Y-70656552D01*
X103767910Y-70637832D01*
X103783562Y-70620562D01*
X103800832Y-70604910D01*
X103819552Y-70591026D01*
X103839543Y-70579044D01*
X103860613Y-70569079D01*
X103882557Y-70561227D01*
X103905166Y-70555563D01*
X103928221Y-70552144D01*
X103951500Y-70551000D01*
X104526500Y-70551000D01*
X104549779Y-70552144D01*
G37*
G04 #@! TD.AperFunction*
G04 #@! TA.AperFunction,SMDPad,CuDef*
G36*
X98580779Y-76488144D02*
G01*
X98603834Y-76491563D01*
X98626443Y-76497227D01*
X98648387Y-76505079D01*
X98669457Y-76515044D01*
X98689448Y-76527026D01*
X98708168Y-76540910D01*
X98725438Y-76556562D01*
X98741090Y-76573832D01*
X98754974Y-76592552D01*
X98766956Y-76612543D01*
X98776921Y-76633613D01*
X98784773Y-76655557D01*
X98790437Y-76678166D01*
X98793856Y-76701221D01*
X98795000Y-76724500D01*
X98795000Y-77199500D01*
X98793856Y-77222779D01*
X98790437Y-77245834D01*
X98784773Y-77268443D01*
X98776921Y-77290387D01*
X98766956Y-77311457D01*
X98754974Y-77331448D01*
X98741090Y-77350168D01*
X98725438Y-77367438D01*
X98708168Y-77383090D01*
X98689448Y-77396974D01*
X98669457Y-77408956D01*
X98648387Y-77418921D01*
X98626443Y-77426773D01*
X98603834Y-77432437D01*
X98580779Y-77435856D01*
X98557500Y-77437000D01*
X97982500Y-77437000D01*
X97959221Y-77435856D01*
X97936166Y-77432437D01*
X97913557Y-77426773D01*
X97891613Y-77418921D01*
X97870543Y-77408956D01*
X97850552Y-77396974D01*
X97831832Y-77383090D01*
X97814562Y-77367438D01*
X97798910Y-77350168D01*
X97785026Y-77331448D01*
X97773044Y-77311457D01*
X97763079Y-77290387D01*
X97755227Y-77268443D01*
X97749563Y-77245834D01*
X97746144Y-77222779D01*
X97745000Y-77199500D01*
X97745000Y-76724500D01*
X97746144Y-76701221D01*
X97749563Y-76678166D01*
X97755227Y-76655557D01*
X97763079Y-76633613D01*
X97773044Y-76612543D01*
X97785026Y-76592552D01*
X97798910Y-76573832D01*
X97814562Y-76556562D01*
X97831832Y-76540910D01*
X97850552Y-76527026D01*
X97870543Y-76515044D01*
X97891613Y-76505079D01*
X97913557Y-76497227D01*
X97936166Y-76491563D01*
X97959221Y-76488144D01*
X97982500Y-76487000D01*
X98557500Y-76487000D01*
X98580779Y-76488144D01*
G37*
G04 #@! TD.AperFunction*
G04 #@! TA.AperFunction,SMDPad,CuDef*
G36*
X96830779Y-76488144D02*
G01*
X96853834Y-76491563D01*
X96876443Y-76497227D01*
X96898387Y-76505079D01*
X96919457Y-76515044D01*
X96939448Y-76527026D01*
X96958168Y-76540910D01*
X96975438Y-76556562D01*
X96991090Y-76573832D01*
X97004974Y-76592552D01*
X97016956Y-76612543D01*
X97026921Y-76633613D01*
X97034773Y-76655557D01*
X97040437Y-76678166D01*
X97043856Y-76701221D01*
X97045000Y-76724500D01*
X97045000Y-77199500D01*
X97043856Y-77222779D01*
X97040437Y-77245834D01*
X97034773Y-77268443D01*
X97026921Y-77290387D01*
X97016956Y-77311457D01*
X97004974Y-77331448D01*
X96991090Y-77350168D01*
X96975438Y-77367438D01*
X96958168Y-77383090D01*
X96939448Y-77396974D01*
X96919457Y-77408956D01*
X96898387Y-77418921D01*
X96876443Y-77426773D01*
X96853834Y-77432437D01*
X96830779Y-77435856D01*
X96807500Y-77437000D01*
X96232500Y-77437000D01*
X96209221Y-77435856D01*
X96186166Y-77432437D01*
X96163557Y-77426773D01*
X96141613Y-77418921D01*
X96120543Y-77408956D01*
X96100552Y-77396974D01*
X96081832Y-77383090D01*
X96064562Y-77367438D01*
X96048910Y-77350168D01*
X96035026Y-77331448D01*
X96023044Y-77311457D01*
X96013079Y-77290387D01*
X96005227Y-77268443D01*
X95999563Y-77245834D01*
X95996144Y-77222779D01*
X95995000Y-77199500D01*
X95995000Y-76724500D01*
X95996144Y-76701221D01*
X95999563Y-76678166D01*
X96005227Y-76655557D01*
X96013079Y-76633613D01*
X96023044Y-76612543D01*
X96035026Y-76592552D01*
X96048910Y-76573832D01*
X96064562Y-76556562D01*
X96081832Y-76540910D01*
X96100552Y-76527026D01*
X96120543Y-76515044D01*
X96141613Y-76505079D01*
X96163557Y-76497227D01*
X96186166Y-76491563D01*
X96209221Y-76488144D01*
X96232500Y-76487000D01*
X96807500Y-76487000D01*
X96830779Y-76488144D01*
G37*
G04 #@! TD.AperFunction*
D13*
X113200000Y-62010000D03*
X113200000Y-57010000D03*
X89200000Y-67010000D03*
X89200000Y-72010000D03*
X89200000Y-77010000D03*
G04 #@! TA.AperFunction,SMDPad,CuDef*
D12*
G36*
X100951505Y-70327204D02*
G01*
X100975773Y-70330804D01*
X100999572Y-70336765D01*
X101022671Y-70345030D01*
X101044850Y-70355520D01*
X101065893Y-70368132D01*
X101085599Y-70382747D01*
X101103777Y-70399223D01*
X101120253Y-70417401D01*
X101134868Y-70437107D01*
X101147480Y-70458150D01*
X101157970Y-70480329D01*
X101166235Y-70503428D01*
X101172196Y-70527227D01*
X101175796Y-70551495D01*
X101177000Y-70575999D01*
X101177000Y-71476001D01*
X101175796Y-71500505D01*
X101172196Y-71524773D01*
X101166235Y-71548572D01*
X101157970Y-71571671D01*
X101147480Y-71593850D01*
X101134868Y-71614893D01*
X101120253Y-71634599D01*
X101103777Y-71652777D01*
X101085599Y-71669253D01*
X101065893Y-71683868D01*
X101044850Y-71696480D01*
X101022671Y-71706970D01*
X100999572Y-71715235D01*
X100975773Y-71721196D01*
X100951505Y-71724796D01*
X100927001Y-71726000D01*
X100276999Y-71726000D01*
X100252495Y-71724796D01*
X100228227Y-71721196D01*
X100204428Y-71715235D01*
X100181329Y-71706970D01*
X100159150Y-71696480D01*
X100138107Y-71683868D01*
X100118401Y-71669253D01*
X100100223Y-71652777D01*
X100083747Y-71634599D01*
X100069132Y-71614893D01*
X100056520Y-71593850D01*
X100046030Y-71571671D01*
X100037765Y-71548572D01*
X100031804Y-71524773D01*
X100028204Y-71500505D01*
X100027000Y-71476001D01*
X100027000Y-70575999D01*
X100028204Y-70551495D01*
X100031804Y-70527227D01*
X100037765Y-70503428D01*
X100046030Y-70480329D01*
X100056520Y-70458150D01*
X100069132Y-70437107D01*
X100083747Y-70417401D01*
X100100223Y-70399223D01*
X100118401Y-70382747D01*
X100138107Y-70368132D01*
X100159150Y-70355520D01*
X100181329Y-70345030D01*
X100204428Y-70336765D01*
X100228227Y-70330804D01*
X100252495Y-70327204D01*
X100276999Y-70326000D01*
X100927001Y-70326000D01*
X100951505Y-70327204D01*
G37*
G04 #@! TD.AperFunction*
G04 #@! TA.AperFunction,SMDPad,CuDef*
G36*
X98901505Y-70327204D02*
G01*
X98925773Y-70330804D01*
X98949572Y-70336765D01*
X98972671Y-70345030D01*
X98994850Y-70355520D01*
X99015893Y-70368132D01*
X99035599Y-70382747D01*
X99053777Y-70399223D01*
X99070253Y-70417401D01*
X99084868Y-70437107D01*
X99097480Y-70458150D01*
X99107970Y-70480329D01*
X99116235Y-70503428D01*
X99122196Y-70527227D01*
X99125796Y-70551495D01*
X99127000Y-70575999D01*
X99127000Y-71476001D01*
X99125796Y-71500505D01*
X99122196Y-71524773D01*
X99116235Y-71548572D01*
X99107970Y-71571671D01*
X99097480Y-71593850D01*
X99084868Y-71614893D01*
X99070253Y-71634599D01*
X99053777Y-71652777D01*
X99035599Y-71669253D01*
X99015893Y-71683868D01*
X98994850Y-71696480D01*
X98972671Y-71706970D01*
X98949572Y-71715235D01*
X98925773Y-71721196D01*
X98901505Y-71724796D01*
X98877001Y-71726000D01*
X98226999Y-71726000D01*
X98202495Y-71724796D01*
X98178227Y-71721196D01*
X98154428Y-71715235D01*
X98131329Y-71706970D01*
X98109150Y-71696480D01*
X98088107Y-71683868D01*
X98068401Y-71669253D01*
X98050223Y-71652777D01*
X98033747Y-71634599D01*
X98019132Y-71614893D01*
X98006520Y-71593850D01*
X97996030Y-71571671D01*
X97987765Y-71548572D01*
X97981804Y-71524773D01*
X97978204Y-71500505D01*
X97977000Y-71476001D01*
X97977000Y-70575999D01*
X97978204Y-70551495D01*
X97981804Y-70527227D01*
X97987765Y-70503428D01*
X97996030Y-70480329D01*
X98006520Y-70458150D01*
X98019132Y-70437107D01*
X98033747Y-70417401D01*
X98050223Y-70399223D01*
X98068401Y-70382747D01*
X98088107Y-70368132D01*
X98109150Y-70355520D01*
X98131329Y-70345030D01*
X98154428Y-70336765D01*
X98178227Y-70330804D01*
X98202495Y-70327204D01*
X98226999Y-70326000D01*
X98877001Y-70326000D01*
X98901505Y-70327204D01*
G37*
G04 #@! TD.AperFunction*
G04 #@! TA.AperFunction,SMDPad,CuDef*
G36*
X94982505Y-76263204D02*
G01*
X95006773Y-76266804D01*
X95030572Y-76272765D01*
X95053671Y-76281030D01*
X95075850Y-76291520D01*
X95096893Y-76304132D01*
X95116599Y-76318747D01*
X95134777Y-76335223D01*
X95151253Y-76353401D01*
X95165868Y-76373107D01*
X95178480Y-76394150D01*
X95188970Y-76416329D01*
X95197235Y-76439428D01*
X95203196Y-76463227D01*
X95206796Y-76487495D01*
X95208000Y-76511999D01*
X95208000Y-77412001D01*
X95206796Y-77436505D01*
X95203196Y-77460773D01*
X95197235Y-77484572D01*
X95188970Y-77507671D01*
X95178480Y-77529850D01*
X95165868Y-77550893D01*
X95151253Y-77570599D01*
X95134777Y-77588777D01*
X95116599Y-77605253D01*
X95096893Y-77619868D01*
X95075850Y-77632480D01*
X95053671Y-77642970D01*
X95030572Y-77651235D01*
X95006773Y-77657196D01*
X94982505Y-77660796D01*
X94958001Y-77662000D01*
X94307999Y-77662000D01*
X94283495Y-77660796D01*
X94259227Y-77657196D01*
X94235428Y-77651235D01*
X94212329Y-77642970D01*
X94190150Y-77632480D01*
X94169107Y-77619868D01*
X94149401Y-77605253D01*
X94131223Y-77588777D01*
X94114747Y-77570599D01*
X94100132Y-77550893D01*
X94087520Y-77529850D01*
X94077030Y-77507671D01*
X94068765Y-77484572D01*
X94062804Y-77460773D01*
X94059204Y-77436505D01*
X94058000Y-77412001D01*
X94058000Y-76511999D01*
X94059204Y-76487495D01*
X94062804Y-76463227D01*
X94068765Y-76439428D01*
X94077030Y-76416329D01*
X94087520Y-76394150D01*
X94100132Y-76373107D01*
X94114747Y-76353401D01*
X94131223Y-76335223D01*
X94149401Y-76318747D01*
X94169107Y-76304132D01*
X94190150Y-76291520D01*
X94212329Y-76281030D01*
X94235428Y-76272765D01*
X94259227Y-76266804D01*
X94283495Y-76263204D01*
X94307999Y-76262000D01*
X94958001Y-76262000D01*
X94982505Y-76263204D01*
G37*
G04 #@! TD.AperFunction*
G04 #@! TA.AperFunction,SMDPad,CuDef*
G36*
X92932505Y-76263204D02*
G01*
X92956773Y-76266804D01*
X92980572Y-76272765D01*
X93003671Y-76281030D01*
X93025850Y-76291520D01*
X93046893Y-76304132D01*
X93066599Y-76318747D01*
X93084777Y-76335223D01*
X93101253Y-76353401D01*
X93115868Y-76373107D01*
X93128480Y-76394150D01*
X93138970Y-76416329D01*
X93147235Y-76439428D01*
X93153196Y-76463227D01*
X93156796Y-76487495D01*
X93158000Y-76511999D01*
X93158000Y-77412001D01*
X93156796Y-77436505D01*
X93153196Y-77460773D01*
X93147235Y-77484572D01*
X93138970Y-77507671D01*
X93128480Y-77529850D01*
X93115868Y-77550893D01*
X93101253Y-77570599D01*
X93084777Y-77588777D01*
X93066599Y-77605253D01*
X93046893Y-77619868D01*
X93025850Y-77632480D01*
X93003671Y-77642970D01*
X92980572Y-77651235D01*
X92956773Y-77657196D01*
X92932505Y-77660796D01*
X92908001Y-77662000D01*
X92257999Y-77662000D01*
X92233495Y-77660796D01*
X92209227Y-77657196D01*
X92185428Y-77651235D01*
X92162329Y-77642970D01*
X92140150Y-77632480D01*
X92119107Y-77619868D01*
X92099401Y-77605253D01*
X92081223Y-77588777D01*
X92064747Y-77570599D01*
X92050132Y-77550893D01*
X92037520Y-77529850D01*
X92027030Y-77507671D01*
X92018765Y-77484572D01*
X92012804Y-77460773D01*
X92009204Y-77436505D01*
X92008000Y-77412001D01*
X92008000Y-76511999D01*
X92009204Y-76487495D01*
X92012804Y-76463227D01*
X92018765Y-76439428D01*
X92027030Y-76416329D01*
X92037520Y-76394150D01*
X92050132Y-76373107D01*
X92064747Y-76353401D01*
X92081223Y-76335223D01*
X92099401Y-76318747D01*
X92119107Y-76304132D01*
X92140150Y-76291520D01*
X92162329Y-76281030D01*
X92185428Y-76272765D01*
X92209227Y-76266804D01*
X92233495Y-76263204D01*
X92257999Y-76262000D01*
X92908001Y-76262000D01*
X92932505Y-76263204D01*
G37*
G04 #@! TD.AperFunction*
D14*
X97790000Y-66929000D03*
X97790000Y-67691000D03*
X96266000Y-66929000D03*
X96266000Y-67691000D03*
X97028000Y-67691000D03*
X97028000Y-66929000D03*
X95504000Y-66929000D03*
X95504000Y-67691000D03*
D15*
X81915000Y-73596500D03*
D14*
X98552000Y-67691000D03*
X98552000Y-66929000D03*
X101600000Y-58420000D03*
X104140000Y-58420000D03*
X104140000Y-55880000D03*
X101600000Y-55880000D03*
X89916000Y-62357000D03*
X92456000Y-63500000D03*
X92456000Y-62357000D03*
X94996000Y-62357000D03*
X94996000Y-63500000D03*
X89916000Y-63500000D03*
X109220000Y-55880000D03*
X99060000Y-55880000D03*
X101600000Y-60960000D03*
X109220000Y-58420000D03*
X104140000Y-63500000D03*
X91440000Y-58420000D03*
X106680000Y-68580000D03*
X106680000Y-66040000D03*
X93980000Y-58420000D03*
X99060000Y-58547000D03*
X109220000Y-66040000D03*
X109220000Y-68580000D03*
X111760000Y-68580000D03*
X114300000Y-68580000D03*
X109220000Y-71120000D03*
X109220000Y-73660000D03*
X109220000Y-76200000D03*
X109220000Y-78740000D03*
X106680000Y-78740000D03*
X106680000Y-76200000D03*
X104140000Y-76200000D03*
X104140000Y-78740000D03*
X101600000Y-78740000D03*
X101600000Y-76200000D03*
X104140000Y-73660000D03*
X86106000Y-58928000D03*
X85090000Y-58928000D03*
X87122000Y-58928000D03*
X88138000Y-58928000D03*
X83566000Y-58928000D03*
X81788000Y-58928000D03*
X80010000Y-58928000D03*
X81788000Y-60198000D03*
X80010000Y-60198000D03*
X80010000Y-61468000D03*
X106680000Y-67310000D03*
X109220000Y-67310000D03*
X105410000Y-68580000D03*
X105410000Y-67310000D03*
X105410000Y-66040000D03*
X105410000Y-64770000D03*
X106680000Y-64770000D03*
X104140000Y-74930000D03*
X109220000Y-74930000D03*
X106680000Y-74930000D03*
X111760000Y-74676000D03*
X114300000Y-74676000D03*
X111760000Y-69850000D03*
X114300000Y-69850000D03*
X109220000Y-69850000D03*
X106680000Y-69850000D03*
X105410000Y-69850000D03*
X80010000Y-65024000D03*
X80010000Y-66294000D03*
X86868000Y-78232000D03*
X93472000Y-74930000D03*
X91948000Y-74930000D03*
X103378000Y-69850000D03*
X102870000Y-63500000D03*
X105410000Y-63500000D03*
X102870000Y-62484000D03*
X104140000Y-62484000D03*
X105410000Y-62484000D03*
X111760000Y-76200000D03*
X111760000Y-78740000D03*
X114300000Y-76200000D03*
X114300000Y-78740000D03*
X88900000Y-56896000D03*
X91440000Y-56896000D03*
X93980000Y-56896000D03*
X101600000Y-77470000D03*
X109220000Y-72390000D03*
X95250000Y-75438000D03*
X96520000Y-75438000D03*
X97790000Y-75438000D03*
X95250000Y-78486000D03*
X96520000Y-78486000D03*
X97790000Y-78486000D03*
X81280000Y-78232000D03*
X80010000Y-78232000D03*
X104140000Y-72390000D03*
X102616000Y-72390000D03*
X102616000Y-73660000D03*
X102616000Y-74930000D03*
D16*
X97028000Y-70993000D03*
D17*
X96520000Y-63373000D03*
D15*
X94107000Y-68326000D03*
D14*
X82994500Y-69659500D03*
X82994500Y-70421500D03*
X82232500Y-70421500D03*
X82232500Y-69659500D03*
X81470500Y-69659500D03*
X81470500Y-70421500D03*
X80708500Y-70421500D03*
X80708500Y-69659500D03*
D18*
X106426000Y-60642500D02*
X106362500Y-60706000D01*
X106426000Y-58519000D02*
X106426000Y-60642500D01*
X106362500Y-60706000D02*
X103822500Y-60706000D01*
X94107000Y-65786000D02*
X96520000Y-63373000D01*
X94107000Y-68326000D02*
X94107000Y-65786000D01*
D19*
X93183000Y-70993000D02*
X89200000Y-67010000D01*
X97028000Y-70993000D02*
X93183000Y-70993000D01*
D20*
X98519000Y-70993000D02*
X98552000Y-71026000D01*
X97028000Y-70993000D02*
X98519000Y-70993000D01*
X89248000Y-76962000D02*
X89200000Y-77010000D01*
X92583000Y-76962000D02*
X89248000Y-76962000D01*
X100602000Y-71026000D02*
X102489000Y-71026000D01*
X94633000Y-76962000D02*
X96520000Y-76962000D01*
G36*
X114284726Y-54500292D02*
G01*
X114494157Y-54550572D01*
X114693152Y-54632999D01*
X114876797Y-54745537D01*
X115040579Y-54885421D01*
X115180463Y-55049203D01*
X115293001Y-55232848D01*
X115375428Y-55431843D01*
X115425708Y-55641274D01*
X115443000Y-55860996D01*
X115443000Y-78124004D01*
X115425708Y-78343726D01*
X115375428Y-78553157D01*
X115293001Y-78752152D01*
X115180463Y-78935797D01*
X115040579Y-79099579D01*
X114876797Y-79239463D01*
X114693152Y-79352001D01*
X114494157Y-79434428D01*
X114284726Y-79484708D01*
X114065004Y-79502000D01*
X81006996Y-79502000D01*
X80787274Y-79484708D01*
X80577843Y-79434428D01*
X80378848Y-79352001D01*
X80195203Y-79239463D01*
X80031421Y-79099579D01*
X79891537Y-78935797D01*
X79778999Y-78752152D01*
X79696572Y-78553157D01*
X79646292Y-78343726D01*
X79629000Y-78124004D01*
X79629000Y-76805427D01*
X87122940Y-76805427D01*
X87122940Y-77214573D01*
X87202760Y-77615856D01*
X87359333Y-77993857D01*
X87586642Y-78334049D01*
X87875951Y-78623358D01*
X88216143Y-78850667D01*
X88594144Y-79007240D01*
X88995427Y-79087060D01*
X89404573Y-79087060D01*
X89805856Y-79007240D01*
X90183857Y-78850667D01*
X90524049Y-78623358D01*
X90813358Y-78334049D01*
X91040667Y-77993857D01*
X91197240Y-77615856D01*
X91236994Y-77416000D01*
X91679812Y-77416000D01*
X91690535Y-77524877D01*
X91723460Y-77633414D01*
X91776926Y-77733443D01*
X91848880Y-77821120D01*
X91936557Y-77893074D01*
X92036586Y-77946540D01*
X92145123Y-77979465D01*
X92257999Y-77990582D01*
X92908001Y-77990582D01*
X93020877Y-77979465D01*
X93129414Y-77946540D01*
X93229443Y-77893074D01*
X93317120Y-77821120D01*
X93389074Y-77733443D01*
X93442540Y-77633414D01*
X93475465Y-77524877D01*
X93486582Y-77412001D01*
X93486582Y-76511999D01*
X93729418Y-76511999D01*
X93729418Y-77412001D01*
X93740535Y-77524877D01*
X93773460Y-77633414D01*
X93826926Y-77733443D01*
X93898880Y-77821120D01*
X93986557Y-77893074D01*
X94086586Y-77946540D01*
X94195123Y-77979465D01*
X94307999Y-77990582D01*
X94958001Y-77990582D01*
X95070877Y-77979465D01*
X95179414Y-77946540D01*
X95279443Y-77893074D01*
X95367120Y-77821120D01*
X95439074Y-77733443D01*
X95492540Y-77633414D01*
X95525465Y-77524877D01*
X95536188Y-77416000D01*
X95709469Y-77416000D01*
X95709508Y-77416130D01*
X95761820Y-77513998D01*
X95832220Y-77599780D01*
X95918002Y-77670180D01*
X96015870Y-77722492D01*
X96122063Y-77754705D01*
X96232500Y-77765582D01*
X96807500Y-77765582D01*
X96917937Y-77754705D01*
X97024130Y-77722492D01*
X97121998Y-77670180D01*
X97207780Y-77599780D01*
X97278180Y-77513998D01*
X97330492Y-77416130D01*
X97362705Y-77309937D01*
X97363114Y-77305787D01*
X97362157Y-77437000D01*
X97369513Y-77511689D01*
X97391299Y-77583508D01*
X97426678Y-77649696D01*
X97474289Y-77707711D01*
X97532304Y-77755322D01*
X97598492Y-77790701D01*
X97670311Y-77812487D01*
X97745000Y-77819843D01*
X98047750Y-77818000D01*
X98143000Y-77722750D01*
X98143000Y-77089000D01*
X98397000Y-77089000D01*
X98397000Y-77722750D01*
X98492250Y-77818000D01*
X98795000Y-77819843D01*
X98869689Y-77812487D01*
X98941508Y-77790701D01*
X99007696Y-77755322D01*
X99065711Y-77707711D01*
X99113322Y-77649696D01*
X99148701Y-77583508D01*
X99170487Y-77511689D01*
X99177843Y-77437000D01*
X99176000Y-77184250D01*
X99080750Y-77089000D01*
X98397000Y-77089000D01*
X98143000Y-77089000D01*
X98123000Y-77089000D01*
X98123000Y-76835000D01*
X98143000Y-76835000D01*
X98143000Y-76201250D01*
X98397000Y-76201250D01*
X98397000Y-76835000D01*
X99080750Y-76835000D01*
X99176000Y-76739750D01*
X99177843Y-76487000D01*
X99170487Y-76412311D01*
X99148701Y-76340492D01*
X99113322Y-76274304D01*
X99065711Y-76216289D01*
X99007696Y-76168678D01*
X98941508Y-76133299D01*
X98869689Y-76111513D01*
X98795000Y-76104157D01*
X98492250Y-76106000D01*
X98397000Y-76201250D01*
X98143000Y-76201250D01*
X98047750Y-76106000D01*
X97745000Y-76104157D01*
X97670311Y-76111513D01*
X97598492Y-76133299D01*
X97532304Y-76168678D01*
X97474289Y-76216289D01*
X97426678Y-76274304D01*
X97391299Y-76340492D01*
X97369513Y-76412311D01*
X97362157Y-76487000D01*
X97363114Y-76618213D01*
X97362705Y-76614063D01*
X97330492Y-76507870D01*
X97278180Y-76410002D01*
X97207780Y-76324220D01*
X97121998Y-76253820D01*
X97024130Y-76201508D01*
X96917937Y-76169295D01*
X96807500Y-76158418D01*
X96232500Y-76158418D01*
X96122063Y-76169295D01*
X96015870Y-76201508D01*
X95918002Y-76253820D01*
X95832220Y-76324220D01*
X95761820Y-76410002D01*
X95709508Y-76507870D01*
X95709469Y-76508000D01*
X95536188Y-76508000D01*
X95525465Y-76399123D01*
X95492540Y-76290586D01*
X95439074Y-76190557D01*
X95367120Y-76102880D01*
X95279443Y-76030926D01*
X95179414Y-75977460D01*
X95070877Y-75944535D01*
X94958001Y-75933418D01*
X94307999Y-75933418D01*
X94195123Y-75944535D01*
X94086586Y-75977460D01*
X93986557Y-76030926D01*
X93898880Y-76102880D01*
X93826926Y-76190557D01*
X93773460Y-76290586D01*
X93740535Y-76399123D01*
X93729418Y-76511999D01*
X93486582Y-76511999D01*
X93475465Y-76399123D01*
X93442540Y-76290586D01*
X93389074Y-76190557D01*
X93317120Y-76102880D01*
X93229443Y-76030926D01*
X93129414Y-75977460D01*
X93020877Y-75944535D01*
X92908001Y-75933418D01*
X92257999Y-75933418D01*
X92145123Y-75944535D01*
X92036586Y-75977460D01*
X91936557Y-76030926D01*
X91848880Y-76102880D01*
X91776926Y-76190557D01*
X91723460Y-76290586D01*
X91690535Y-76399123D01*
X91679812Y-76508000D01*
X91217898Y-76508000D01*
X91197240Y-76404144D01*
X91040667Y-76026143D01*
X90813358Y-75685951D01*
X90524049Y-75396642D01*
X90183857Y-75169333D01*
X89805856Y-75012760D01*
X89404573Y-74932940D01*
X88995427Y-74932940D01*
X88594144Y-75012760D01*
X88216143Y-75169333D01*
X87875951Y-75396642D01*
X87586642Y-75685951D01*
X87359333Y-76026143D01*
X87202760Y-76404144D01*
X87122940Y-76805427D01*
X79629000Y-76805427D01*
X79629000Y-73543839D01*
X87845766Y-73543839D01*
X88046294Y-73814005D01*
X88420407Y-74004418D01*
X88824478Y-74118187D01*
X89242980Y-74150939D01*
X89659831Y-74101416D01*
X90059010Y-73971521D01*
X90353706Y-73814005D01*
X90554234Y-73543839D01*
X89200000Y-72189605D01*
X87845766Y-73543839D01*
X79629000Y-73543839D01*
X79629000Y-72287640D01*
X79645504Y-72296462D01*
X79680859Y-72311107D01*
X79742205Y-72329717D01*
X79806000Y-72336000D01*
X83897000Y-72336000D01*
X83960798Y-72329716D01*
X84022141Y-72311107D01*
X84057496Y-72296462D01*
X84114023Y-72266248D01*
X84163576Y-72225582D01*
X84204243Y-72176030D01*
X84234462Y-72119496D01*
X84249107Y-72084141D01*
X84258560Y-72052980D01*
X87059061Y-72052980D01*
X87108584Y-72469831D01*
X87238479Y-72869010D01*
X87395995Y-73163706D01*
X87666161Y-73364234D01*
X89020395Y-72010000D01*
X89379605Y-72010000D01*
X90733839Y-73364234D01*
X91004005Y-73163706D01*
X91194418Y-72789593D01*
X91308187Y-72385522D01*
X91340939Y-71967020D01*
X91291416Y-71550169D01*
X91161521Y-71150990D01*
X91004005Y-70856294D01*
X90733839Y-70655766D01*
X89379605Y-72010000D01*
X89020395Y-72010000D01*
X87666161Y-70655766D01*
X87395995Y-70856294D01*
X87205582Y-71230407D01*
X87091813Y-71634478D01*
X87059061Y-72052980D01*
X84258560Y-72052980D01*
X84267717Y-72022795D01*
X84274000Y-71959000D01*
X84274000Y-70476161D01*
X87845766Y-70476161D01*
X89200000Y-71830395D01*
X90554234Y-70476161D01*
X90353706Y-70205995D01*
X89979593Y-70015582D01*
X89575522Y-69901813D01*
X89157020Y-69869061D01*
X88740169Y-69918584D01*
X88340990Y-70048479D01*
X88046294Y-70205995D01*
X87845766Y-70476161D01*
X84274000Y-70476161D01*
X84274000Y-68249000D01*
X84267716Y-68185202D01*
X84249107Y-68123859D01*
X84234462Y-68088504D01*
X84204248Y-68031977D01*
X84163582Y-67982424D01*
X84114030Y-67941757D01*
X84057496Y-67911538D01*
X84022141Y-67896893D01*
X83960795Y-67878283D01*
X83897000Y-67872000D01*
X79806000Y-67872000D01*
X79742202Y-67878284D01*
X79680859Y-67896893D01*
X79645504Y-67911538D01*
X79629000Y-67920359D01*
X79629000Y-66805427D01*
X87122940Y-66805427D01*
X87122940Y-67214573D01*
X87202760Y-67615856D01*
X87359333Y-67993857D01*
X87586642Y-68334049D01*
X87875951Y-68623358D01*
X88216143Y-68850667D01*
X88594144Y-69007240D01*
X88995427Y-69087060D01*
X89404573Y-69087060D01*
X89805856Y-69007240D01*
X89954714Y-68945581D01*
X92563563Y-71554432D01*
X92589709Y-71586291D01*
X92716854Y-71690636D01*
X92861913Y-71768172D01*
X93019311Y-71815918D01*
X93141981Y-71828000D01*
X93141982Y-71828000D01*
X93183000Y-71832040D01*
X93224018Y-71828000D01*
X97069019Y-71828000D01*
X97191689Y-71815918D01*
X97349087Y-71768172D01*
X97494146Y-71690636D01*
X97621291Y-71586291D01*
X97655210Y-71544961D01*
X97659535Y-71588877D01*
X97692460Y-71697414D01*
X97745926Y-71797443D01*
X97817880Y-71885120D01*
X97905557Y-71957074D01*
X98005586Y-72010540D01*
X98114123Y-72043465D01*
X98226999Y-72054582D01*
X98877001Y-72054582D01*
X98989877Y-72043465D01*
X99098414Y-72010540D01*
X99198443Y-71957074D01*
X99286120Y-71885120D01*
X99358074Y-71797443D01*
X99411540Y-71697414D01*
X99444465Y-71588877D01*
X99455582Y-71476001D01*
X99455582Y-70575999D01*
X99698418Y-70575999D01*
X99698418Y-71476001D01*
X99709535Y-71588877D01*
X99742460Y-71697414D01*
X99795926Y-71797443D01*
X99867880Y-71885120D01*
X99955557Y-71957074D01*
X100055586Y-72010540D01*
X100164123Y-72043465D01*
X100276999Y-72054582D01*
X100927001Y-72054582D01*
X101039877Y-72043465D01*
X101148414Y-72010540D01*
X101248443Y-71957074D01*
X101336120Y-71885120D01*
X101408074Y-71797443D01*
X101461540Y-71697414D01*
X101494465Y-71588877D01*
X101505188Y-71480000D01*
X101678469Y-71480000D01*
X101678508Y-71480130D01*
X101730820Y-71577998D01*
X101801220Y-71663780D01*
X101887002Y-71734180D01*
X101984870Y-71786492D01*
X102091063Y-71818705D01*
X102201500Y-71829582D01*
X102776500Y-71829582D01*
X102886937Y-71818705D01*
X102993130Y-71786492D01*
X103090998Y-71734180D01*
X103176780Y-71663780D01*
X103247180Y-71577998D01*
X103299492Y-71480130D01*
X103331705Y-71373937D01*
X103332114Y-71369787D01*
X103331157Y-71501000D01*
X103338513Y-71575689D01*
X103360299Y-71647508D01*
X103395678Y-71713696D01*
X103443289Y-71771711D01*
X103501304Y-71819322D01*
X103567492Y-71854701D01*
X103639311Y-71876487D01*
X103714000Y-71883843D01*
X104016750Y-71882000D01*
X104112000Y-71786750D01*
X104112000Y-71153000D01*
X104366000Y-71153000D01*
X104366000Y-71786750D01*
X104461250Y-71882000D01*
X104764000Y-71883843D01*
X104838689Y-71876487D01*
X104910508Y-71854701D01*
X104976696Y-71819322D01*
X105034711Y-71771711D01*
X105082322Y-71713696D01*
X105117701Y-71647508D01*
X105139487Y-71575689D01*
X105146843Y-71501000D01*
X105145000Y-71248250D01*
X105049750Y-71153000D01*
X104366000Y-71153000D01*
X104112000Y-71153000D01*
X104092000Y-71153000D01*
X104092000Y-70899000D01*
X104112000Y-70899000D01*
X104112000Y-70265250D01*
X104366000Y-70265250D01*
X104366000Y-70899000D01*
X105049750Y-70899000D01*
X105145000Y-70803750D01*
X105146843Y-70551000D01*
X105139487Y-70476311D01*
X105117701Y-70404492D01*
X105082322Y-70338304D01*
X105034711Y-70280289D01*
X104976696Y-70232678D01*
X104910508Y-70197299D01*
X104838689Y-70175513D01*
X104764000Y-70168157D01*
X104461250Y-70170000D01*
X104366000Y-70265250D01*
X104112000Y-70265250D01*
X104016750Y-70170000D01*
X103714000Y-70168157D01*
X103639311Y-70175513D01*
X103567492Y-70197299D01*
X103501304Y-70232678D01*
X103443289Y-70280289D01*
X103395678Y-70338304D01*
X103360299Y-70404492D01*
X103338513Y-70476311D01*
X103331157Y-70551000D01*
X103332114Y-70682213D01*
X103331705Y-70678063D01*
X103299492Y-70571870D01*
X103247180Y-70474002D01*
X103176780Y-70388220D01*
X103090998Y-70317820D01*
X102993130Y-70265508D01*
X102886937Y-70233295D01*
X102776500Y-70222418D01*
X102201500Y-70222418D01*
X102091063Y-70233295D01*
X101984870Y-70265508D01*
X101887002Y-70317820D01*
X101801220Y-70388220D01*
X101730820Y-70474002D01*
X101678508Y-70571870D01*
X101678469Y-70572000D01*
X101505188Y-70572000D01*
X101494465Y-70463123D01*
X101461540Y-70354586D01*
X101408074Y-70254557D01*
X101336120Y-70166880D01*
X101248443Y-70094926D01*
X101148414Y-70041460D01*
X101039877Y-70008535D01*
X100927001Y-69997418D01*
X100276999Y-69997418D01*
X100164123Y-70008535D01*
X100055586Y-70041460D01*
X99955557Y-70094926D01*
X99867880Y-70166880D01*
X99795926Y-70254557D01*
X99742460Y-70354586D01*
X99709535Y-70463123D01*
X99698418Y-70575999D01*
X99455582Y-70575999D01*
X99444465Y-70463123D01*
X99411540Y-70354586D01*
X99358074Y-70254557D01*
X99286120Y-70166880D01*
X99198443Y-70094926D01*
X99098414Y-70041460D01*
X98989877Y-70008535D01*
X98877001Y-69997418D01*
X98226999Y-69997418D01*
X98114123Y-70008535D01*
X98005586Y-70041460D01*
X97905557Y-70094926D01*
X97817880Y-70166880D01*
X97745926Y-70254557D01*
X97692460Y-70354586D01*
X97663259Y-70450847D01*
X97621291Y-70399709D01*
X97494146Y-70295364D01*
X97349087Y-70217828D01*
X97191689Y-70170082D01*
X97069019Y-70158000D01*
X93528869Y-70158000D01*
X91625265Y-68254397D01*
X93380000Y-68254397D01*
X93380000Y-68397603D01*
X93407938Y-68538058D01*
X93462741Y-68670364D01*
X93542302Y-68789436D01*
X93643564Y-68890698D01*
X93762636Y-68970259D01*
X93894942Y-69025062D01*
X94035397Y-69053000D01*
X94178603Y-69053000D01*
X94319058Y-69025062D01*
X94451364Y-68970259D01*
X94570436Y-68890698D01*
X94671698Y-68789436D01*
X94751259Y-68670364D01*
X94806062Y-68538058D01*
X94834000Y-68397603D01*
X94834000Y-68254397D01*
X94806062Y-68113942D01*
X94751259Y-67981636D01*
X94688000Y-67886962D01*
X94688000Y-66026657D01*
X96514658Y-64200000D01*
X96601452Y-64200000D01*
X96761227Y-64168218D01*
X96911731Y-64105877D01*
X97047181Y-64015372D01*
X97162372Y-63900181D01*
X97252877Y-63764731D01*
X97315218Y-63614227D01*
X97347000Y-63454452D01*
X97347000Y-63291548D01*
X97315218Y-63131773D01*
X97252877Y-62981269D01*
X97162372Y-62845819D01*
X97047181Y-62730628D01*
X96911731Y-62640123D01*
X96761227Y-62577782D01*
X96601452Y-62546000D01*
X96438548Y-62546000D01*
X96278773Y-62577782D01*
X96128269Y-62640123D01*
X95992819Y-62730628D01*
X95877628Y-62845819D01*
X95787123Y-62981269D01*
X95724782Y-63131773D01*
X95693000Y-63291548D01*
X95693000Y-63378342D01*
X93716356Y-65354987D01*
X93694184Y-65373183D01*
X93675991Y-65395352D01*
X93621579Y-65461653D01*
X93567629Y-65562586D01*
X93534407Y-65672105D01*
X93523189Y-65786000D01*
X93526001Y-65814550D01*
X93526000Y-67886962D01*
X93462741Y-67981636D01*
X93407938Y-68113942D01*
X93380000Y-68254397D01*
X91625265Y-68254397D01*
X91135581Y-67764714D01*
X91197240Y-67615856D01*
X91277060Y-67214573D01*
X91277060Y-66805427D01*
X91197240Y-66404144D01*
X91040667Y-66026143D01*
X90813358Y-65685951D01*
X90524049Y-65396642D01*
X90183857Y-65169333D01*
X89805856Y-65012760D01*
X89404573Y-64932940D01*
X88995427Y-64932940D01*
X88594144Y-65012760D01*
X88216143Y-65169333D01*
X87875951Y-65396642D01*
X87586642Y-65685951D01*
X87359333Y-66026143D01*
X87202760Y-66404144D01*
X87122940Y-66805427D01*
X79629000Y-66805427D01*
X79629000Y-60575302D01*
X89795500Y-60575302D01*
X89795500Y-60836698D01*
X89846496Y-61093072D01*
X89946528Y-61334570D01*
X90091752Y-61551913D01*
X90276587Y-61736748D01*
X90493930Y-61881972D01*
X90735428Y-61982004D01*
X90991802Y-62033000D01*
X91253198Y-62033000D01*
X91509572Y-61982004D01*
X91751070Y-61881972D01*
X91968413Y-61736748D01*
X91999894Y-61705267D01*
X92842838Y-61705267D01*
X92953010Y-61898596D01*
X93199306Y-62014095D01*
X93463403Y-62079324D01*
X93735151Y-62091778D01*
X94004107Y-62050977D01*
X94259935Y-61958490D01*
X94371990Y-61898596D01*
X94482162Y-61705267D01*
X93662500Y-60885605D01*
X92842838Y-61705267D01*
X91999894Y-61705267D01*
X92153248Y-61551913D01*
X92298472Y-61334570D01*
X92364040Y-61176276D01*
X92410010Y-61303435D01*
X92469904Y-61415490D01*
X92663233Y-61525662D01*
X93482895Y-60706000D01*
X93842105Y-60706000D01*
X94661767Y-61525662D01*
X94855096Y-61415490D01*
X94963921Y-61183425D01*
X95026528Y-61334570D01*
X95171752Y-61551913D01*
X95356587Y-61736748D01*
X95573930Y-61881972D01*
X95815428Y-61982004D01*
X96071802Y-62033000D01*
X96333198Y-62033000D01*
X96589572Y-61982004D01*
X96831070Y-61881972D01*
X97048413Y-61736748D01*
X97233248Y-61551913D01*
X97378472Y-61334570D01*
X97472500Y-61107567D01*
X97566528Y-61334570D01*
X97711752Y-61551913D01*
X97896587Y-61736748D01*
X98113930Y-61881972D01*
X98355428Y-61982004D01*
X98611802Y-62033000D01*
X98873198Y-62033000D01*
X99129572Y-61982004D01*
X99371070Y-61881972D01*
X99588413Y-61736748D01*
X99773248Y-61551913D01*
X99918472Y-61334570D01*
X100018504Y-61093072D01*
X100069500Y-60836698D01*
X100069500Y-60575302D01*
X102495500Y-60575302D01*
X102495500Y-60836698D01*
X102546496Y-61093072D01*
X102646528Y-61334570D01*
X102791752Y-61551913D01*
X102976587Y-61736748D01*
X103193930Y-61881972D01*
X103435428Y-61982004D01*
X103691802Y-62033000D01*
X103953198Y-62033000D01*
X104209572Y-61982004D01*
X104451070Y-61881972D01*
X104668413Y-61736748D01*
X104853248Y-61551913D01*
X104998472Y-61334570D01*
X105018176Y-61287000D01*
X105166824Y-61287000D01*
X105186528Y-61334570D01*
X105331752Y-61551913D01*
X105516587Y-61736748D01*
X105733930Y-61881972D01*
X105975428Y-61982004D01*
X106231802Y-62033000D01*
X106493198Y-62033000D01*
X106749572Y-61982004D01*
X106991070Y-61881972D01*
X107208413Y-61736748D01*
X107393248Y-61551913D01*
X107520473Y-61361507D01*
X107519657Y-61706000D01*
X107527013Y-61780689D01*
X107548799Y-61852508D01*
X107584178Y-61918696D01*
X107631789Y-61976711D01*
X107689804Y-62024322D01*
X107755992Y-62059701D01*
X107827811Y-62081487D01*
X107902500Y-62088843D01*
X108680250Y-62087000D01*
X108775500Y-61991750D01*
X108775500Y-60833000D01*
X109029500Y-60833000D01*
X109029500Y-61991750D01*
X109124750Y-62087000D01*
X109902500Y-62088843D01*
X109977189Y-62081487D01*
X110049008Y-62059701D01*
X110115196Y-62024322D01*
X110173211Y-61976711D01*
X110220822Y-61918696D01*
X110256201Y-61852508D01*
X110270482Y-61805427D01*
X111122940Y-61805427D01*
X111122940Y-62214573D01*
X111202760Y-62615856D01*
X111359333Y-62993857D01*
X111586642Y-63334049D01*
X111875951Y-63623358D01*
X112216143Y-63850667D01*
X112594144Y-64007240D01*
X112995427Y-64087060D01*
X113404573Y-64087060D01*
X113805856Y-64007240D01*
X114183857Y-63850667D01*
X114524049Y-63623358D01*
X114813358Y-63334049D01*
X115040667Y-62993857D01*
X115197240Y-62615856D01*
X115277060Y-62214573D01*
X115277060Y-61805427D01*
X115197240Y-61404144D01*
X115040667Y-61026143D01*
X114813358Y-60685951D01*
X114524049Y-60396642D01*
X114183857Y-60169333D01*
X113805856Y-60012760D01*
X113404573Y-59932940D01*
X112995427Y-59932940D01*
X112594144Y-60012760D01*
X112216143Y-60169333D01*
X111875951Y-60396642D01*
X111586642Y-60685951D01*
X111359333Y-61026143D01*
X111202760Y-61404144D01*
X111122940Y-61805427D01*
X110270482Y-61805427D01*
X110277987Y-61780689D01*
X110285343Y-61706000D01*
X110283500Y-60928250D01*
X110188250Y-60833000D01*
X109029500Y-60833000D01*
X108775500Y-60833000D01*
X108755500Y-60833000D01*
X108755500Y-60579000D01*
X108775500Y-60579000D01*
X108775500Y-59420250D01*
X109029500Y-59420250D01*
X109029500Y-60579000D01*
X110188250Y-60579000D01*
X110283500Y-60483750D01*
X110285343Y-59706000D01*
X110277987Y-59631311D01*
X110256201Y-59559492D01*
X110220822Y-59493304D01*
X110173211Y-59435289D01*
X110115196Y-59387678D01*
X110049008Y-59352299D01*
X109977189Y-59330513D01*
X109902500Y-59323157D01*
X109124750Y-59325000D01*
X109029500Y-59420250D01*
X108775500Y-59420250D01*
X108680250Y-59325000D01*
X107902500Y-59323157D01*
X107827811Y-59330513D01*
X107755992Y-59352299D01*
X107689804Y-59387678D01*
X107631789Y-59435289D01*
X107584178Y-59493304D01*
X107548799Y-59559492D01*
X107527013Y-59631311D01*
X107519657Y-59706000D01*
X107520473Y-60050493D01*
X107393248Y-59860087D01*
X107208413Y-59675252D01*
X107007000Y-59540672D01*
X107007000Y-59253378D01*
X107063780Y-59206780D01*
X107134180Y-59120998D01*
X107186492Y-59023130D01*
X107218705Y-58916937D01*
X107229582Y-58806500D01*
X107229582Y-58543839D01*
X111845766Y-58543839D01*
X112046294Y-58814005D01*
X112420407Y-59004418D01*
X112824478Y-59118187D01*
X113242980Y-59150939D01*
X113659831Y-59101416D01*
X114059010Y-58971521D01*
X114353706Y-58814005D01*
X114554234Y-58543839D01*
X113200000Y-57189605D01*
X111845766Y-58543839D01*
X107229582Y-58543839D01*
X107229582Y-58231500D01*
X107218705Y-58121063D01*
X107186492Y-58014870D01*
X107134180Y-57917002D01*
X107063780Y-57831220D01*
X106977998Y-57760820D01*
X106880130Y-57708508D01*
X106773937Y-57676295D01*
X106769787Y-57675886D01*
X106901000Y-57676843D01*
X106975689Y-57669487D01*
X107047508Y-57647701D01*
X107113696Y-57612322D01*
X107171711Y-57564711D01*
X107219322Y-57506696D01*
X107254701Y-57440508D01*
X107276487Y-57368689D01*
X107283843Y-57294000D01*
X107282376Y-57052980D01*
X111059061Y-57052980D01*
X111108584Y-57469831D01*
X111238479Y-57869010D01*
X111395995Y-58163706D01*
X111666161Y-58364234D01*
X113020395Y-57010000D01*
X113379605Y-57010000D01*
X114733839Y-58364234D01*
X115004005Y-58163706D01*
X115194418Y-57789593D01*
X115308187Y-57385522D01*
X115340939Y-56967020D01*
X115291416Y-56550169D01*
X115161521Y-56150990D01*
X115004005Y-55856294D01*
X114733839Y-55655766D01*
X113379605Y-57010000D01*
X113020395Y-57010000D01*
X111666161Y-55655766D01*
X111395995Y-55856294D01*
X111205582Y-56230407D01*
X111091813Y-56634478D01*
X111059061Y-57052980D01*
X107282376Y-57052980D01*
X107282000Y-56991250D01*
X107186750Y-56896000D01*
X106553000Y-56896000D01*
X106553000Y-56916000D01*
X106299000Y-56916000D01*
X106299000Y-56896000D01*
X105665250Y-56896000D01*
X105570000Y-56991250D01*
X105568157Y-57294000D01*
X105575513Y-57368689D01*
X105597299Y-57440508D01*
X105632678Y-57506696D01*
X105680289Y-57564711D01*
X105738304Y-57612322D01*
X105804492Y-57647701D01*
X105876311Y-57669487D01*
X105951000Y-57676843D01*
X106082213Y-57675886D01*
X106078063Y-57676295D01*
X105971870Y-57708508D01*
X105874002Y-57760820D01*
X105788220Y-57831220D01*
X105717820Y-57917002D01*
X105665508Y-58014870D01*
X105633295Y-58121063D01*
X105622418Y-58231500D01*
X105622418Y-58806500D01*
X105633295Y-58916937D01*
X105665508Y-59023130D01*
X105717820Y-59120998D01*
X105788220Y-59206780D01*
X105845000Y-59253379D01*
X105845000Y-59484021D01*
X105733930Y-59530028D01*
X105516587Y-59675252D01*
X105331752Y-59860087D01*
X105186528Y-60077430D01*
X105166824Y-60125000D01*
X105018176Y-60125000D01*
X104998472Y-60077430D01*
X104853248Y-59860087D01*
X104668413Y-59675252D01*
X104451070Y-59530028D01*
X104209572Y-59429996D01*
X103953198Y-59379000D01*
X103691802Y-59379000D01*
X103435428Y-59429996D01*
X103193930Y-59530028D01*
X102976587Y-59675252D01*
X102791752Y-59860087D01*
X102646528Y-60077430D01*
X102546496Y-60318928D01*
X102495500Y-60575302D01*
X100069500Y-60575302D01*
X100018504Y-60318928D01*
X99918472Y-60077430D01*
X99773248Y-59860087D01*
X99588413Y-59675252D01*
X99371070Y-59530028D01*
X99129572Y-59429996D01*
X98873198Y-59379000D01*
X98611802Y-59379000D01*
X98355428Y-59429996D01*
X98113930Y-59530028D01*
X97896587Y-59675252D01*
X97711752Y-59860087D01*
X97566528Y-60077430D01*
X97472500Y-60304433D01*
X97378472Y-60077430D01*
X97233248Y-59860087D01*
X97048413Y-59675252D01*
X96831070Y-59530028D01*
X96589572Y-59429996D01*
X96333198Y-59379000D01*
X96071802Y-59379000D01*
X95815428Y-59429996D01*
X95573930Y-59530028D01*
X95356587Y-59675252D01*
X95171752Y-59860087D01*
X95026528Y-60077430D01*
X94960960Y-60235724D01*
X94914990Y-60108565D01*
X94855096Y-59996510D01*
X94661767Y-59886338D01*
X93842105Y-60706000D01*
X93482895Y-60706000D01*
X92663233Y-59886338D01*
X92469904Y-59996510D01*
X92361079Y-60228575D01*
X92298472Y-60077430D01*
X92153248Y-59860087D01*
X91999894Y-59706733D01*
X92842838Y-59706733D01*
X93662500Y-60526395D01*
X94482162Y-59706733D01*
X94371990Y-59513404D01*
X94125694Y-59397905D01*
X93861597Y-59332676D01*
X93589849Y-59320222D01*
X93320893Y-59361023D01*
X93065065Y-59453510D01*
X92953010Y-59513404D01*
X92842838Y-59706733D01*
X91999894Y-59706733D01*
X91968413Y-59675252D01*
X91751070Y-59530028D01*
X91509572Y-59429996D01*
X91253198Y-59379000D01*
X90991802Y-59379000D01*
X90735428Y-59429996D01*
X90493930Y-59530028D01*
X90276587Y-59675252D01*
X90091752Y-59860087D01*
X89946528Y-60077430D01*
X89846496Y-60318928D01*
X89795500Y-60575302D01*
X79629000Y-60575302D01*
X79629000Y-56244000D01*
X105568157Y-56244000D01*
X105570000Y-56546750D01*
X105665250Y-56642000D01*
X106299000Y-56642000D01*
X106299000Y-55958250D01*
X106553000Y-55958250D01*
X106553000Y-56642000D01*
X107186750Y-56642000D01*
X107282000Y-56546750D01*
X107283843Y-56244000D01*
X107276487Y-56169311D01*
X107254701Y-56097492D01*
X107219322Y-56031304D01*
X107171711Y-55973289D01*
X107113696Y-55925678D01*
X107047508Y-55890299D01*
X106975689Y-55868513D01*
X106901000Y-55861157D01*
X106648250Y-55863000D01*
X106553000Y-55958250D01*
X106299000Y-55958250D01*
X106203750Y-55863000D01*
X105951000Y-55861157D01*
X105876311Y-55868513D01*
X105804492Y-55890299D01*
X105738304Y-55925678D01*
X105680289Y-55973289D01*
X105632678Y-56031304D01*
X105597299Y-56097492D01*
X105575513Y-56169311D01*
X105568157Y-56244000D01*
X79629000Y-56244000D01*
X79629000Y-55860996D01*
X79646292Y-55641274D01*
X79685932Y-55476161D01*
X111845766Y-55476161D01*
X113200000Y-56830395D01*
X114554234Y-55476161D01*
X114353706Y-55205995D01*
X113979593Y-55015582D01*
X113575522Y-54901813D01*
X113157020Y-54869061D01*
X112740169Y-54918584D01*
X112340990Y-55048479D01*
X112046294Y-55205995D01*
X111845766Y-55476161D01*
X79685932Y-55476161D01*
X79696572Y-55431843D01*
X79778999Y-55232848D01*
X79891537Y-55049203D01*
X80031421Y-54885421D01*
X80195203Y-54745537D01*
X80378848Y-54632999D01*
X80577843Y-54550572D01*
X80787274Y-54500292D01*
X81006996Y-54483000D01*
X114065004Y-54483000D01*
X114284726Y-54500292D01*
G37*
X114284726Y-54500292D02*
X114494157Y-54550572D01*
X114693152Y-54632999D01*
X114876797Y-54745537D01*
X115040579Y-54885421D01*
X115180463Y-55049203D01*
X115293001Y-55232848D01*
X115375428Y-55431843D01*
X115425708Y-55641274D01*
X115443000Y-55860996D01*
X115443000Y-78124004D01*
X115425708Y-78343726D01*
X115375428Y-78553157D01*
X115293001Y-78752152D01*
X115180463Y-78935797D01*
X115040579Y-79099579D01*
X114876797Y-79239463D01*
X114693152Y-79352001D01*
X114494157Y-79434428D01*
X114284726Y-79484708D01*
X114065004Y-79502000D01*
X81006996Y-79502000D01*
X80787274Y-79484708D01*
X80577843Y-79434428D01*
X80378848Y-79352001D01*
X80195203Y-79239463D01*
X80031421Y-79099579D01*
X79891537Y-78935797D01*
X79778999Y-78752152D01*
X79696572Y-78553157D01*
X79646292Y-78343726D01*
X79629000Y-78124004D01*
X79629000Y-76805427D01*
X87122940Y-76805427D01*
X87122940Y-77214573D01*
X87202760Y-77615856D01*
X87359333Y-77993857D01*
X87586642Y-78334049D01*
X87875951Y-78623358D01*
X88216143Y-78850667D01*
X88594144Y-79007240D01*
X88995427Y-79087060D01*
X89404573Y-79087060D01*
X89805856Y-79007240D01*
X90183857Y-78850667D01*
X90524049Y-78623358D01*
X90813358Y-78334049D01*
X91040667Y-77993857D01*
X91197240Y-77615856D01*
X91236994Y-77416000D01*
X91679812Y-77416000D01*
X91690535Y-77524877D01*
X91723460Y-77633414D01*
X91776926Y-77733443D01*
X91848880Y-77821120D01*
X91936557Y-77893074D01*
X92036586Y-77946540D01*
X92145123Y-77979465D01*
X92257999Y-77990582D01*
X92908001Y-77990582D01*
X93020877Y-77979465D01*
X93129414Y-77946540D01*
X93229443Y-77893074D01*
X93317120Y-77821120D01*
X93389074Y-77733443D01*
X93442540Y-77633414D01*
X93475465Y-77524877D01*
X93486582Y-77412001D01*
X93486582Y-76511999D01*
X93729418Y-76511999D01*
X93729418Y-77412001D01*
X93740535Y-77524877D01*
X93773460Y-77633414D01*
X93826926Y-77733443D01*
X93898880Y-77821120D01*
X93986557Y-77893074D01*
X94086586Y-77946540D01*
X94195123Y-77979465D01*
X94307999Y-77990582D01*
X94958001Y-77990582D01*
X95070877Y-77979465D01*
X95179414Y-77946540D01*
X95279443Y-77893074D01*
X95367120Y-77821120D01*
X95439074Y-77733443D01*
X95492540Y-77633414D01*
X95525465Y-77524877D01*
X95536188Y-77416000D01*
X95709469Y-77416000D01*
X95709508Y-77416130D01*
X95761820Y-77513998D01*
X95832220Y-77599780D01*
X95918002Y-77670180D01*
X96015870Y-77722492D01*
X96122063Y-77754705D01*
X96232500Y-77765582D01*
X96807500Y-77765582D01*
X96917937Y-77754705D01*
X97024130Y-77722492D01*
X97121998Y-77670180D01*
X97207780Y-77599780D01*
X97278180Y-77513998D01*
X97330492Y-77416130D01*
X97362705Y-77309937D01*
X97363114Y-77305787D01*
X97362157Y-77437000D01*
X97369513Y-77511689D01*
X97391299Y-77583508D01*
X97426678Y-77649696D01*
X97474289Y-77707711D01*
X97532304Y-77755322D01*
X97598492Y-77790701D01*
X97670311Y-77812487D01*
X97745000Y-77819843D01*
X98047750Y-77818000D01*
X98143000Y-77722750D01*
X98143000Y-77089000D01*
X98397000Y-77089000D01*
X98397000Y-77722750D01*
X98492250Y-77818000D01*
X98795000Y-77819843D01*
X98869689Y-77812487D01*
X98941508Y-77790701D01*
X99007696Y-77755322D01*
X99065711Y-77707711D01*
X99113322Y-77649696D01*
X99148701Y-77583508D01*
X99170487Y-77511689D01*
X99177843Y-77437000D01*
X99176000Y-77184250D01*
X99080750Y-77089000D01*
X98397000Y-77089000D01*
X98143000Y-77089000D01*
X98123000Y-77089000D01*
X98123000Y-76835000D01*
X98143000Y-76835000D01*
X98143000Y-76201250D01*
X98397000Y-76201250D01*
X98397000Y-76835000D01*
X99080750Y-76835000D01*
X99176000Y-76739750D01*
X99177843Y-76487000D01*
X99170487Y-76412311D01*
X99148701Y-76340492D01*
X99113322Y-76274304D01*
X99065711Y-76216289D01*
X99007696Y-76168678D01*
X98941508Y-76133299D01*
X98869689Y-76111513D01*
X98795000Y-76104157D01*
X98492250Y-76106000D01*
X98397000Y-76201250D01*
X98143000Y-76201250D01*
X98047750Y-76106000D01*
X97745000Y-76104157D01*
X97670311Y-76111513D01*
X97598492Y-76133299D01*
X97532304Y-76168678D01*
X97474289Y-76216289D01*
X97426678Y-76274304D01*
X97391299Y-76340492D01*
X97369513Y-76412311D01*
X97362157Y-76487000D01*
X97363114Y-76618213D01*
X97362705Y-76614063D01*
X97330492Y-76507870D01*
X97278180Y-76410002D01*
X97207780Y-76324220D01*
X97121998Y-76253820D01*
X97024130Y-76201508D01*
X96917937Y-76169295D01*
X96807500Y-76158418D01*
X96232500Y-76158418D01*
X96122063Y-76169295D01*
X96015870Y-76201508D01*
X95918002Y-76253820D01*
X95832220Y-76324220D01*
X95761820Y-76410002D01*
X95709508Y-76507870D01*
X95709469Y-76508000D01*
X95536188Y-76508000D01*
X95525465Y-76399123D01*
X95492540Y-76290586D01*
X95439074Y-76190557D01*
X95367120Y-76102880D01*
X95279443Y-76030926D01*
X95179414Y-75977460D01*
X95070877Y-75944535D01*
X94958001Y-75933418D01*
X94307999Y-75933418D01*
X94195123Y-75944535D01*
X94086586Y-75977460D01*
X93986557Y-76030926D01*
X93898880Y-76102880D01*
X93826926Y-76190557D01*
X93773460Y-76290586D01*
X93740535Y-76399123D01*
X93729418Y-76511999D01*
X93486582Y-76511999D01*
X93475465Y-76399123D01*
X93442540Y-76290586D01*
X93389074Y-76190557D01*
X93317120Y-76102880D01*
X93229443Y-76030926D01*
X93129414Y-75977460D01*
X93020877Y-75944535D01*
X92908001Y-75933418D01*
X92257999Y-75933418D01*
X92145123Y-75944535D01*
X92036586Y-75977460D01*
X91936557Y-76030926D01*
X91848880Y-76102880D01*
X91776926Y-76190557D01*
X91723460Y-76290586D01*
X91690535Y-76399123D01*
X91679812Y-76508000D01*
X91217898Y-76508000D01*
X91197240Y-76404144D01*
X91040667Y-76026143D01*
X90813358Y-75685951D01*
X90524049Y-75396642D01*
X90183857Y-75169333D01*
X89805856Y-75012760D01*
X89404573Y-74932940D01*
X88995427Y-74932940D01*
X88594144Y-75012760D01*
X88216143Y-75169333D01*
X87875951Y-75396642D01*
X87586642Y-75685951D01*
X87359333Y-76026143D01*
X87202760Y-76404144D01*
X87122940Y-76805427D01*
X79629000Y-76805427D01*
X79629000Y-73543839D01*
X87845766Y-73543839D01*
X88046294Y-73814005D01*
X88420407Y-74004418D01*
X88824478Y-74118187D01*
X89242980Y-74150939D01*
X89659831Y-74101416D01*
X90059010Y-73971521D01*
X90353706Y-73814005D01*
X90554234Y-73543839D01*
X89200000Y-72189605D01*
X87845766Y-73543839D01*
X79629000Y-73543839D01*
X79629000Y-72287640D01*
X79645504Y-72296462D01*
X79680859Y-72311107D01*
X79742205Y-72329717D01*
X79806000Y-72336000D01*
X83897000Y-72336000D01*
X83960798Y-72329716D01*
X84022141Y-72311107D01*
X84057496Y-72296462D01*
X84114023Y-72266248D01*
X84163576Y-72225582D01*
X84204243Y-72176030D01*
X84234462Y-72119496D01*
X84249107Y-72084141D01*
X84258560Y-72052980D01*
X87059061Y-72052980D01*
X87108584Y-72469831D01*
X87238479Y-72869010D01*
X87395995Y-73163706D01*
X87666161Y-73364234D01*
X89020395Y-72010000D01*
X89379605Y-72010000D01*
X90733839Y-73364234D01*
X91004005Y-73163706D01*
X91194418Y-72789593D01*
X91308187Y-72385522D01*
X91340939Y-71967020D01*
X91291416Y-71550169D01*
X91161521Y-71150990D01*
X91004005Y-70856294D01*
X90733839Y-70655766D01*
X89379605Y-72010000D01*
X89020395Y-72010000D01*
X87666161Y-70655766D01*
X87395995Y-70856294D01*
X87205582Y-71230407D01*
X87091813Y-71634478D01*
X87059061Y-72052980D01*
X84258560Y-72052980D01*
X84267717Y-72022795D01*
X84274000Y-71959000D01*
X84274000Y-70476161D01*
X87845766Y-70476161D01*
X89200000Y-71830395D01*
X90554234Y-70476161D01*
X90353706Y-70205995D01*
X89979593Y-70015582D01*
X89575522Y-69901813D01*
X89157020Y-69869061D01*
X88740169Y-69918584D01*
X88340990Y-70048479D01*
X88046294Y-70205995D01*
X87845766Y-70476161D01*
X84274000Y-70476161D01*
X84274000Y-68249000D01*
X84267716Y-68185202D01*
X84249107Y-68123859D01*
X84234462Y-68088504D01*
X84204248Y-68031977D01*
X84163582Y-67982424D01*
X84114030Y-67941757D01*
X84057496Y-67911538D01*
X84022141Y-67896893D01*
X83960795Y-67878283D01*
X83897000Y-67872000D01*
X79806000Y-67872000D01*
X79742202Y-67878284D01*
X79680859Y-67896893D01*
X79645504Y-67911538D01*
X79629000Y-67920359D01*
X79629000Y-66805427D01*
X87122940Y-66805427D01*
X87122940Y-67214573D01*
X87202760Y-67615856D01*
X87359333Y-67993857D01*
X87586642Y-68334049D01*
X87875951Y-68623358D01*
X88216143Y-68850667D01*
X88594144Y-69007240D01*
X88995427Y-69087060D01*
X89404573Y-69087060D01*
X89805856Y-69007240D01*
X89954714Y-68945581D01*
X92563563Y-71554432D01*
X92589709Y-71586291D01*
X92716854Y-71690636D01*
X92861913Y-71768172D01*
X93019311Y-71815918D01*
X93141981Y-71828000D01*
X93141982Y-71828000D01*
X93183000Y-71832040D01*
X93224018Y-71828000D01*
X97069019Y-71828000D01*
X97191689Y-71815918D01*
X97349087Y-71768172D01*
X97494146Y-71690636D01*
X97621291Y-71586291D01*
X97655210Y-71544961D01*
X97659535Y-71588877D01*
X97692460Y-71697414D01*
X97745926Y-71797443D01*
X97817880Y-71885120D01*
X97905557Y-71957074D01*
X98005586Y-72010540D01*
X98114123Y-72043465D01*
X98226999Y-72054582D01*
X98877001Y-72054582D01*
X98989877Y-72043465D01*
X99098414Y-72010540D01*
X99198443Y-71957074D01*
X99286120Y-71885120D01*
X99358074Y-71797443D01*
X99411540Y-71697414D01*
X99444465Y-71588877D01*
X99455582Y-71476001D01*
X99455582Y-70575999D01*
X99698418Y-70575999D01*
X99698418Y-71476001D01*
X99709535Y-71588877D01*
X99742460Y-71697414D01*
X99795926Y-71797443D01*
X99867880Y-71885120D01*
X99955557Y-71957074D01*
X100055586Y-72010540D01*
X100164123Y-72043465D01*
X100276999Y-72054582D01*
X100927001Y-72054582D01*
X101039877Y-72043465D01*
X101148414Y-72010540D01*
X101248443Y-71957074D01*
X101336120Y-71885120D01*
X101408074Y-71797443D01*
X101461540Y-71697414D01*
X101494465Y-71588877D01*
X101505188Y-71480000D01*
X101678469Y-71480000D01*
X101678508Y-71480130D01*
X101730820Y-71577998D01*
X101801220Y-71663780D01*
X101887002Y-71734180D01*
X101984870Y-71786492D01*
X102091063Y-71818705D01*
X102201500Y-71829582D01*
X102776500Y-71829582D01*
X102886937Y-71818705D01*
X102993130Y-71786492D01*
X103090998Y-71734180D01*
X103176780Y-71663780D01*
X103247180Y-71577998D01*
X103299492Y-71480130D01*
X103331705Y-71373937D01*
X103332114Y-71369787D01*
X103331157Y-71501000D01*
X103338513Y-71575689D01*
X103360299Y-71647508D01*
X103395678Y-71713696D01*
X103443289Y-71771711D01*
X103501304Y-71819322D01*
X103567492Y-71854701D01*
X103639311Y-71876487D01*
X103714000Y-71883843D01*
X104016750Y-71882000D01*
X104112000Y-71786750D01*
X104112000Y-71153000D01*
X104366000Y-71153000D01*
X104366000Y-71786750D01*
X104461250Y-71882000D01*
X104764000Y-71883843D01*
X104838689Y-71876487D01*
X104910508Y-71854701D01*
X104976696Y-71819322D01*
X105034711Y-71771711D01*
X105082322Y-71713696D01*
X105117701Y-71647508D01*
X105139487Y-71575689D01*
X105146843Y-71501000D01*
X105145000Y-71248250D01*
X105049750Y-71153000D01*
X104366000Y-71153000D01*
X104112000Y-71153000D01*
X104092000Y-71153000D01*
X104092000Y-70899000D01*
X104112000Y-70899000D01*
X104112000Y-70265250D01*
X104366000Y-70265250D01*
X104366000Y-70899000D01*
X105049750Y-70899000D01*
X105145000Y-70803750D01*
X105146843Y-70551000D01*
X105139487Y-70476311D01*
X105117701Y-70404492D01*
X105082322Y-70338304D01*
X105034711Y-70280289D01*
X104976696Y-70232678D01*
X104910508Y-70197299D01*
X104838689Y-70175513D01*
X104764000Y-70168157D01*
X104461250Y-70170000D01*
X104366000Y-70265250D01*
X104112000Y-70265250D01*
X104016750Y-70170000D01*
X103714000Y-70168157D01*
X103639311Y-70175513D01*
X103567492Y-70197299D01*
X103501304Y-70232678D01*
X103443289Y-70280289D01*
X103395678Y-70338304D01*
X103360299Y-70404492D01*
X103338513Y-70476311D01*
X103331157Y-70551000D01*
X103332114Y-70682213D01*
X103331705Y-70678063D01*
X103299492Y-70571870D01*
X103247180Y-70474002D01*
X103176780Y-70388220D01*
X103090998Y-70317820D01*
X102993130Y-70265508D01*
X102886937Y-70233295D01*
X102776500Y-70222418D01*
X102201500Y-70222418D01*
X102091063Y-70233295D01*
X101984870Y-70265508D01*
X101887002Y-70317820D01*
X101801220Y-70388220D01*
X101730820Y-70474002D01*
X101678508Y-70571870D01*
X101678469Y-70572000D01*
X101505188Y-70572000D01*
X101494465Y-70463123D01*
X101461540Y-70354586D01*
X101408074Y-70254557D01*
X101336120Y-70166880D01*
X101248443Y-70094926D01*
X101148414Y-70041460D01*
X101039877Y-70008535D01*
X100927001Y-69997418D01*
X100276999Y-69997418D01*
X100164123Y-70008535D01*
X100055586Y-70041460D01*
X99955557Y-70094926D01*
X99867880Y-70166880D01*
X99795926Y-70254557D01*
X99742460Y-70354586D01*
X99709535Y-70463123D01*
X99698418Y-70575999D01*
X99455582Y-70575999D01*
X99444465Y-70463123D01*
X99411540Y-70354586D01*
X99358074Y-70254557D01*
X99286120Y-70166880D01*
X99198443Y-70094926D01*
X99098414Y-70041460D01*
X98989877Y-70008535D01*
X98877001Y-69997418D01*
X98226999Y-69997418D01*
X98114123Y-70008535D01*
X98005586Y-70041460D01*
X97905557Y-70094926D01*
X97817880Y-70166880D01*
X97745926Y-70254557D01*
X97692460Y-70354586D01*
X97663259Y-70450847D01*
X97621291Y-70399709D01*
X97494146Y-70295364D01*
X97349087Y-70217828D01*
X97191689Y-70170082D01*
X97069019Y-70158000D01*
X93528869Y-70158000D01*
X91625265Y-68254397D01*
X93380000Y-68254397D01*
X93380000Y-68397603D01*
X93407938Y-68538058D01*
X93462741Y-68670364D01*
X93542302Y-68789436D01*
X93643564Y-68890698D01*
X93762636Y-68970259D01*
X93894942Y-69025062D01*
X94035397Y-69053000D01*
X94178603Y-69053000D01*
X94319058Y-69025062D01*
X94451364Y-68970259D01*
X94570436Y-68890698D01*
X94671698Y-68789436D01*
X94751259Y-68670364D01*
X94806062Y-68538058D01*
X94834000Y-68397603D01*
X94834000Y-68254397D01*
X94806062Y-68113942D01*
X94751259Y-67981636D01*
X94688000Y-67886962D01*
X94688000Y-66026657D01*
X96514658Y-64200000D01*
X96601452Y-64200000D01*
X96761227Y-64168218D01*
X96911731Y-64105877D01*
X97047181Y-64015372D01*
X97162372Y-63900181D01*
X97252877Y-63764731D01*
X97315218Y-63614227D01*
X97347000Y-63454452D01*
X97347000Y-63291548D01*
X97315218Y-63131773D01*
X97252877Y-62981269D01*
X97162372Y-62845819D01*
X97047181Y-62730628D01*
X96911731Y-62640123D01*
X96761227Y-62577782D01*
X96601452Y-62546000D01*
X96438548Y-62546000D01*
X96278773Y-62577782D01*
X96128269Y-62640123D01*
X95992819Y-62730628D01*
X95877628Y-62845819D01*
X95787123Y-62981269D01*
X95724782Y-63131773D01*
X95693000Y-63291548D01*
X95693000Y-63378342D01*
X93716356Y-65354987D01*
X93694184Y-65373183D01*
X93675991Y-65395352D01*
X93621579Y-65461653D01*
X93567629Y-65562586D01*
X93534407Y-65672105D01*
X93523189Y-65786000D01*
X93526001Y-65814550D01*
X93526000Y-67886962D01*
X93462741Y-67981636D01*
X93407938Y-68113942D01*
X93380000Y-68254397D01*
X91625265Y-68254397D01*
X91135581Y-67764714D01*
X91197240Y-67615856D01*
X91277060Y-67214573D01*
X91277060Y-66805427D01*
X91197240Y-66404144D01*
X91040667Y-66026143D01*
X90813358Y-65685951D01*
X90524049Y-65396642D01*
X90183857Y-65169333D01*
X89805856Y-65012760D01*
X89404573Y-64932940D01*
X88995427Y-64932940D01*
X88594144Y-65012760D01*
X88216143Y-65169333D01*
X87875951Y-65396642D01*
X87586642Y-65685951D01*
X87359333Y-66026143D01*
X87202760Y-66404144D01*
X87122940Y-66805427D01*
X79629000Y-66805427D01*
X79629000Y-60575302D01*
X89795500Y-60575302D01*
X89795500Y-60836698D01*
X89846496Y-61093072D01*
X89946528Y-61334570D01*
X90091752Y-61551913D01*
X90276587Y-61736748D01*
X90493930Y-61881972D01*
X90735428Y-61982004D01*
X90991802Y-62033000D01*
X91253198Y-62033000D01*
X91509572Y-61982004D01*
X91751070Y-61881972D01*
X91968413Y-61736748D01*
X91999894Y-61705267D01*
X92842838Y-61705267D01*
X92953010Y-61898596D01*
X93199306Y-62014095D01*
X93463403Y-62079324D01*
X93735151Y-62091778D01*
X94004107Y-62050977D01*
X94259935Y-61958490D01*
X94371990Y-61898596D01*
X94482162Y-61705267D01*
X93662500Y-60885605D01*
X92842838Y-61705267D01*
X91999894Y-61705267D01*
X92153248Y-61551913D01*
X92298472Y-61334570D01*
X92364040Y-61176276D01*
X92410010Y-61303435D01*
X92469904Y-61415490D01*
X92663233Y-61525662D01*
X93482895Y-60706000D01*
X93842105Y-60706000D01*
X94661767Y-61525662D01*
X94855096Y-61415490D01*
X94963921Y-61183425D01*
X95026528Y-61334570D01*
X95171752Y-61551913D01*
X95356587Y-61736748D01*
X95573930Y-61881972D01*
X95815428Y-61982004D01*
X96071802Y-62033000D01*
X96333198Y-62033000D01*
X96589572Y-61982004D01*
X96831070Y-61881972D01*
X97048413Y-61736748D01*
X97233248Y-61551913D01*
X97378472Y-61334570D01*
X97472500Y-61107567D01*
X97566528Y-61334570D01*
X97711752Y-61551913D01*
X97896587Y-61736748D01*
X98113930Y-61881972D01*
X98355428Y-61982004D01*
X98611802Y-62033000D01*
X98873198Y-62033000D01*
X99129572Y-61982004D01*
X99371070Y-61881972D01*
X99588413Y-61736748D01*
X99773248Y-61551913D01*
X99918472Y-61334570D01*
X100018504Y-61093072D01*
X100069500Y-60836698D01*
X100069500Y-60575302D01*
X102495500Y-60575302D01*
X102495500Y-60836698D01*
X102546496Y-61093072D01*
X102646528Y-61334570D01*
X102791752Y-61551913D01*
X102976587Y-61736748D01*
X103193930Y-61881972D01*
X103435428Y-61982004D01*
X103691802Y-62033000D01*
X103953198Y-62033000D01*
X104209572Y-61982004D01*
X104451070Y-61881972D01*
X104668413Y-61736748D01*
X104853248Y-61551913D01*
X104998472Y-61334570D01*
X105018176Y-61287000D01*
X105166824Y-61287000D01*
X105186528Y-61334570D01*
X105331752Y-61551913D01*
X105516587Y-61736748D01*
X105733930Y-61881972D01*
X105975428Y-61982004D01*
X106231802Y-62033000D01*
X106493198Y-62033000D01*
X106749572Y-61982004D01*
X106991070Y-61881972D01*
X107208413Y-61736748D01*
X107393248Y-61551913D01*
X107520473Y-61361507D01*
X107519657Y-61706000D01*
X107527013Y-61780689D01*
X107548799Y-61852508D01*
X107584178Y-61918696D01*
X107631789Y-61976711D01*
X107689804Y-62024322D01*
X107755992Y-62059701D01*
X107827811Y-62081487D01*
X107902500Y-62088843D01*
X108680250Y-62087000D01*
X108775500Y-61991750D01*
X108775500Y-60833000D01*
X109029500Y-60833000D01*
X109029500Y-61991750D01*
X109124750Y-62087000D01*
X109902500Y-62088843D01*
X109977189Y-62081487D01*
X110049008Y-62059701D01*
X110115196Y-62024322D01*
X110173211Y-61976711D01*
X110220822Y-61918696D01*
X110256201Y-61852508D01*
X110270482Y-61805427D01*
X111122940Y-61805427D01*
X111122940Y-62214573D01*
X111202760Y-62615856D01*
X111359333Y-62993857D01*
X111586642Y-63334049D01*
X111875951Y-63623358D01*
X112216143Y-63850667D01*
X112594144Y-64007240D01*
X112995427Y-64087060D01*
X113404573Y-64087060D01*
X113805856Y-64007240D01*
X114183857Y-63850667D01*
X114524049Y-63623358D01*
X114813358Y-63334049D01*
X115040667Y-62993857D01*
X115197240Y-62615856D01*
X115277060Y-62214573D01*
X115277060Y-61805427D01*
X115197240Y-61404144D01*
X115040667Y-61026143D01*
X114813358Y-60685951D01*
X114524049Y-60396642D01*
X114183857Y-60169333D01*
X113805856Y-60012760D01*
X113404573Y-59932940D01*
X112995427Y-59932940D01*
X112594144Y-60012760D01*
X112216143Y-60169333D01*
X111875951Y-60396642D01*
X111586642Y-60685951D01*
X111359333Y-61026143D01*
X111202760Y-61404144D01*
X111122940Y-61805427D01*
X110270482Y-61805427D01*
X110277987Y-61780689D01*
X110285343Y-61706000D01*
X110283500Y-60928250D01*
X110188250Y-60833000D01*
X109029500Y-60833000D01*
X108775500Y-60833000D01*
X108755500Y-60833000D01*
X108755500Y-60579000D01*
X108775500Y-60579000D01*
X108775500Y-59420250D01*
X109029500Y-59420250D01*
X109029500Y-60579000D01*
X110188250Y-60579000D01*
X110283500Y-60483750D01*
X110285343Y-59706000D01*
X110277987Y-59631311D01*
X110256201Y-59559492D01*
X110220822Y-59493304D01*
X110173211Y-59435289D01*
X110115196Y-59387678D01*
X110049008Y-59352299D01*
X109977189Y-59330513D01*
X109902500Y-59323157D01*
X109124750Y-59325000D01*
X109029500Y-59420250D01*
X108775500Y-59420250D01*
X108680250Y-59325000D01*
X107902500Y-59323157D01*
X107827811Y-59330513D01*
X107755992Y-59352299D01*
X107689804Y-59387678D01*
X107631789Y-59435289D01*
X107584178Y-59493304D01*
X107548799Y-59559492D01*
X107527013Y-59631311D01*
X107519657Y-59706000D01*
X107520473Y-60050493D01*
X107393248Y-59860087D01*
X107208413Y-59675252D01*
X107007000Y-59540672D01*
X107007000Y-59253378D01*
X107063780Y-59206780D01*
X107134180Y-59120998D01*
X107186492Y-59023130D01*
X107218705Y-58916937D01*
X107229582Y-58806500D01*
X107229582Y-58543839D01*
X111845766Y-58543839D01*
X112046294Y-58814005D01*
X112420407Y-59004418D01*
X112824478Y-59118187D01*
X113242980Y-59150939D01*
X113659831Y-59101416D01*
X114059010Y-58971521D01*
X114353706Y-58814005D01*
X114554234Y-58543839D01*
X113200000Y-57189605D01*
X111845766Y-58543839D01*
X107229582Y-58543839D01*
X107229582Y-58231500D01*
X107218705Y-58121063D01*
X107186492Y-58014870D01*
X107134180Y-57917002D01*
X107063780Y-57831220D01*
X106977998Y-57760820D01*
X106880130Y-57708508D01*
X106773937Y-57676295D01*
X106769787Y-57675886D01*
X106901000Y-57676843D01*
X106975689Y-57669487D01*
X107047508Y-57647701D01*
X107113696Y-57612322D01*
X107171711Y-57564711D01*
X107219322Y-57506696D01*
X107254701Y-57440508D01*
X107276487Y-57368689D01*
X107283843Y-57294000D01*
X107282376Y-57052980D01*
X111059061Y-57052980D01*
X111108584Y-57469831D01*
X111238479Y-57869010D01*
X111395995Y-58163706D01*
X111666161Y-58364234D01*
X113020395Y-57010000D01*
X113379605Y-57010000D01*
X114733839Y-58364234D01*
X115004005Y-58163706D01*
X115194418Y-57789593D01*
X115308187Y-57385522D01*
X115340939Y-56967020D01*
X115291416Y-56550169D01*
X115161521Y-56150990D01*
X115004005Y-55856294D01*
X114733839Y-55655766D01*
X113379605Y-57010000D01*
X113020395Y-57010000D01*
X111666161Y-55655766D01*
X111395995Y-55856294D01*
X111205582Y-56230407D01*
X111091813Y-56634478D01*
X111059061Y-57052980D01*
X107282376Y-57052980D01*
X107282000Y-56991250D01*
X107186750Y-56896000D01*
X106553000Y-56896000D01*
X106553000Y-56916000D01*
X106299000Y-56916000D01*
X106299000Y-56896000D01*
X105665250Y-56896000D01*
X105570000Y-56991250D01*
X105568157Y-57294000D01*
X105575513Y-57368689D01*
X105597299Y-57440508D01*
X105632678Y-57506696D01*
X105680289Y-57564711D01*
X105738304Y-57612322D01*
X105804492Y-57647701D01*
X105876311Y-57669487D01*
X105951000Y-57676843D01*
X106082213Y-57675886D01*
X106078063Y-57676295D01*
X105971870Y-57708508D01*
X105874002Y-57760820D01*
X105788220Y-57831220D01*
X105717820Y-57917002D01*
X105665508Y-58014870D01*
X105633295Y-58121063D01*
X105622418Y-58231500D01*
X105622418Y-58806500D01*
X105633295Y-58916937D01*
X105665508Y-59023130D01*
X105717820Y-59120998D01*
X105788220Y-59206780D01*
X105845000Y-59253379D01*
X105845000Y-59484021D01*
X105733930Y-59530028D01*
X105516587Y-59675252D01*
X105331752Y-59860087D01*
X105186528Y-60077430D01*
X105166824Y-60125000D01*
X105018176Y-60125000D01*
X104998472Y-60077430D01*
X104853248Y-59860087D01*
X104668413Y-59675252D01*
X104451070Y-59530028D01*
X104209572Y-59429996D01*
X103953198Y-59379000D01*
X103691802Y-59379000D01*
X103435428Y-59429996D01*
X103193930Y-59530028D01*
X102976587Y-59675252D01*
X102791752Y-59860087D01*
X102646528Y-60077430D01*
X102546496Y-60318928D01*
X102495500Y-60575302D01*
X100069500Y-60575302D01*
X100018504Y-60318928D01*
X99918472Y-60077430D01*
X99773248Y-59860087D01*
X99588413Y-59675252D01*
X99371070Y-59530028D01*
X99129572Y-59429996D01*
X98873198Y-59379000D01*
X98611802Y-59379000D01*
X98355428Y-59429996D01*
X98113930Y-59530028D01*
X97896587Y-59675252D01*
X97711752Y-59860087D01*
X97566528Y-60077430D01*
X97472500Y-60304433D01*
X97378472Y-60077430D01*
X97233248Y-59860087D01*
X97048413Y-59675252D01*
X96831070Y-59530028D01*
X96589572Y-59429996D01*
X96333198Y-59379000D01*
X96071802Y-59379000D01*
X95815428Y-59429996D01*
X95573930Y-59530028D01*
X95356587Y-59675252D01*
X95171752Y-59860087D01*
X95026528Y-60077430D01*
X94960960Y-60235724D01*
X94914990Y-60108565D01*
X94855096Y-59996510D01*
X94661767Y-59886338D01*
X93842105Y-60706000D01*
X93482895Y-60706000D01*
X92663233Y-59886338D01*
X92469904Y-59996510D01*
X92361079Y-60228575D01*
X92298472Y-60077430D01*
X92153248Y-59860087D01*
X91999894Y-59706733D01*
X92842838Y-59706733D01*
X93662500Y-60526395D01*
X94482162Y-59706733D01*
X94371990Y-59513404D01*
X94125694Y-59397905D01*
X93861597Y-59332676D01*
X93589849Y-59320222D01*
X93320893Y-59361023D01*
X93065065Y-59453510D01*
X92953010Y-59513404D01*
X92842838Y-59706733D01*
X91999894Y-59706733D01*
X91968413Y-59675252D01*
X91751070Y-59530028D01*
X91509572Y-59429996D01*
X91253198Y-59379000D01*
X90991802Y-59379000D01*
X90735428Y-59429996D01*
X90493930Y-59530028D01*
X90276587Y-59675252D01*
X90091752Y-59860087D01*
X89946528Y-60077430D01*
X89846496Y-60318928D01*
X89795500Y-60575302D01*
X79629000Y-60575302D01*
X79629000Y-56244000D01*
X105568157Y-56244000D01*
X105570000Y-56546750D01*
X105665250Y-56642000D01*
X106299000Y-56642000D01*
X106299000Y-55958250D01*
X106553000Y-55958250D01*
X106553000Y-56642000D01*
X107186750Y-56642000D01*
X107282000Y-56546750D01*
X107283843Y-56244000D01*
X107276487Y-56169311D01*
X107254701Y-56097492D01*
X107219322Y-56031304D01*
X107171711Y-55973289D01*
X107113696Y-55925678D01*
X107047508Y-55890299D01*
X106975689Y-55868513D01*
X106901000Y-55861157D01*
X106648250Y-55863000D01*
X106553000Y-55958250D01*
X106299000Y-55958250D01*
X106203750Y-55863000D01*
X105951000Y-55861157D01*
X105876311Y-55868513D01*
X105804492Y-55890299D01*
X105738304Y-55925678D01*
X105680289Y-55973289D01*
X105632678Y-56031304D01*
X105597299Y-56097492D01*
X105575513Y-56169311D01*
X105568157Y-56244000D01*
X79629000Y-56244000D01*
X79629000Y-55860996D01*
X79646292Y-55641274D01*
X79685932Y-55476161D01*
X111845766Y-55476161D01*
X113200000Y-56830395D01*
X114554234Y-55476161D01*
X114353706Y-55205995D01*
X113979593Y-55015582D01*
X113575522Y-54901813D01*
X113157020Y-54869061D01*
X112740169Y-54918584D01*
X112340990Y-55048479D01*
X112046294Y-55205995D01*
X111845766Y-55476161D01*
X79685932Y-55476161D01*
X79696572Y-55431843D01*
X79778999Y-55232848D01*
X79891537Y-55049203D01*
X80031421Y-54885421D01*
X80195203Y-54745537D01*
X80378848Y-54632999D01*
X80577843Y-54550572D01*
X80787274Y-54500292D01*
X81006996Y-54483000D01*
X114065004Y-54483000D01*
X114284726Y-54500292D01*
D21*
G36*
X83847000Y-71909000D02*
G01*
X79856000Y-71909000D01*
X79856000Y-68299000D01*
X83847000Y-68299000D01*
X83847000Y-71909000D01*
G37*
X83847000Y-71909000D02*
X79856000Y-71909000D01*
X79856000Y-68299000D01*
X83847000Y-68299000D01*
X83847000Y-71909000D01*
M02*
