G04 #@! TF.GenerationSoftware,KiCad,Pcbnew,5.1.5-52549c5~86~ubuntu18.04.1*
G04 #@! TF.CreationDate,2020-04-26T14:43:08+02:00*
G04 #@! TF.ProjectId,dcdc_7909,64636463-5f37-4393-9039-2e6b69636164,rev?*
G04 #@! TF.SameCoordinates,Original*
G04 #@! TF.FileFunction,Legend,Top*
G04 #@! TF.FilePolarity,Positive*
%FSLAX46Y46*%
G04 Gerber Fmt 4.6, Leading zero omitted, Abs format (unit mm)*
G04 Created by KiCad (PCBNEW 5.1.5-52549c5~86~ubuntu18.04.1) date 2020-04-26 14:43:08*
%MOMM*%
%LPD*%
G04 APERTURE LIST*
%ADD10C,0.150000*%
%ADD11C,0.100000*%
%ADD12C,0.120000*%
G04 APERTURE END LIST*
D10*
X80531666Y-66737666D02*
X80198333Y-66737666D01*
X80198333Y-66037666D01*
X80665000Y-66037666D02*
X81065000Y-66037666D01*
X80865000Y-66737666D02*
X80865000Y-66037666D01*
X81231666Y-66037666D02*
X81665000Y-66037666D01*
X81431666Y-66304333D01*
X81531666Y-66304333D01*
X81598333Y-66337666D01*
X81631666Y-66371000D01*
X81665000Y-66437666D01*
X81665000Y-66604333D01*
X81631666Y-66671000D01*
X81598333Y-66704333D01*
X81531666Y-66737666D01*
X81331666Y-66737666D01*
X81265000Y-66704333D01*
X81231666Y-66671000D01*
X82098333Y-66037666D02*
X82165000Y-66037666D01*
X82231666Y-66071000D01*
X82265000Y-66104333D01*
X82298333Y-66171000D01*
X82331666Y-66304333D01*
X82331666Y-66471000D01*
X82298333Y-66604333D01*
X82265000Y-66671000D01*
X82231666Y-66704333D01*
X82165000Y-66737666D01*
X82098333Y-66737666D01*
X82031666Y-66704333D01*
X81998333Y-66671000D01*
X81965000Y-66604333D01*
X81931666Y-66471000D01*
X81931666Y-66304333D01*
X81965000Y-66171000D01*
X81998333Y-66104333D01*
X82031666Y-66071000D01*
X82098333Y-66037666D01*
X82665000Y-66737666D02*
X82798333Y-66737666D01*
X82865000Y-66704333D01*
X82898333Y-66671000D01*
X82965000Y-66571000D01*
X82998333Y-66437666D01*
X82998333Y-66171000D01*
X82965000Y-66104333D01*
X82931666Y-66071000D01*
X82865000Y-66037666D01*
X82731666Y-66037666D01*
X82665000Y-66071000D01*
X82631666Y-66104333D01*
X82598333Y-66171000D01*
X82598333Y-66337666D01*
X82631666Y-66404333D01*
X82665000Y-66437666D01*
X82731666Y-66471000D01*
X82865000Y-66471000D01*
X82931666Y-66437666D01*
X82965000Y-66404333D01*
X82998333Y-66337666D01*
X83598333Y-66271000D02*
X83598333Y-66737666D01*
X83431666Y-66004333D02*
X83265000Y-66504333D01*
X83698333Y-66504333D01*
X94296666Y-67296333D02*
X94296666Y-67629666D01*
X93596666Y-67629666D01*
X93596666Y-67163000D02*
X93596666Y-66763000D01*
X94296666Y-66963000D02*
X93596666Y-66963000D01*
X93596666Y-66596333D02*
X93596666Y-66163000D01*
X93863333Y-66396333D01*
X93863333Y-66296333D01*
X93896666Y-66229666D01*
X93930000Y-66196333D01*
X93996666Y-66163000D01*
X94163333Y-66163000D01*
X94230000Y-66196333D01*
X94263333Y-66229666D01*
X94296666Y-66296333D01*
X94296666Y-66496333D01*
X94263333Y-66563000D01*
X94230000Y-66596333D01*
X93596666Y-65729666D02*
X93596666Y-65663000D01*
X93630000Y-65596333D01*
X93663333Y-65563000D01*
X93730000Y-65529666D01*
X93863333Y-65496333D01*
X94030000Y-65496333D01*
X94163333Y-65529666D01*
X94230000Y-65563000D01*
X94263333Y-65596333D01*
X94296666Y-65663000D01*
X94296666Y-65729666D01*
X94263333Y-65796333D01*
X94230000Y-65829666D01*
X94163333Y-65863000D01*
X94030000Y-65896333D01*
X93863333Y-65896333D01*
X93730000Y-65863000D01*
X93663333Y-65829666D01*
X93630000Y-65796333D01*
X93596666Y-65729666D01*
X93830000Y-64896333D02*
X94296666Y-64896333D01*
X93563333Y-65063000D02*
X94063333Y-65229666D01*
X94063333Y-64796333D01*
X93596666Y-64196333D02*
X93596666Y-64529666D01*
X93930000Y-64563000D01*
X93896666Y-64529666D01*
X93863333Y-64463000D01*
X93863333Y-64296333D01*
X93896666Y-64229666D01*
X93930000Y-64196333D01*
X93996666Y-64163000D01*
X94163333Y-64163000D01*
X94230000Y-64196333D01*
X94263333Y-64229666D01*
X94296666Y-64296333D01*
X94296666Y-64463000D01*
X94263333Y-64529666D01*
X94230000Y-64563000D01*
D11*
X89459476Y-55060904D02*
X89916619Y-55060904D01*
X89688047Y-55860904D02*
X89688047Y-55060904D01*
X90183285Y-55860904D02*
X90183285Y-55327571D01*
X90183285Y-55479952D02*
X90221380Y-55403761D01*
X90259476Y-55365666D01*
X90335666Y-55327571D01*
X90411857Y-55327571D01*
X91021380Y-55860904D02*
X91021380Y-55441857D01*
X90983285Y-55365666D01*
X90907095Y-55327571D01*
X90754714Y-55327571D01*
X90678523Y-55365666D01*
X91021380Y-55822809D02*
X90945190Y-55860904D01*
X90754714Y-55860904D01*
X90678523Y-55822809D01*
X90640428Y-55746619D01*
X90640428Y-55670428D01*
X90678523Y-55594238D01*
X90754714Y-55556142D01*
X90945190Y-55556142D01*
X91021380Y-55518047D01*
X91745190Y-55822809D02*
X91669000Y-55860904D01*
X91516619Y-55860904D01*
X91440428Y-55822809D01*
X91402333Y-55784714D01*
X91364238Y-55708523D01*
X91364238Y-55479952D01*
X91402333Y-55403761D01*
X91440428Y-55365666D01*
X91516619Y-55327571D01*
X91669000Y-55327571D01*
X91745190Y-55365666D01*
X92202333Y-55860904D02*
X92126142Y-55822809D01*
X92088047Y-55784714D01*
X92049952Y-55708523D01*
X92049952Y-55479952D01*
X92088047Y-55403761D01*
X92126142Y-55365666D01*
X92202333Y-55327571D01*
X92316619Y-55327571D01*
X92392809Y-55365666D01*
X92430904Y-55403761D01*
X92469000Y-55479952D01*
X92469000Y-55708523D01*
X92430904Y-55784714D01*
X92392809Y-55822809D01*
X92316619Y-55860904D01*
X92202333Y-55860904D01*
X93307095Y-55060904D02*
X93764238Y-55060904D01*
X93535666Y-55860904D02*
X93535666Y-55060904D01*
X94030904Y-55860904D02*
X94030904Y-55060904D01*
X94297571Y-55632333D01*
X94564238Y-55060904D01*
X94564238Y-55860904D01*
X95402333Y-55860904D02*
X95135666Y-55479952D01*
X94945190Y-55860904D02*
X94945190Y-55060904D01*
X95249952Y-55060904D01*
X95326142Y-55099000D01*
X95364238Y-55137095D01*
X95402333Y-55213285D01*
X95402333Y-55327571D01*
X95364238Y-55403761D01*
X95326142Y-55441857D01*
X95249952Y-55479952D01*
X94945190Y-55479952D01*
X96088047Y-55060904D02*
X95935666Y-55060904D01*
X95859476Y-55099000D01*
X95821380Y-55137095D01*
X95745190Y-55251380D01*
X95707095Y-55403761D01*
X95707095Y-55708523D01*
X95745190Y-55784714D01*
X95783285Y-55822809D01*
X95859476Y-55860904D01*
X96011857Y-55860904D01*
X96088047Y-55822809D01*
X96126142Y-55784714D01*
X96164238Y-55708523D01*
X96164238Y-55518047D01*
X96126142Y-55441857D01*
X96088047Y-55403761D01*
X96011857Y-55365666D01*
X95859476Y-55365666D01*
X95783285Y-55403761D01*
X95745190Y-55441857D01*
X95707095Y-55518047D01*
X96507095Y-55556142D02*
X97116619Y-55556142D01*
X97916619Y-55860904D02*
X97459476Y-55860904D01*
X97688047Y-55860904D02*
X97688047Y-55060904D01*
X97611857Y-55175190D01*
X97535666Y-55251380D01*
X97459476Y-55289476D01*
X98221380Y-55137095D02*
X98259476Y-55099000D01*
X98335666Y-55060904D01*
X98526142Y-55060904D01*
X98602333Y-55099000D01*
X98640428Y-55137095D01*
X98678523Y-55213285D01*
X98678523Y-55289476D01*
X98640428Y-55403761D01*
X98183285Y-55860904D01*
X98678523Y-55860904D01*
X98983285Y-55137095D02*
X99021380Y-55099000D01*
X99097571Y-55060904D01*
X99288047Y-55060904D01*
X99364238Y-55099000D01*
X99402333Y-55137095D01*
X99440428Y-55213285D01*
X99440428Y-55289476D01*
X99402333Y-55403761D01*
X98945190Y-55860904D01*
X99440428Y-55860904D01*
X99745190Y-55137095D02*
X99783285Y-55099000D01*
X99859476Y-55060904D01*
X100049952Y-55060904D01*
X100126142Y-55099000D01*
X100164238Y-55137095D01*
X100202333Y-55213285D01*
X100202333Y-55289476D01*
X100164238Y-55403761D01*
X99707095Y-55860904D01*
X100202333Y-55860904D01*
D12*
X79528000Y-55511000D02*
X79528000Y-63746000D01*
X84048000Y-55511000D02*
X79528000Y-55511000D01*
X84048000Y-63746000D02*
X84048000Y-55511000D01*
X107632500Y-63906000D02*
X107632500Y-54706000D01*
X110902500Y-54706000D02*
X110902500Y-63906000D01*
X89102500Y-54706000D02*
X110902500Y-54706000D01*
X89102500Y-54706000D02*
X89102500Y-63906000D01*
X110902500Y-63906000D02*
X89102500Y-63906000D01*
X99199000Y-74269000D02*
X107434000Y-74269000D01*
X99199000Y-69749000D02*
X99199000Y-74269000D01*
X107434000Y-69749000D02*
X99199000Y-69749000D01*
X92839000Y-66578267D02*
X92839000Y-66235733D01*
X91819000Y-66578267D02*
X91819000Y-66235733D01*
X94899267Y-70737000D02*
X94556733Y-70737000D01*
X94899267Y-71757000D02*
X94556733Y-71757000D01*
X98757000Y-67310000D02*
X98757000Y-64435000D01*
X98757000Y-67310000D02*
X98757000Y-68810000D01*
X94537000Y-67310000D02*
X94537000Y-65810000D01*
X94537000Y-67310000D02*
X94537000Y-68810000D01*
X84834000Y-77157733D02*
X84834000Y-77500267D01*
X85854000Y-77157733D02*
X85854000Y-77500267D01*
X101003000Y-74575000D02*
X92768000Y-74575000D01*
X101003000Y-79095000D02*
X101003000Y-74575000D01*
X92768000Y-79095000D02*
X101003000Y-79095000D01*
X83961500Y-70040500D02*
X83961500Y-67165500D01*
X83961500Y-70040500D02*
X83961500Y-71540500D01*
X79741500Y-70040500D02*
X79741500Y-68540500D01*
X79741500Y-70040500D02*
X79741500Y-71540500D01*
X80325500Y-75330233D02*
X80325500Y-75672767D01*
X81345500Y-75330233D02*
X81345500Y-75672767D01*
X115036000Y-72636000D02*
X115036000Y-64401000D01*
X115036000Y-64401000D02*
X110516000Y-64401000D01*
X110516000Y-64401000D02*
X110516000Y-72636000D01*
X88874000Y-63746000D02*
X88874000Y-55511000D01*
X88874000Y-55511000D02*
X84354000Y-55511000D01*
X84354000Y-55511000D02*
X84354000Y-63746000D01*
X101161436Y-64622000D02*
X102365564Y-64622000D01*
X101161436Y-66442000D02*
X102365564Y-66442000D01*
X84688000Y-66871436D02*
X84688000Y-68075564D01*
X86508000Y-66871436D02*
X86508000Y-68075564D01*
X84031500Y-76196436D02*
X84031500Y-77400564D01*
X82211500Y-76196436D02*
X82211500Y-77400564D01*
X95434564Y-72242000D02*
X94230436Y-72242000D01*
X95434564Y-74062000D02*
X94230436Y-74062000D01*
X101161436Y-69236000D02*
X102365564Y-69236000D01*
X101161436Y-67416000D02*
X102365564Y-67416000D01*
X84688000Y-73019064D02*
X84688000Y-71814936D01*
X86508000Y-73019064D02*
X86508000Y-71814936D01*
D10*
X81621333Y-55221142D02*
X81573714Y-55268761D01*
X81430857Y-55316380D01*
X81335619Y-55316380D01*
X81192761Y-55268761D01*
X81097523Y-55173523D01*
X81049904Y-55078285D01*
X81002285Y-54887809D01*
X81002285Y-54744952D01*
X81049904Y-54554476D01*
X81097523Y-54459238D01*
X81192761Y-54364000D01*
X81335619Y-54316380D01*
X81430857Y-54316380D01*
X81573714Y-54364000D01*
X81621333Y-54411619D01*
X81954666Y-54316380D02*
X82573714Y-54316380D01*
X82240380Y-54697333D01*
X82383238Y-54697333D01*
X82478476Y-54744952D01*
X82526095Y-54792571D01*
X82573714Y-54887809D01*
X82573714Y-55125904D01*
X82526095Y-55221142D01*
X82478476Y-55268761D01*
X82383238Y-55316380D01*
X82097523Y-55316380D01*
X82002285Y-55268761D01*
X81954666Y-55221142D01*
X108077095Y-64095380D02*
X108077095Y-64904904D01*
X108124714Y-65000142D01*
X108172333Y-65047761D01*
X108267571Y-65095380D01*
X108458047Y-65095380D01*
X108553285Y-65047761D01*
X108600904Y-65000142D01*
X108648523Y-64904904D01*
X108648523Y-64095380D01*
X109648523Y-65095380D02*
X109077095Y-65095380D01*
X109362809Y-65095380D02*
X109362809Y-64095380D01*
X109267571Y-64238238D01*
X109172333Y-64333476D01*
X109077095Y-64381095D01*
X106545142Y-75414142D02*
X106497523Y-75461761D01*
X106354666Y-75509380D01*
X106259428Y-75509380D01*
X106116571Y-75461761D01*
X106021333Y-75366523D01*
X105973714Y-75271285D01*
X105926095Y-75080809D01*
X105926095Y-74937952D01*
X105973714Y-74747476D01*
X106021333Y-74652238D01*
X106116571Y-74557000D01*
X106259428Y-74509380D01*
X106354666Y-74509380D01*
X106497523Y-74557000D01*
X106545142Y-74604619D01*
X107497523Y-75509380D02*
X106926095Y-75509380D01*
X107211809Y-75509380D02*
X107211809Y-74509380D01*
X107116571Y-74652238D01*
X107021333Y-74747476D01*
X106926095Y-74795095D01*
X108449904Y-75509380D02*
X107878476Y-75509380D01*
X108164190Y-75509380D02*
X108164190Y-74509380D01*
X108068952Y-74652238D01*
X107973714Y-74747476D01*
X107878476Y-74795095D01*
X91543142Y-65190666D02*
X91590761Y-65238285D01*
X91638380Y-65381142D01*
X91638380Y-65476380D01*
X91590761Y-65619238D01*
X91495523Y-65714476D01*
X91400285Y-65762095D01*
X91209809Y-65809714D01*
X91066952Y-65809714D01*
X90876476Y-65762095D01*
X90781238Y-65714476D01*
X90686000Y-65619238D01*
X90638380Y-65476380D01*
X90638380Y-65381142D01*
X90686000Y-65238285D01*
X90733619Y-65190666D01*
X91638380Y-64714476D02*
X91638380Y-64524000D01*
X91590761Y-64428761D01*
X91543142Y-64381142D01*
X91400285Y-64285904D01*
X91209809Y-64238285D01*
X90828857Y-64238285D01*
X90733619Y-64285904D01*
X90686000Y-64333523D01*
X90638380Y-64428761D01*
X90638380Y-64619238D01*
X90686000Y-64714476D01*
X90733619Y-64762095D01*
X90828857Y-64809714D01*
X91066952Y-64809714D01*
X91162190Y-64762095D01*
X91209809Y-64714476D01*
X91257428Y-64619238D01*
X91257428Y-64428761D01*
X91209809Y-64333523D01*
X91162190Y-64285904D01*
X91066952Y-64238285D01*
X93035380Y-71286666D02*
X92559190Y-71620000D01*
X93035380Y-71858095D02*
X92035380Y-71858095D01*
X92035380Y-71477142D01*
X92083000Y-71381904D01*
X92130619Y-71334285D01*
X92225857Y-71286666D01*
X92368714Y-71286666D01*
X92463952Y-71334285D01*
X92511571Y-71381904D01*
X92559190Y-71477142D01*
X92559190Y-71858095D01*
X92130619Y-70905714D02*
X92083000Y-70858095D01*
X92035380Y-70762857D01*
X92035380Y-70524761D01*
X92083000Y-70429523D01*
X92130619Y-70381904D01*
X92225857Y-70334285D01*
X92321095Y-70334285D01*
X92463952Y-70381904D01*
X93035380Y-70953333D01*
X93035380Y-70334285D01*
X92837095Y-69048380D02*
X92837095Y-69857904D01*
X92884714Y-69953142D01*
X92932333Y-70000761D01*
X93027571Y-70048380D01*
X93218047Y-70048380D01*
X93313285Y-70000761D01*
X93360904Y-69953142D01*
X93408523Y-69857904D01*
X93408523Y-69048380D01*
X93837095Y-69143619D02*
X93884714Y-69096000D01*
X93979952Y-69048380D01*
X94218047Y-69048380D01*
X94313285Y-69096000D01*
X94360904Y-69143619D01*
X94408523Y-69238857D01*
X94408523Y-69334095D01*
X94360904Y-69476952D01*
X93789476Y-70048380D01*
X94408523Y-70048380D01*
X86606142Y-79732142D02*
X86558523Y-79779761D01*
X86415666Y-79827380D01*
X86320428Y-79827380D01*
X86177571Y-79779761D01*
X86082333Y-79684523D01*
X86034714Y-79589285D01*
X85987095Y-79398809D01*
X85987095Y-79255952D01*
X86034714Y-79065476D01*
X86082333Y-78970238D01*
X86177571Y-78875000D01*
X86320428Y-78827380D01*
X86415666Y-78827380D01*
X86558523Y-78875000D01*
X86606142Y-78922619D01*
X87558523Y-79827380D02*
X86987095Y-79827380D01*
X87272809Y-79827380D02*
X87272809Y-78827380D01*
X87177571Y-78970238D01*
X87082333Y-79065476D01*
X86987095Y-79113095D01*
X87939476Y-78922619D02*
X87987095Y-78875000D01*
X88082333Y-78827380D01*
X88320428Y-78827380D01*
X88415666Y-78875000D01*
X88463285Y-78922619D01*
X88510904Y-79017857D01*
X88510904Y-79113095D01*
X88463285Y-79255952D01*
X87891857Y-79827380D01*
X88510904Y-79827380D01*
X101846142Y-77192142D02*
X101798523Y-77239761D01*
X101655666Y-77287380D01*
X101560428Y-77287380D01*
X101417571Y-77239761D01*
X101322333Y-77144523D01*
X101274714Y-77049285D01*
X101227095Y-76858809D01*
X101227095Y-76715952D01*
X101274714Y-76525476D01*
X101322333Y-76430238D01*
X101417571Y-76335000D01*
X101560428Y-76287380D01*
X101655666Y-76287380D01*
X101798523Y-76335000D01*
X101846142Y-76382619D01*
X102798523Y-77287380D02*
X102227095Y-77287380D01*
X102512809Y-77287380D02*
X102512809Y-76287380D01*
X102417571Y-76430238D01*
X102322333Y-76525476D01*
X102227095Y-76573095D01*
X103131857Y-76287380D02*
X103750904Y-76287380D01*
X103417571Y-76668333D01*
X103560428Y-76668333D01*
X103655666Y-76715952D01*
X103703285Y-76763571D01*
X103750904Y-76858809D01*
X103750904Y-77096904D01*
X103703285Y-77192142D01*
X103655666Y-77239761D01*
X103560428Y-77287380D01*
X103274714Y-77287380D01*
X103179476Y-77239761D01*
X103131857Y-77192142D01*
X114601666Y-59142380D02*
X114601666Y-59856666D01*
X114554047Y-59999523D01*
X114458809Y-60094761D01*
X114315952Y-60142380D01*
X114220714Y-60142380D01*
X115601666Y-60142380D02*
X115030238Y-60142380D01*
X115315952Y-60142380D02*
X115315952Y-59142380D01*
X115220714Y-59285238D01*
X115125476Y-59380476D01*
X115030238Y-59428095D01*
X114728666Y-54189380D02*
X114728666Y-54903666D01*
X114681047Y-55046523D01*
X114585809Y-55141761D01*
X114442952Y-55189380D01*
X114347714Y-55189380D01*
X115157238Y-54284619D02*
X115204857Y-54237000D01*
X115300095Y-54189380D01*
X115538190Y-54189380D01*
X115633428Y-54237000D01*
X115681047Y-54284619D01*
X115728666Y-54379857D01*
X115728666Y-54475095D01*
X115681047Y-54617952D01*
X115109619Y-55189380D01*
X115728666Y-55189380D01*
X90725666Y-68540380D02*
X90725666Y-69254666D01*
X90678047Y-69397523D01*
X90582809Y-69492761D01*
X90439952Y-69540380D01*
X90344714Y-69540380D01*
X91106619Y-68540380D02*
X91725666Y-68540380D01*
X91392333Y-68921333D01*
X91535190Y-68921333D01*
X91630428Y-68968952D01*
X91678047Y-69016571D01*
X91725666Y-69111809D01*
X91725666Y-69349904D01*
X91678047Y-69445142D01*
X91630428Y-69492761D01*
X91535190Y-69540380D01*
X91249476Y-69540380D01*
X91154238Y-69492761D01*
X91106619Y-69445142D01*
X90852666Y-73366380D02*
X90852666Y-74080666D01*
X90805047Y-74223523D01*
X90709809Y-74318761D01*
X90566952Y-74366380D01*
X90471714Y-74366380D01*
X91757428Y-73699714D02*
X91757428Y-74366380D01*
X91519333Y-73318761D02*
X91281238Y-74033047D01*
X91900285Y-74033047D01*
X90725666Y-78700380D02*
X90725666Y-79414666D01*
X90678047Y-79557523D01*
X90582809Y-79652761D01*
X90439952Y-79700380D01*
X90344714Y-79700380D01*
X91678047Y-78700380D02*
X91201857Y-78700380D01*
X91154238Y-79176571D01*
X91201857Y-79128952D01*
X91297095Y-79081333D01*
X91535190Y-79081333D01*
X91630428Y-79128952D01*
X91678047Y-79176571D01*
X91725666Y-79271809D01*
X91725666Y-79509904D01*
X91678047Y-79605142D01*
X91630428Y-79652761D01*
X91535190Y-79700380D01*
X91297095Y-79700380D01*
X91201857Y-79652761D01*
X91154238Y-79605142D01*
X82677095Y-73239380D02*
X82677095Y-74048904D01*
X82724714Y-74144142D01*
X82772333Y-74191761D01*
X82867571Y-74239380D01*
X83058047Y-74239380D01*
X83153285Y-74191761D01*
X83200904Y-74144142D01*
X83248523Y-74048904D01*
X83248523Y-73239380D01*
X83629476Y-73239380D02*
X84248523Y-73239380D01*
X83915190Y-73620333D01*
X84058047Y-73620333D01*
X84153285Y-73667952D01*
X84200904Y-73715571D01*
X84248523Y-73810809D01*
X84248523Y-74048904D01*
X84200904Y-74144142D01*
X84153285Y-74191761D01*
X84058047Y-74239380D01*
X83772333Y-74239380D01*
X83677095Y-74191761D01*
X83629476Y-74144142D01*
X80462380Y-78271666D02*
X79986190Y-78605000D01*
X80462380Y-78843095D02*
X79462380Y-78843095D01*
X79462380Y-78462142D01*
X79510000Y-78366904D01*
X79557619Y-78319285D01*
X79652857Y-78271666D01*
X79795714Y-78271666D01*
X79890952Y-78319285D01*
X79938571Y-78366904D01*
X79986190Y-78462142D01*
X79986190Y-78843095D01*
X80462380Y-77319285D02*
X80462380Y-77890714D01*
X80462380Y-77605000D02*
X79462380Y-77605000D01*
X79605238Y-77700238D01*
X79700476Y-77795476D01*
X79748095Y-77890714D01*
X110212142Y-69127666D02*
X110259761Y-69175285D01*
X110307380Y-69318142D01*
X110307380Y-69413380D01*
X110259761Y-69556238D01*
X110164523Y-69651476D01*
X110069285Y-69699095D01*
X109878809Y-69746714D01*
X109735952Y-69746714D01*
X109545476Y-69699095D01*
X109450238Y-69651476D01*
X109355000Y-69556238D01*
X109307380Y-69413380D01*
X109307380Y-69318142D01*
X109355000Y-69175285D01*
X109402619Y-69127666D01*
X110307380Y-68175285D02*
X110307380Y-68746714D01*
X110307380Y-68461000D02*
X109307380Y-68461000D01*
X109450238Y-68556238D01*
X109545476Y-68651476D01*
X109593095Y-68746714D01*
X86320333Y-55221142D02*
X86272714Y-55268761D01*
X86129857Y-55316380D01*
X86034619Y-55316380D01*
X85891761Y-55268761D01*
X85796523Y-55173523D01*
X85748904Y-55078285D01*
X85701285Y-54887809D01*
X85701285Y-54744952D01*
X85748904Y-54554476D01*
X85796523Y-54459238D01*
X85891761Y-54364000D01*
X86034619Y-54316380D01*
X86129857Y-54316380D01*
X86272714Y-54364000D01*
X86320333Y-54411619D01*
X86701285Y-54411619D02*
X86748904Y-54364000D01*
X86844142Y-54316380D01*
X87082238Y-54316380D01*
X87177476Y-54364000D01*
X87225095Y-54411619D01*
X87272714Y-54506857D01*
X87272714Y-54602095D01*
X87225095Y-54744952D01*
X86653666Y-55316380D01*
X87272714Y-55316380D01*
X105116333Y-65889142D02*
X105068714Y-65936761D01*
X104925857Y-65984380D01*
X104830619Y-65984380D01*
X104687761Y-65936761D01*
X104592523Y-65841523D01*
X104544904Y-65746285D01*
X104497285Y-65555809D01*
X104497285Y-65412952D01*
X104544904Y-65222476D01*
X104592523Y-65127238D01*
X104687761Y-65032000D01*
X104830619Y-64984380D01*
X104925857Y-64984380D01*
X105068714Y-65032000D01*
X105116333Y-65079619D01*
X105973476Y-65317714D02*
X105973476Y-65984380D01*
X105735380Y-64936761D02*
X105497285Y-65651047D01*
X106116333Y-65651047D01*
X87733142Y-69381666D02*
X87780761Y-69429285D01*
X87828380Y-69572142D01*
X87828380Y-69667380D01*
X87780761Y-69810238D01*
X87685523Y-69905476D01*
X87590285Y-69953095D01*
X87399809Y-70000714D01*
X87256952Y-70000714D01*
X87066476Y-69953095D01*
X86971238Y-69905476D01*
X86876000Y-69810238D01*
X86828380Y-69667380D01*
X86828380Y-69572142D01*
X86876000Y-69429285D01*
X86923619Y-69381666D01*
X86828380Y-68476904D02*
X86828380Y-68953095D01*
X87304571Y-69000714D01*
X87256952Y-68953095D01*
X87209333Y-68857857D01*
X87209333Y-68619761D01*
X87256952Y-68524523D01*
X87304571Y-68476904D01*
X87399809Y-68429285D01*
X87637904Y-68429285D01*
X87733142Y-68476904D01*
X87780761Y-68524523D01*
X87828380Y-68619761D01*
X87828380Y-68857857D01*
X87780761Y-68953095D01*
X87733142Y-69000714D01*
X81764142Y-78271666D02*
X81811761Y-78319285D01*
X81859380Y-78462142D01*
X81859380Y-78557380D01*
X81811761Y-78700238D01*
X81716523Y-78795476D01*
X81621285Y-78843095D01*
X81430809Y-78890714D01*
X81287952Y-78890714D01*
X81097476Y-78843095D01*
X81002238Y-78795476D01*
X80907000Y-78700238D01*
X80859380Y-78557380D01*
X80859380Y-78462142D01*
X80907000Y-78319285D01*
X80954619Y-78271666D01*
X80859380Y-77414523D02*
X80859380Y-77605000D01*
X80907000Y-77700238D01*
X80954619Y-77747857D01*
X81097476Y-77843095D01*
X81287952Y-77890714D01*
X81668904Y-77890714D01*
X81764142Y-77843095D01*
X81811761Y-77795476D01*
X81859380Y-77700238D01*
X81859380Y-77509761D01*
X81811761Y-77414523D01*
X81764142Y-77366904D01*
X81668904Y-77319285D01*
X81430809Y-77319285D01*
X81335571Y-77366904D01*
X81287952Y-77414523D01*
X81240333Y-77509761D01*
X81240333Y-77700238D01*
X81287952Y-77795476D01*
X81335571Y-77843095D01*
X81430809Y-77890714D01*
X98274142Y-73445666D02*
X98321761Y-73493285D01*
X98369380Y-73636142D01*
X98369380Y-73731380D01*
X98321761Y-73874238D01*
X98226523Y-73969476D01*
X98131285Y-74017095D01*
X97940809Y-74064714D01*
X97797952Y-74064714D01*
X97607476Y-74017095D01*
X97512238Y-73969476D01*
X97417000Y-73874238D01*
X97369380Y-73731380D01*
X97369380Y-73636142D01*
X97417000Y-73493285D01*
X97464619Y-73445666D01*
X97369380Y-73112333D02*
X97369380Y-72445666D01*
X98369380Y-72874238D01*
X105116333Y-68429142D02*
X105068714Y-68476761D01*
X104925857Y-68524380D01*
X104830619Y-68524380D01*
X104687761Y-68476761D01*
X104592523Y-68381523D01*
X104544904Y-68286285D01*
X104497285Y-68095809D01*
X104497285Y-67952952D01*
X104544904Y-67762476D01*
X104592523Y-67667238D01*
X104687761Y-67572000D01*
X104830619Y-67524380D01*
X104925857Y-67524380D01*
X105068714Y-67572000D01*
X105116333Y-67619619D01*
X105687761Y-67952952D02*
X105592523Y-67905333D01*
X105544904Y-67857714D01*
X105497285Y-67762476D01*
X105497285Y-67714857D01*
X105544904Y-67619619D01*
X105592523Y-67572000D01*
X105687761Y-67524380D01*
X105878238Y-67524380D01*
X105973476Y-67572000D01*
X106021095Y-67619619D01*
X106068714Y-67714857D01*
X106068714Y-67762476D01*
X106021095Y-67857714D01*
X105973476Y-67905333D01*
X105878238Y-67952952D01*
X105687761Y-67952952D01*
X105592523Y-68000571D01*
X105544904Y-68048190D01*
X105497285Y-68143428D01*
X105497285Y-68333904D01*
X105544904Y-68429142D01*
X105592523Y-68476761D01*
X105687761Y-68524380D01*
X105878238Y-68524380D01*
X105973476Y-68476761D01*
X106021095Y-68429142D01*
X106068714Y-68333904D01*
X106068714Y-68143428D01*
X106021095Y-68048190D01*
X105973476Y-68000571D01*
X105878238Y-67952952D01*
X87733142Y-75318857D02*
X87780761Y-75366476D01*
X87828380Y-75509333D01*
X87828380Y-75604571D01*
X87780761Y-75747428D01*
X87685523Y-75842666D01*
X87590285Y-75890285D01*
X87399809Y-75937904D01*
X87256952Y-75937904D01*
X87066476Y-75890285D01*
X86971238Y-75842666D01*
X86876000Y-75747428D01*
X86828380Y-75604571D01*
X86828380Y-75509333D01*
X86876000Y-75366476D01*
X86923619Y-75318857D01*
X87828380Y-74366476D02*
X87828380Y-74937904D01*
X87828380Y-74652190D02*
X86828380Y-74652190D01*
X86971238Y-74747428D01*
X87066476Y-74842666D01*
X87114095Y-74937904D01*
X86828380Y-73747428D02*
X86828380Y-73652190D01*
X86876000Y-73556952D01*
X86923619Y-73509333D01*
X87018857Y-73461714D01*
X87209333Y-73414095D01*
X87447428Y-73414095D01*
X87637904Y-73461714D01*
X87733142Y-73509333D01*
X87780761Y-73556952D01*
X87828380Y-73652190D01*
X87828380Y-73747428D01*
X87780761Y-73842666D01*
X87733142Y-73890285D01*
X87637904Y-73937904D01*
X87447428Y-73985523D01*
X87209333Y-73985523D01*
X87018857Y-73937904D01*
X86923619Y-73890285D01*
X86876000Y-73842666D01*
X86828380Y-73747428D01*
M02*
