G04 #@! TF.GenerationSoftware,KiCad,Pcbnew,5.1.5-52549c5~86~ubuntu18.04.1*
G04 #@! TF.CreationDate,2020-04-26T14:43:08+02:00*
G04 #@! TF.ProjectId,dcdc_7909,64636463-5f37-4393-9039-2e6b69636164,rev?*
G04 #@! TF.SameCoordinates,Original*
G04 #@! TF.FileFunction,Soldermask,Top*
G04 #@! TF.FilePolarity,Negative*
%FSLAX46Y46*%
G04 Gerber Fmt 4.6, Leading zero omitted, Abs format (unit mm)*
G04 Created by KiCad (PCBNEW 5.1.5-52549c5~86~ubuntu18.04.1) date 2020-04-26 14:43:08*
%MOMM*%
%LPD*%
G04 APERTURE LIST*
%ADD10C,0.100000*%
G04 APERTURE END LIST*
D10*
G36*
X83897062Y-77526681D02*
G01*
X83931981Y-77537274D01*
X83964163Y-77554476D01*
X83992373Y-77577627D01*
X84015524Y-77605837D01*
X84032725Y-77638018D01*
X84043319Y-77672938D01*
X84047500Y-77715395D01*
X84047500Y-78856605D01*
X84043319Y-78899062D01*
X84032726Y-78933981D01*
X84015524Y-78966163D01*
X83992373Y-78994373D01*
X83964163Y-79017524D01*
X83931981Y-79034726D01*
X83897062Y-79045319D01*
X83854605Y-79049500D01*
X82388395Y-79049500D01*
X82345938Y-79045319D01*
X82311019Y-79034726D01*
X82278837Y-79017524D01*
X82250627Y-78994373D01*
X82227476Y-78966163D01*
X82210274Y-78933981D01*
X82199681Y-78899062D01*
X82195500Y-78856605D01*
X82195500Y-77715395D01*
X82199681Y-77672938D01*
X82210275Y-77638018D01*
X82227476Y-77605837D01*
X82250627Y-77577627D01*
X82278837Y-77554476D01*
X82311019Y-77537274D01*
X82345938Y-77526681D01*
X82388395Y-77522500D01*
X83854605Y-77522500D01*
X83897062Y-77526681D01*
G37*
G36*
X89426905Y-75218789D02*
G01*
X89725350Y-75278153D01*
X90053122Y-75413921D01*
X90348109Y-75611025D01*
X90598975Y-75861891D01*
X90796079Y-76156878D01*
X90931847Y-76484650D01*
X91001060Y-76832611D01*
X91001060Y-77187389D01*
X90931847Y-77535350D01*
X90796079Y-77863122D01*
X90598975Y-78158109D01*
X90348109Y-78408975D01*
X90053122Y-78606079D01*
X89725350Y-78741847D01*
X89426905Y-78801211D01*
X89377390Y-78811060D01*
X89022610Y-78811060D01*
X88973095Y-78801211D01*
X88674650Y-78741847D01*
X88346878Y-78606079D01*
X88051891Y-78408975D01*
X87801025Y-78158109D01*
X87603921Y-77863122D01*
X87468153Y-77535350D01*
X87398940Y-77187389D01*
X87398940Y-76832611D01*
X87468153Y-76484650D01*
X87603921Y-76156878D01*
X87801025Y-75861891D01*
X88051891Y-75611025D01*
X88346878Y-75413921D01*
X88674650Y-75278153D01*
X88973095Y-75218789D01*
X89022610Y-75208940D01*
X89377390Y-75208940D01*
X89426905Y-75218789D01*
G37*
G36*
X85708499Y-77632445D02*
G01*
X85745995Y-77643820D01*
X85780554Y-77662292D01*
X85810847Y-77687153D01*
X85835708Y-77717446D01*
X85854180Y-77752005D01*
X85865555Y-77789501D01*
X85870000Y-77834638D01*
X85870000Y-78573362D01*
X85865555Y-78618499D01*
X85854180Y-78655995D01*
X85835708Y-78690554D01*
X85810847Y-78720847D01*
X85780554Y-78745708D01*
X85745995Y-78764180D01*
X85708499Y-78775555D01*
X85663362Y-78780000D01*
X85024638Y-78780000D01*
X84979501Y-78775555D01*
X84942005Y-78764180D01*
X84907446Y-78745708D01*
X84877153Y-78720847D01*
X84852292Y-78690554D01*
X84833820Y-78655995D01*
X84822445Y-78618499D01*
X84818000Y-78573362D01*
X84818000Y-77834638D01*
X84822445Y-77789501D01*
X84833820Y-77752005D01*
X84852292Y-77717446D01*
X84877153Y-77687153D01*
X84907446Y-77662292D01*
X84942005Y-77643820D01*
X84979501Y-77632445D01*
X85024638Y-77628000D01*
X85663362Y-77628000D01*
X85708499Y-77632445D01*
G37*
G36*
X100661786Y-75512746D02*
G01*
X100692461Y-75522051D01*
X100720729Y-75537161D01*
X100745506Y-75557494D01*
X100765839Y-75582271D01*
X100780949Y-75610539D01*
X100790254Y-75641214D01*
X100794000Y-75679251D01*
X100794000Y-77990749D01*
X100790254Y-78028786D01*
X100780949Y-78059461D01*
X100765839Y-78087729D01*
X100745506Y-78112506D01*
X100720729Y-78132839D01*
X100692461Y-78147949D01*
X100661786Y-78157254D01*
X100623749Y-78161000D01*
X98612251Y-78161000D01*
X98574214Y-78157254D01*
X98543539Y-78147949D01*
X98515271Y-78132839D01*
X98490494Y-78112506D01*
X98470161Y-78087729D01*
X98455051Y-78059461D01*
X98445746Y-78028786D01*
X98442000Y-77990749D01*
X98442000Y-75679251D01*
X98445746Y-75641214D01*
X98455051Y-75610539D01*
X98470161Y-75582271D01*
X98490494Y-75557494D01*
X98515271Y-75537161D01*
X98543539Y-75522051D01*
X98574214Y-75512746D01*
X98612251Y-75509000D01*
X100623749Y-75509000D01*
X100661786Y-75512746D01*
G37*
G36*
X94261786Y-75512746D02*
G01*
X94292461Y-75522051D01*
X94320729Y-75537161D01*
X94345506Y-75557494D01*
X94365839Y-75582271D01*
X94380949Y-75610539D01*
X94390254Y-75641214D01*
X94394000Y-75679251D01*
X94394000Y-77990749D01*
X94390254Y-78028786D01*
X94380949Y-78059461D01*
X94365839Y-78087729D01*
X94345506Y-78112506D01*
X94320729Y-78132839D01*
X94292461Y-78147949D01*
X94261786Y-78157254D01*
X94223749Y-78161000D01*
X92212251Y-78161000D01*
X92174214Y-78157254D01*
X92143539Y-78147949D01*
X92115271Y-78132839D01*
X92090494Y-78112506D01*
X92070161Y-78087729D01*
X92055051Y-78059461D01*
X92045746Y-78028786D01*
X92042000Y-77990749D01*
X92042000Y-75679251D01*
X92045746Y-75641214D01*
X92055051Y-75610539D01*
X92070161Y-75582271D01*
X92090494Y-75557494D01*
X92115271Y-75537161D01*
X92143539Y-75522051D01*
X92174214Y-75512746D01*
X92212251Y-75509000D01*
X94223749Y-75509000D01*
X94261786Y-75512746D01*
G37*
G36*
X85708499Y-75882445D02*
G01*
X85745995Y-75893820D01*
X85780554Y-75912292D01*
X85810847Y-75937153D01*
X85835708Y-75967446D01*
X85854180Y-76002005D01*
X85865555Y-76039501D01*
X85870000Y-76084638D01*
X85870000Y-76823362D01*
X85865555Y-76868499D01*
X85854180Y-76905995D01*
X85835708Y-76940554D01*
X85810847Y-76970847D01*
X85780554Y-76995708D01*
X85745995Y-77014180D01*
X85708499Y-77025555D01*
X85663362Y-77030000D01*
X85024638Y-77030000D01*
X84979501Y-77025555D01*
X84942005Y-77014180D01*
X84907446Y-76995708D01*
X84877153Y-76970847D01*
X84852292Y-76940554D01*
X84833820Y-76905995D01*
X84822445Y-76868499D01*
X84818000Y-76823362D01*
X84818000Y-76084638D01*
X84822445Y-76039501D01*
X84833820Y-76002005D01*
X84852292Y-75967446D01*
X84877153Y-75937153D01*
X84907446Y-75912292D01*
X84942005Y-75893820D01*
X84979501Y-75882445D01*
X85024638Y-75878000D01*
X85663362Y-75878000D01*
X85708499Y-75882445D01*
G37*
G36*
X81199999Y-75804945D02*
G01*
X81237495Y-75816320D01*
X81272054Y-75834792D01*
X81302347Y-75859653D01*
X81327208Y-75889946D01*
X81345680Y-75924505D01*
X81357055Y-75962001D01*
X81361500Y-76007138D01*
X81361500Y-76745862D01*
X81357055Y-76790999D01*
X81345680Y-76828495D01*
X81327208Y-76863054D01*
X81302347Y-76893347D01*
X81272054Y-76918208D01*
X81237495Y-76936680D01*
X81199999Y-76948055D01*
X81154862Y-76952500D01*
X80516138Y-76952500D01*
X80471001Y-76948055D01*
X80433505Y-76936680D01*
X80398946Y-76918208D01*
X80368653Y-76893347D01*
X80343792Y-76863054D01*
X80325320Y-76828495D01*
X80313945Y-76790999D01*
X80309500Y-76745862D01*
X80309500Y-76007138D01*
X80313945Y-75962001D01*
X80325320Y-75924505D01*
X80343792Y-75889946D01*
X80368653Y-75859653D01*
X80398946Y-75834792D01*
X80433505Y-75816320D01*
X80471001Y-75804945D01*
X80516138Y-75800500D01*
X81154862Y-75800500D01*
X81199999Y-75804945D01*
G37*
G36*
X83897062Y-74551681D02*
G01*
X83931981Y-74562274D01*
X83964163Y-74579476D01*
X83992373Y-74602627D01*
X84015524Y-74630837D01*
X84032726Y-74663019D01*
X84043319Y-74697938D01*
X84047500Y-74740395D01*
X84047500Y-75881605D01*
X84043319Y-75924062D01*
X84032726Y-75958981D01*
X84015524Y-75991163D01*
X83992373Y-76019373D01*
X83964163Y-76042524D01*
X83931981Y-76059726D01*
X83897062Y-76070319D01*
X83854605Y-76074500D01*
X82388395Y-76074500D01*
X82345938Y-76070319D01*
X82311019Y-76059726D01*
X82278837Y-76042524D01*
X82250627Y-76019373D01*
X82227476Y-75991163D01*
X82210274Y-75958981D01*
X82199681Y-75924062D01*
X82195500Y-75881605D01*
X82195500Y-74740395D01*
X82199681Y-74697938D01*
X82210274Y-74663019D01*
X82227476Y-74630837D01*
X82250627Y-74602627D01*
X82278837Y-74579476D01*
X82311019Y-74562274D01*
X82345938Y-74551681D01*
X82388395Y-74547500D01*
X83854605Y-74547500D01*
X83897062Y-74551681D01*
G37*
G36*
X81199999Y-74054945D02*
G01*
X81237495Y-74066320D01*
X81272054Y-74084792D01*
X81302347Y-74109653D01*
X81327208Y-74139946D01*
X81345680Y-74174505D01*
X81357055Y-74212001D01*
X81361500Y-74257138D01*
X81361500Y-74995862D01*
X81357055Y-75040999D01*
X81345680Y-75078495D01*
X81327208Y-75113054D01*
X81302347Y-75143347D01*
X81272054Y-75168208D01*
X81237495Y-75186680D01*
X81199999Y-75198055D01*
X81154862Y-75202500D01*
X80516138Y-75202500D01*
X80471001Y-75198055D01*
X80433505Y-75186680D01*
X80398946Y-75168208D01*
X80368653Y-75143347D01*
X80343792Y-75113054D01*
X80325320Y-75078495D01*
X80313945Y-75040999D01*
X80309500Y-74995862D01*
X80309500Y-74257138D01*
X80313945Y-74212001D01*
X80325320Y-74174505D01*
X80343792Y-74139946D01*
X80368653Y-74109653D01*
X80398946Y-74084792D01*
X80433505Y-74066320D01*
X80471001Y-74054945D01*
X80516138Y-74050500D01*
X81154862Y-74050500D01*
X81199999Y-74054945D01*
G37*
G36*
X86373562Y-73145181D02*
G01*
X86408481Y-73155774D01*
X86440663Y-73172976D01*
X86468873Y-73196127D01*
X86492024Y-73224337D01*
X86509226Y-73256519D01*
X86519819Y-73291438D01*
X86524000Y-73333895D01*
X86524000Y-74475105D01*
X86519819Y-74517562D01*
X86509226Y-74552481D01*
X86492024Y-74584663D01*
X86468873Y-74612873D01*
X86440663Y-74636024D01*
X86408481Y-74653226D01*
X86373562Y-74663819D01*
X86331105Y-74668000D01*
X84864895Y-74668000D01*
X84822438Y-74663819D01*
X84787519Y-74653226D01*
X84755337Y-74636024D01*
X84727127Y-74612873D01*
X84703976Y-74584663D01*
X84686774Y-74552481D01*
X84676181Y-74517562D01*
X84672000Y-74475105D01*
X84672000Y-73333895D01*
X84676181Y-73291438D01*
X84686774Y-73256519D01*
X84703976Y-73224337D01*
X84727127Y-73196127D01*
X84755337Y-73172976D01*
X84787519Y-73155774D01*
X84822438Y-73145181D01*
X84864895Y-73141000D01*
X86331105Y-73141000D01*
X86373562Y-73145181D01*
G37*
G36*
X96933062Y-72230181D02*
G01*
X96967981Y-72240774D01*
X97000163Y-72257976D01*
X97028373Y-72281127D01*
X97051524Y-72309337D01*
X97068726Y-72341519D01*
X97079319Y-72376438D01*
X97083500Y-72418895D01*
X97083500Y-73885105D01*
X97079319Y-73927562D01*
X97068726Y-73962481D01*
X97051524Y-73994663D01*
X97028373Y-74022873D01*
X97000163Y-74046024D01*
X96967981Y-74063226D01*
X96933062Y-74073819D01*
X96890605Y-74078000D01*
X95749395Y-74078000D01*
X95706938Y-74073819D01*
X95672019Y-74063226D01*
X95639837Y-74046024D01*
X95611627Y-74022873D01*
X95588476Y-73994663D01*
X95571274Y-73962481D01*
X95560681Y-73927562D01*
X95556500Y-73885105D01*
X95556500Y-72418895D01*
X95560681Y-72376438D01*
X95571274Y-72341519D01*
X95588476Y-72309337D01*
X95611627Y-72281127D01*
X95639837Y-72257976D01*
X95672019Y-72240774D01*
X95706938Y-72230181D01*
X95749395Y-72226000D01*
X96890605Y-72226000D01*
X96933062Y-72230181D01*
G37*
G36*
X93958062Y-72230181D02*
G01*
X93992981Y-72240774D01*
X94025163Y-72257976D01*
X94053373Y-72281127D01*
X94076524Y-72309337D01*
X94093726Y-72341519D01*
X94104319Y-72376438D01*
X94108500Y-72418895D01*
X94108500Y-73885105D01*
X94104319Y-73927562D01*
X94093726Y-73962481D01*
X94076524Y-73994663D01*
X94053373Y-74022873D01*
X94025163Y-74046024D01*
X93992981Y-74063226D01*
X93958062Y-74073819D01*
X93915605Y-74078000D01*
X92774395Y-74078000D01*
X92731938Y-74073819D01*
X92697019Y-74063226D01*
X92664837Y-74046024D01*
X92636627Y-74022873D01*
X92613476Y-73994663D01*
X92596274Y-73962481D01*
X92585681Y-73927562D01*
X92581500Y-73885105D01*
X92581500Y-72418895D01*
X92585681Y-72376438D01*
X92596274Y-72341519D01*
X92613476Y-72309337D01*
X92636627Y-72281127D01*
X92664837Y-72257976D01*
X92697019Y-72240774D01*
X92731938Y-72230181D01*
X92774395Y-72226000D01*
X93915605Y-72226000D01*
X93958062Y-72230181D01*
G37*
G36*
X89407096Y-70214849D02*
G01*
X89725350Y-70278153D01*
X90053122Y-70413921D01*
X90348109Y-70611025D01*
X90598975Y-70861891D01*
X90796079Y-71156878D01*
X90931847Y-71484650D01*
X91001060Y-71832611D01*
X91001060Y-72187389D01*
X90931847Y-72535350D01*
X90796079Y-72863122D01*
X90598975Y-73158109D01*
X90348109Y-73408975D01*
X90053122Y-73606079D01*
X89725350Y-73741847D01*
X89426905Y-73801211D01*
X89377390Y-73811060D01*
X89022610Y-73811060D01*
X88973095Y-73801211D01*
X88674650Y-73741847D01*
X88346878Y-73606079D01*
X88051891Y-73408975D01*
X87801025Y-73158109D01*
X87603921Y-72863122D01*
X87468153Y-72535350D01*
X87398940Y-72187389D01*
X87398940Y-71832611D01*
X87468153Y-71484650D01*
X87603921Y-71156878D01*
X87801025Y-70861891D01*
X88051891Y-70611025D01*
X88346878Y-70413921D01*
X88674650Y-70278153D01*
X88992904Y-70214849D01*
X89022610Y-70208940D01*
X89377390Y-70208940D01*
X89407096Y-70214849D01*
G37*
G36*
X113969786Y-71013746D02*
G01*
X114000461Y-71023051D01*
X114028729Y-71038161D01*
X114053506Y-71058494D01*
X114073839Y-71083271D01*
X114088949Y-71111539D01*
X114098254Y-71142214D01*
X114102000Y-71180251D01*
X114102000Y-73191749D01*
X114098254Y-73229786D01*
X114088949Y-73260461D01*
X114073839Y-73288729D01*
X114053506Y-73313506D01*
X114028729Y-73333839D01*
X114000461Y-73348949D01*
X113969786Y-73358254D01*
X113931749Y-73362000D01*
X111620251Y-73362000D01*
X111582214Y-73358254D01*
X111551539Y-73348949D01*
X111523271Y-73333839D01*
X111498494Y-73313506D01*
X111478161Y-73288729D01*
X111463051Y-73260461D01*
X111453746Y-73229786D01*
X111450000Y-73191749D01*
X111450000Y-71180251D01*
X111453746Y-71142214D01*
X111463051Y-71111539D01*
X111478161Y-71083271D01*
X111498494Y-71058494D01*
X111523271Y-71038161D01*
X111551539Y-71023051D01*
X111582214Y-71013746D01*
X111620251Y-71010000D01*
X113931749Y-71010000D01*
X113969786Y-71013746D01*
G37*
G36*
X108027786Y-70686746D02*
G01*
X108058461Y-70696051D01*
X108086729Y-70711161D01*
X108111506Y-70731494D01*
X108131839Y-70756271D01*
X108146949Y-70784539D01*
X108156254Y-70815214D01*
X108160000Y-70853251D01*
X108160000Y-73164749D01*
X108156254Y-73202786D01*
X108146949Y-73233461D01*
X108131839Y-73261729D01*
X108111506Y-73286506D01*
X108086729Y-73306839D01*
X108058461Y-73321949D01*
X108027786Y-73331254D01*
X107989749Y-73335000D01*
X105978251Y-73335000D01*
X105940214Y-73331254D01*
X105909539Y-73321949D01*
X105881271Y-73306839D01*
X105856494Y-73286506D01*
X105836161Y-73261729D01*
X105821051Y-73233461D01*
X105811746Y-73202786D01*
X105808000Y-73164749D01*
X105808000Y-70853251D01*
X105811746Y-70815214D01*
X105821051Y-70784539D01*
X105836161Y-70756271D01*
X105856494Y-70731494D01*
X105881271Y-70711161D01*
X105909539Y-70696051D01*
X105940214Y-70686746D01*
X105978251Y-70683000D01*
X107989749Y-70683000D01*
X108027786Y-70686746D01*
G37*
G36*
X101627786Y-70686746D02*
G01*
X101658461Y-70696051D01*
X101686729Y-70711161D01*
X101711506Y-70731494D01*
X101731839Y-70756271D01*
X101746949Y-70784539D01*
X101756254Y-70815214D01*
X101760000Y-70853251D01*
X101760000Y-73164749D01*
X101756254Y-73202786D01*
X101746949Y-73233461D01*
X101731839Y-73261729D01*
X101711506Y-73286506D01*
X101686729Y-73306839D01*
X101658461Y-73321949D01*
X101627786Y-73331254D01*
X101589749Y-73335000D01*
X99578251Y-73335000D01*
X99540214Y-73331254D01*
X99509539Y-73321949D01*
X99481271Y-73306839D01*
X99456494Y-73286506D01*
X99436161Y-73261729D01*
X99421051Y-73233461D01*
X99411746Y-73202786D01*
X99408000Y-73164749D01*
X99408000Y-70853251D01*
X99411746Y-70815214D01*
X99421051Y-70784539D01*
X99436161Y-70756271D01*
X99456494Y-70731494D01*
X99481271Y-70711161D01*
X99509539Y-70696051D01*
X99540214Y-70686746D01*
X99578251Y-70683000D01*
X101589749Y-70683000D01*
X101627786Y-70686746D01*
G37*
G36*
X80426670Y-71416303D02*
G01*
X80438375Y-71419854D01*
X80449165Y-71425621D01*
X80463188Y-71437130D01*
X80472204Y-71446145D01*
X80492578Y-71459759D01*
X80515217Y-71469135D01*
X80539251Y-71473915D01*
X80563755Y-71473915D01*
X80587788Y-71469134D01*
X80610426Y-71459756D01*
X80630801Y-71446142D01*
X80639817Y-71437126D01*
X80653835Y-71425621D01*
X80664625Y-71419854D01*
X80676330Y-71416303D01*
X80694638Y-71414500D01*
X81058362Y-71414500D01*
X81076670Y-71416303D01*
X81088375Y-71419854D01*
X81099165Y-71425621D01*
X81113188Y-71437130D01*
X81122204Y-71446145D01*
X81142578Y-71459759D01*
X81165217Y-71469135D01*
X81189251Y-71473915D01*
X81213755Y-71473915D01*
X81237788Y-71469134D01*
X81260426Y-71459756D01*
X81280801Y-71446142D01*
X81289817Y-71437126D01*
X81303835Y-71425621D01*
X81314625Y-71419854D01*
X81326330Y-71416303D01*
X81344638Y-71414500D01*
X81708362Y-71414500D01*
X81726670Y-71416303D01*
X81738375Y-71419854D01*
X81749165Y-71425621D01*
X81763188Y-71437130D01*
X81772204Y-71446145D01*
X81792578Y-71459759D01*
X81815217Y-71469135D01*
X81839251Y-71473915D01*
X81863755Y-71473915D01*
X81887788Y-71469134D01*
X81910426Y-71459756D01*
X81930801Y-71446142D01*
X81939817Y-71437126D01*
X81953835Y-71425621D01*
X81964625Y-71419854D01*
X81976330Y-71416303D01*
X81994638Y-71414500D01*
X82358362Y-71414500D01*
X82376670Y-71416303D01*
X82388375Y-71419854D01*
X82399165Y-71425621D01*
X82413188Y-71437130D01*
X82422204Y-71446145D01*
X82442578Y-71459759D01*
X82465217Y-71469135D01*
X82489251Y-71473915D01*
X82513755Y-71473915D01*
X82537788Y-71469134D01*
X82560426Y-71459756D01*
X82580801Y-71446142D01*
X82589817Y-71437126D01*
X82603835Y-71425621D01*
X82614625Y-71419854D01*
X82626330Y-71416303D01*
X82644638Y-71414500D01*
X83008362Y-71414500D01*
X83026670Y-71416303D01*
X83038375Y-71419854D01*
X83049165Y-71425621D01*
X83063188Y-71437130D01*
X83072204Y-71446145D01*
X83092578Y-71459759D01*
X83115217Y-71469135D01*
X83139251Y-71473915D01*
X83163755Y-71473915D01*
X83187788Y-71469134D01*
X83210426Y-71459756D01*
X83230801Y-71446142D01*
X83239817Y-71437126D01*
X83253835Y-71425621D01*
X83264625Y-71419854D01*
X83276330Y-71416303D01*
X83294638Y-71414500D01*
X83658362Y-71414500D01*
X83676670Y-71416303D01*
X83688375Y-71419854D01*
X83699165Y-71425621D01*
X83708619Y-71433381D01*
X83716379Y-71442835D01*
X83722146Y-71453625D01*
X83725697Y-71465330D01*
X83727500Y-71483638D01*
X83727500Y-72897362D01*
X83725697Y-72915670D01*
X83722146Y-72927375D01*
X83716379Y-72938165D01*
X83708619Y-72947619D01*
X83699165Y-72955379D01*
X83688375Y-72961146D01*
X83676670Y-72964697D01*
X83658362Y-72966500D01*
X83294638Y-72966500D01*
X83276330Y-72964697D01*
X83264625Y-72961146D01*
X83253835Y-72955379D01*
X83239812Y-72943870D01*
X83230796Y-72934855D01*
X83210422Y-72921241D01*
X83187783Y-72911865D01*
X83163749Y-72907085D01*
X83139245Y-72907085D01*
X83115212Y-72911866D01*
X83092574Y-72921244D01*
X83072199Y-72934858D01*
X83063183Y-72943874D01*
X83049165Y-72955379D01*
X83038375Y-72961146D01*
X83026670Y-72964697D01*
X83008362Y-72966500D01*
X82644638Y-72966500D01*
X82626330Y-72964697D01*
X82614625Y-72961146D01*
X82603835Y-72955379D01*
X82589812Y-72943870D01*
X82580796Y-72934855D01*
X82560422Y-72921241D01*
X82537783Y-72911865D01*
X82513749Y-72907085D01*
X82489245Y-72907085D01*
X82465212Y-72911866D01*
X82442574Y-72921244D01*
X82422199Y-72934858D01*
X82413183Y-72943874D01*
X82399165Y-72955379D01*
X82388375Y-72961146D01*
X82376670Y-72964697D01*
X82358362Y-72966500D01*
X81994638Y-72966500D01*
X81976330Y-72964697D01*
X81964625Y-72961146D01*
X81953835Y-72955379D01*
X81939812Y-72943870D01*
X81930796Y-72934855D01*
X81910422Y-72921241D01*
X81887783Y-72911865D01*
X81863749Y-72907085D01*
X81839245Y-72907085D01*
X81815212Y-72911866D01*
X81792574Y-72921244D01*
X81772199Y-72934858D01*
X81763183Y-72943874D01*
X81749165Y-72955379D01*
X81738375Y-72961146D01*
X81726670Y-72964697D01*
X81708362Y-72966500D01*
X81344638Y-72966500D01*
X81326330Y-72964697D01*
X81314625Y-72961146D01*
X81303835Y-72955379D01*
X81289812Y-72943870D01*
X81280796Y-72934855D01*
X81260422Y-72921241D01*
X81237783Y-72911865D01*
X81213749Y-72907085D01*
X81189245Y-72907085D01*
X81165212Y-72911866D01*
X81142574Y-72921244D01*
X81122199Y-72934858D01*
X81113183Y-72943874D01*
X81099165Y-72955379D01*
X81088375Y-72961146D01*
X81076670Y-72964697D01*
X81058362Y-72966500D01*
X80694638Y-72966500D01*
X80676330Y-72964697D01*
X80664625Y-72961146D01*
X80653835Y-72955379D01*
X80639812Y-72943870D01*
X80630796Y-72934855D01*
X80610422Y-72921241D01*
X80587783Y-72911865D01*
X80563749Y-72907085D01*
X80539245Y-72907085D01*
X80515212Y-72911866D01*
X80492574Y-72921244D01*
X80472199Y-72934858D01*
X80463183Y-72943874D01*
X80449165Y-72955379D01*
X80438375Y-72961146D01*
X80426670Y-72964697D01*
X80408362Y-72966500D01*
X80044638Y-72966500D01*
X80026330Y-72964697D01*
X80014625Y-72961146D01*
X80003835Y-72955379D01*
X79994381Y-72947619D01*
X79986621Y-72938165D01*
X79980854Y-72927375D01*
X79977303Y-72915670D01*
X79975500Y-72897362D01*
X79975500Y-71483638D01*
X79977303Y-71465330D01*
X79980854Y-71453625D01*
X79986621Y-71442835D01*
X79994381Y-71433381D01*
X80003835Y-71425621D01*
X80014625Y-71419854D01*
X80026330Y-71416303D01*
X80044638Y-71414500D01*
X80408362Y-71414500D01*
X80426670Y-71416303D01*
G37*
G36*
X94267499Y-70725445D02*
G01*
X94304995Y-70736820D01*
X94339554Y-70755292D01*
X94369847Y-70780153D01*
X94394708Y-70810446D01*
X94413180Y-70845005D01*
X94424555Y-70882501D01*
X94429000Y-70927638D01*
X94429000Y-71566362D01*
X94424555Y-71611499D01*
X94413180Y-71648995D01*
X94394708Y-71683554D01*
X94369847Y-71713847D01*
X94339554Y-71738708D01*
X94304995Y-71757180D01*
X94267499Y-71768555D01*
X94222362Y-71773000D01*
X93483638Y-71773000D01*
X93438501Y-71768555D01*
X93401005Y-71757180D01*
X93366446Y-71738708D01*
X93336153Y-71713847D01*
X93311292Y-71683554D01*
X93292820Y-71648995D01*
X93281445Y-71611499D01*
X93277000Y-71566362D01*
X93277000Y-70927638D01*
X93281445Y-70882501D01*
X93292820Y-70845005D01*
X93311292Y-70810446D01*
X93336153Y-70780153D01*
X93366446Y-70755292D01*
X93401005Y-70736820D01*
X93438501Y-70725445D01*
X93483638Y-70721000D01*
X94222362Y-70721000D01*
X94267499Y-70725445D01*
G37*
G36*
X96017499Y-70725445D02*
G01*
X96054995Y-70736820D01*
X96089554Y-70755292D01*
X96119847Y-70780153D01*
X96144708Y-70810446D01*
X96163180Y-70845005D01*
X96174555Y-70882501D01*
X96179000Y-70927638D01*
X96179000Y-71566362D01*
X96174555Y-71611499D01*
X96163180Y-71648995D01*
X96144708Y-71683554D01*
X96119847Y-71713847D01*
X96089554Y-71738708D01*
X96054995Y-71757180D01*
X96017499Y-71768555D01*
X95972362Y-71773000D01*
X95233638Y-71773000D01*
X95188501Y-71768555D01*
X95151005Y-71757180D01*
X95116446Y-71738708D01*
X95086153Y-71713847D01*
X95061292Y-71683554D01*
X95042820Y-71648995D01*
X95031445Y-71611499D01*
X95027000Y-71566362D01*
X95027000Y-70927638D01*
X95031445Y-70882501D01*
X95042820Y-70845005D01*
X95061292Y-70810446D01*
X95086153Y-70780153D01*
X95116446Y-70755292D01*
X95151005Y-70736820D01*
X95188501Y-70725445D01*
X95233638Y-70721000D01*
X95972362Y-70721000D01*
X96017499Y-70725445D01*
G37*
G36*
X86373562Y-70170181D02*
G01*
X86408481Y-70180774D01*
X86440663Y-70197976D01*
X86468873Y-70221127D01*
X86492024Y-70249337D01*
X86509226Y-70281519D01*
X86519819Y-70316438D01*
X86524000Y-70358895D01*
X86524000Y-71500105D01*
X86519819Y-71542562D01*
X86509226Y-71577481D01*
X86492024Y-71609663D01*
X86468873Y-71637873D01*
X86440663Y-71661024D01*
X86408481Y-71678226D01*
X86373562Y-71688819D01*
X86331105Y-71693000D01*
X84864895Y-71693000D01*
X84822438Y-71688819D01*
X84787519Y-71678226D01*
X84755337Y-71661024D01*
X84727127Y-71637873D01*
X84703976Y-71609663D01*
X84686774Y-71577481D01*
X84676181Y-71542562D01*
X84672000Y-71500105D01*
X84672000Y-70358895D01*
X84676181Y-70316438D01*
X84686774Y-70281519D01*
X84703976Y-70249337D01*
X84727127Y-70221127D01*
X84755337Y-70197976D01*
X84787519Y-70180774D01*
X84822438Y-70170181D01*
X84864895Y-70166000D01*
X86331105Y-70166000D01*
X86373562Y-70170181D01*
G37*
G36*
X83183839Y-69168519D02*
G01*
X83217181Y-69178634D01*
X83247906Y-69195057D01*
X83274840Y-69217160D01*
X83296943Y-69244094D01*
X83313366Y-69274819D01*
X83323481Y-69308161D01*
X83327500Y-69348971D01*
X83327500Y-70732029D01*
X83323481Y-70772839D01*
X83313366Y-70806181D01*
X83296943Y-70836906D01*
X83274840Y-70863840D01*
X83247906Y-70885943D01*
X83217181Y-70902366D01*
X83183839Y-70912481D01*
X83143029Y-70916500D01*
X80559971Y-70916500D01*
X80519161Y-70912481D01*
X80485819Y-70902366D01*
X80455094Y-70885943D01*
X80428160Y-70863840D01*
X80406057Y-70836906D01*
X80389634Y-70806181D01*
X80379519Y-70772839D01*
X80375500Y-70732029D01*
X80375500Y-69348971D01*
X80379519Y-69308161D01*
X80389634Y-69274819D01*
X80406057Y-69244094D01*
X80428160Y-69217160D01*
X80455094Y-69195057D01*
X80485819Y-69178634D01*
X80519161Y-69168519D01*
X80559971Y-69164500D01*
X83143029Y-69164500D01*
X83183839Y-69168519D01*
G37*
G36*
X95222170Y-68685803D02*
G01*
X95233875Y-68689354D01*
X95244665Y-68695121D01*
X95258688Y-68706630D01*
X95267704Y-68715645D01*
X95288078Y-68729259D01*
X95310717Y-68738635D01*
X95334751Y-68743415D01*
X95359255Y-68743415D01*
X95383288Y-68738634D01*
X95405926Y-68729256D01*
X95426301Y-68715642D01*
X95435317Y-68706626D01*
X95449335Y-68695121D01*
X95460125Y-68689354D01*
X95471830Y-68685803D01*
X95490138Y-68684000D01*
X95853862Y-68684000D01*
X95872170Y-68685803D01*
X95883875Y-68689354D01*
X95894665Y-68695121D01*
X95908688Y-68706630D01*
X95917704Y-68715645D01*
X95938078Y-68729259D01*
X95960717Y-68738635D01*
X95984751Y-68743415D01*
X96009255Y-68743415D01*
X96033288Y-68738634D01*
X96055926Y-68729256D01*
X96076301Y-68715642D01*
X96085317Y-68706626D01*
X96099335Y-68695121D01*
X96110125Y-68689354D01*
X96121830Y-68685803D01*
X96140138Y-68684000D01*
X96503862Y-68684000D01*
X96522170Y-68685803D01*
X96533875Y-68689354D01*
X96544665Y-68695121D01*
X96558688Y-68706630D01*
X96567704Y-68715645D01*
X96588078Y-68729259D01*
X96610717Y-68738635D01*
X96634751Y-68743415D01*
X96659255Y-68743415D01*
X96683288Y-68738634D01*
X96705926Y-68729256D01*
X96726301Y-68715642D01*
X96735317Y-68706626D01*
X96749335Y-68695121D01*
X96760125Y-68689354D01*
X96771830Y-68685803D01*
X96790138Y-68684000D01*
X97153862Y-68684000D01*
X97172170Y-68685803D01*
X97183875Y-68689354D01*
X97194665Y-68695121D01*
X97208688Y-68706630D01*
X97217704Y-68715645D01*
X97238078Y-68729259D01*
X97260717Y-68738635D01*
X97284751Y-68743415D01*
X97309255Y-68743415D01*
X97333288Y-68738634D01*
X97355926Y-68729256D01*
X97376301Y-68715642D01*
X97385317Y-68706626D01*
X97399335Y-68695121D01*
X97410125Y-68689354D01*
X97421830Y-68685803D01*
X97440138Y-68684000D01*
X97803862Y-68684000D01*
X97822170Y-68685803D01*
X97833875Y-68689354D01*
X97844665Y-68695121D01*
X97858688Y-68706630D01*
X97867704Y-68715645D01*
X97888078Y-68729259D01*
X97910717Y-68738635D01*
X97934751Y-68743415D01*
X97959255Y-68743415D01*
X97983288Y-68738634D01*
X98005926Y-68729256D01*
X98026301Y-68715642D01*
X98035317Y-68706626D01*
X98049335Y-68695121D01*
X98060125Y-68689354D01*
X98071830Y-68685803D01*
X98090138Y-68684000D01*
X98453862Y-68684000D01*
X98472170Y-68685803D01*
X98483875Y-68689354D01*
X98494665Y-68695121D01*
X98504119Y-68702881D01*
X98511879Y-68712335D01*
X98517646Y-68723125D01*
X98521197Y-68734830D01*
X98523000Y-68753138D01*
X98523000Y-70166862D01*
X98521197Y-70185170D01*
X98517646Y-70196875D01*
X98511879Y-70207665D01*
X98504119Y-70217119D01*
X98494665Y-70224879D01*
X98483875Y-70230646D01*
X98472170Y-70234197D01*
X98453862Y-70236000D01*
X98090138Y-70236000D01*
X98071830Y-70234197D01*
X98060125Y-70230646D01*
X98049335Y-70224879D01*
X98035312Y-70213370D01*
X98026296Y-70204355D01*
X98005922Y-70190741D01*
X97983283Y-70181365D01*
X97959249Y-70176585D01*
X97934745Y-70176585D01*
X97910712Y-70181366D01*
X97888074Y-70190744D01*
X97867699Y-70204358D01*
X97858683Y-70213374D01*
X97844665Y-70224879D01*
X97833875Y-70230646D01*
X97822170Y-70234197D01*
X97803862Y-70236000D01*
X97440138Y-70236000D01*
X97421830Y-70234197D01*
X97410125Y-70230646D01*
X97399335Y-70224879D01*
X97385312Y-70213370D01*
X97376296Y-70204355D01*
X97355922Y-70190741D01*
X97333283Y-70181365D01*
X97309249Y-70176585D01*
X97284745Y-70176585D01*
X97260712Y-70181366D01*
X97238074Y-70190744D01*
X97217699Y-70204358D01*
X97208683Y-70213374D01*
X97194665Y-70224879D01*
X97183875Y-70230646D01*
X97172170Y-70234197D01*
X97153862Y-70236000D01*
X96790138Y-70236000D01*
X96771830Y-70234197D01*
X96760125Y-70230646D01*
X96749335Y-70224879D01*
X96735312Y-70213370D01*
X96726296Y-70204355D01*
X96705922Y-70190741D01*
X96683283Y-70181365D01*
X96659249Y-70176585D01*
X96634745Y-70176585D01*
X96610712Y-70181366D01*
X96588074Y-70190744D01*
X96567699Y-70204358D01*
X96558683Y-70213374D01*
X96544665Y-70224879D01*
X96533875Y-70230646D01*
X96522170Y-70234197D01*
X96503862Y-70236000D01*
X96140138Y-70236000D01*
X96121830Y-70234197D01*
X96110125Y-70230646D01*
X96099335Y-70224879D01*
X96085312Y-70213370D01*
X96076296Y-70204355D01*
X96055922Y-70190741D01*
X96033283Y-70181365D01*
X96009249Y-70176585D01*
X95984745Y-70176585D01*
X95960712Y-70181366D01*
X95938074Y-70190744D01*
X95917699Y-70204358D01*
X95908683Y-70213374D01*
X95894665Y-70224879D01*
X95883875Y-70230646D01*
X95872170Y-70234197D01*
X95853862Y-70236000D01*
X95490138Y-70236000D01*
X95471830Y-70234197D01*
X95460125Y-70230646D01*
X95449335Y-70224879D01*
X95435312Y-70213370D01*
X95426296Y-70204355D01*
X95405922Y-70190741D01*
X95383283Y-70181365D01*
X95359249Y-70176585D01*
X95334745Y-70176585D01*
X95310712Y-70181366D01*
X95288074Y-70190744D01*
X95267699Y-70204358D01*
X95258683Y-70213374D01*
X95244665Y-70224879D01*
X95233875Y-70230646D01*
X95222170Y-70234197D01*
X95203862Y-70236000D01*
X94840138Y-70236000D01*
X94821830Y-70234197D01*
X94810125Y-70230646D01*
X94799335Y-70224879D01*
X94789881Y-70217119D01*
X94782121Y-70207665D01*
X94776354Y-70196875D01*
X94772803Y-70185170D01*
X94771000Y-70166862D01*
X94771000Y-68753138D01*
X94772803Y-68734830D01*
X94776354Y-68723125D01*
X94782121Y-68712335D01*
X94789881Y-68702881D01*
X94799335Y-68695121D01*
X94810125Y-68689354D01*
X94821830Y-68685803D01*
X94840138Y-68684000D01*
X95203862Y-68684000D01*
X95222170Y-68685803D01*
G37*
G36*
X86373562Y-68201681D02*
G01*
X86408481Y-68212274D01*
X86440663Y-68229476D01*
X86468873Y-68252627D01*
X86492024Y-68280837D01*
X86509226Y-68313019D01*
X86519819Y-68347938D01*
X86524000Y-68390395D01*
X86524000Y-69531605D01*
X86519819Y-69574062D01*
X86509226Y-69608981D01*
X86492024Y-69641163D01*
X86468873Y-69669373D01*
X86440663Y-69692524D01*
X86408481Y-69709726D01*
X86373562Y-69720319D01*
X86331105Y-69724500D01*
X84864895Y-69724500D01*
X84822438Y-69720319D01*
X84787519Y-69709726D01*
X84755337Y-69692524D01*
X84727127Y-69669373D01*
X84703976Y-69641163D01*
X84686774Y-69608981D01*
X84676181Y-69574062D01*
X84672000Y-69531605D01*
X84672000Y-68390395D01*
X84676181Y-68347938D01*
X84686774Y-68313019D01*
X84703976Y-68280837D01*
X84727127Y-68252627D01*
X84755337Y-68229476D01*
X84787519Y-68212274D01*
X84822438Y-68201681D01*
X84864895Y-68197500D01*
X86331105Y-68197500D01*
X86373562Y-68201681D01*
G37*
G36*
X103864062Y-67404181D02*
G01*
X103898981Y-67414774D01*
X103931163Y-67431976D01*
X103959373Y-67455127D01*
X103982524Y-67483337D01*
X103999726Y-67515519D01*
X104010319Y-67550438D01*
X104014500Y-67592895D01*
X104014500Y-69059105D01*
X104010319Y-69101562D01*
X103999726Y-69136481D01*
X103982524Y-69168663D01*
X103959373Y-69196873D01*
X103931163Y-69220024D01*
X103898981Y-69237226D01*
X103864062Y-69247819D01*
X103821605Y-69252000D01*
X102680395Y-69252000D01*
X102637938Y-69247819D01*
X102603019Y-69237226D01*
X102570837Y-69220024D01*
X102542627Y-69196873D01*
X102519476Y-69168663D01*
X102502274Y-69136481D01*
X102491681Y-69101562D01*
X102487500Y-69059105D01*
X102487500Y-67592895D01*
X102491681Y-67550438D01*
X102502274Y-67515519D01*
X102519476Y-67483337D01*
X102542627Y-67455127D01*
X102570837Y-67431976D01*
X102603019Y-67414774D01*
X102637938Y-67404181D01*
X102680395Y-67400000D01*
X103821605Y-67400000D01*
X103864062Y-67404181D01*
G37*
G36*
X100889062Y-67404181D02*
G01*
X100923981Y-67414774D01*
X100956163Y-67431976D01*
X100984373Y-67455127D01*
X101007524Y-67483337D01*
X101024726Y-67515519D01*
X101035319Y-67550438D01*
X101039500Y-67592895D01*
X101039500Y-69059105D01*
X101035319Y-69101562D01*
X101024726Y-69136481D01*
X101007524Y-69168663D01*
X100984373Y-69196873D01*
X100956163Y-69220024D01*
X100923981Y-69237226D01*
X100889062Y-69247819D01*
X100846605Y-69252000D01*
X99705395Y-69252000D01*
X99662938Y-69247819D01*
X99628019Y-69237226D01*
X99595837Y-69220024D01*
X99567627Y-69196873D01*
X99544476Y-69168663D01*
X99527274Y-69136481D01*
X99516681Y-69101562D01*
X99512500Y-69059105D01*
X99512500Y-67592895D01*
X99516681Y-67550438D01*
X99527274Y-67515519D01*
X99544476Y-67483337D01*
X99567627Y-67455127D01*
X99595837Y-67431976D01*
X99628019Y-67414774D01*
X99662938Y-67404181D01*
X99705395Y-67400000D01*
X100846605Y-67400000D01*
X100889062Y-67404181D01*
G37*
G36*
X89426905Y-65218789D02*
G01*
X89725350Y-65278153D01*
X90053122Y-65413921D01*
X90348109Y-65611025D01*
X90598975Y-65861891D01*
X90796079Y-66156878D01*
X90931847Y-66484650D01*
X90982697Y-66740292D01*
X90999126Y-66822885D01*
X91001060Y-66832611D01*
X91001060Y-67187389D01*
X90931847Y-67535350D01*
X90796079Y-67863122D01*
X90598975Y-68158109D01*
X90348109Y-68408975D01*
X90053122Y-68606079D01*
X89725350Y-68741847D01*
X89426905Y-68801211D01*
X89377390Y-68811060D01*
X89022610Y-68811060D01*
X88973095Y-68801211D01*
X88674650Y-68741847D01*
X88346878Y-68606079D01*
X88051891Y-68408975D01*
X87801025Y-68158109D01*
X87603921Y-67863122D01*
X87468153Y-67535350D01*
X87398940Y-67187389D01*
X87398940Y-66832611D01*
X87400875Y-66822885D01*
X87417303Y-66740292D01*
X87468153Y-66484650D01*
X87603921Y-66156878D01*
X87801025Y-65861891D01*
X88051891Y-65611025D01*
X88346878Y-65413921D01*
X88674650Y-65278153D01*
X88973095Y-65218789D01*
X89022610Y-65208940D01*
X89377390Y-65208940D01*
X89426905Y-65218789D01*
G37*
G36*
X80426670Y-67116303D02*
G01*
X80438375Y-67119854D01*
X80449165Y-67125621D01*
X80463188Y-67137130D01*
X80472204Y-67146145D01*
X80492578Y-67159759D01*
X80515217Y-67169135D01*
X80539251Y-67173915D01*
X80563755Y-67173915D01*
X80587788Y-67169134D01*
X80610426Y-67159756D01*
X80630801Y-67146142D01*
X80639817Y-67137126D01*
X80653835Y-67125621D01*
X80664625Y-67119854D01*
X80676330Y-67116303D01*
X80694638Y-67114500D01*
X81058362Y-67114500D01*
X81076670Y-67116303D01*
X81088375Y-67119854D01*
X81099165Y-67125621D01*
X81113188Y-67137130D01*
X81122204Y-67146145D01*
X81142578Y-67159759D01*
X81165217Y-67169135D01*
X81189251Y-67173915D01*
X81213755Y-67173915D01*
X81237788Y-67169134D01*
X81260426Y-67159756D01*
X81280801Y-67146142D01*
X81289817Y-67137126D01*
X81303835Y-67125621D01*
X81314625Y-67119854D01*
X81326330Y-67116303D01*
X81344638Y-67114500D01*
X81708362Y-67114500D01*
X81726670Y-67116303D01*
X81738375Y-67119854D01*
X81749165Y-67125621D01*
X81763188Y-67137130D01*
X81772204Y-67146145D01*
X81792578Y-67159759D01*
X81815217Y-67169135D01*
X81839251Y-67173915D01*
X81863755Y-67173915D01*
X81887788Y-67169134D01*
X81910426Y-67159756D01*
X81930801Y-67146142D01*
X81939817Y-67137126D01*
X81953835Y-67125621D01*
X81964625Y-67119854D01*
X81976330Y-67116303D01*
X81994638Y-67114500D01*
X82358362Y-67114500D01*
X82376670Y-67116303D01*
X82388375Y-67119854D01*
X82399165Y-67125621D01*
X82413188Y-67137130D01*
X82422204Y-67146145D01*
X82442578Y-67159759D01*
X82465217Y-67169135D01*
X82489251Y-67173915D01*
X82513755Y-67173915D01*
X82537788Y-67169134D01*
X82560426Y-67159756D01*
X82580801Y-67146142D01*
X82589817Y-67137126D01*
X82603835Y-67125621D01*
X82614625Y-67119854D01*
X82626330Y-67116303D01*
X82644638Y-67114500D01*
X83008362Y-67114500D01*
X83026670Y-67116303D01*
X83038375Y-67119854D01*
X83049165Y-67125621D01*
X83063188Y-67137130D01*
X83072204Y-67146145D01*
X83092578Y-67159759D01*
X83115217Y-67169135D01*
X83139251Y-67173915D01*
X83163755Y-67173915D01*
X83187788Y-67169134D01*
X83210426Y-67159756D01*
X83230801Y-67146142D01*
X83239817Y-67137126D01*
X83253835Y-67125621D01*
X83264625Y-67119854D01*
X83276330Y-67116303D01*
X83294638Y-67114500D01*
X83658362Y-67114500D01*
X83676670Y-67116303D01*
X83688375Y-67119854D01*
X83699165Y-67125621D01*
X83708619Y-67133381D01*
X83716379Y-67142835D01*
X83722146Y-67153625D01*
X83725697Y-67165330D01*
X83727500Y-67183638D01*
X83727500Y-68597362D01*
X83725697Y-68615670D01*
X83722146Y-68627375D01*
X83716379Y-68638165D01*
X83708619Y-68647619D01*
X83699165Y-68655379D01*
X83688375Y-68661146D01*
X83676670Y-68664697D01*
X83658362Y-68666500D01*
X83294638Y-68666500D01*
X83276330Y-68664697D01*
X83264625Y-68661146D01*
X83253835Y-68655379D01*
X83239812Y-68643870D01*
X83230796Y-68634855D01*
X83210422Y-68621241D01*
X83187783Y-68611865D01*
X83163749Y-68607085D01*
X83139245Y-68607085D01*
X83115212Y-68611866D01*
X83092574Y-68621244D01*
X83072199Y-68634858D01*
X83063183Y-68643874D01*
X83049165Y-68655379D01*
X83038375Y-68661146D01*
X83026670Y-68664697D01*
X83008362Y-68666500D01*
X82644638Y-68666500D01*
X82626330Y-68664697D01*
X82614625Y-68661146D01*
X82603835Y-68655379D01*
X82589812Y-68643870D01*
X82580796Y-68634855D01*
X82560422Y-68621241D01*
X82537783Y-68611865D01*
X82513749Y-68607085D01*
X82489245Y-68607085D01*
X82465212Y-68611866D01*
X82442574Y-68621244D01*
X82422199Y-68634858D01*
X82413183Y-68643874D01*
X82399165Y-68655379D01*
X82388375Y-68661146D01*
X82376670Y-68664697D01*
X82358362Y-68666500D01*
X81994638Y-68666500D01*
X81976330Y-68664697D01*
X81964625Y-68661146D01*
X81953835Y-68655379D01*
X81939812Y-68643870D01*
X81930796Y-68634855D01*
X81910422Y-68621241D01*
X81887783Y-68611865D01*
X81863749Y-68607085D01*
X81839245Y-68607085D01*
X81815212Y-68611866D01*
X81792574Y-68621244D01*
X81772199Y-68634858D01*
X81763183Y-68643874D01*
X81749165Y-68655379D01*
X81738375Y-68661146D01*
X81726670Y-68664697D01*
X81708362Y-68666500D01*
X81344638Y-68666500D01*
X81326330Y-68664697D01*
X81314625Y-68661146D01*
X81303835Y-68655379D01*
X81289812Y-68643870D01*
X81280796Y-68634855D01*
X81260422Y-68621241D01*
X81237783Y-68611865D01*
X81213749Y-68607085D01*
X81189245Y-68607085D01*
X81165212Y-68611866D01*
X81142574Y-68621244D01*
X81122199Y-68634858D01*
X81113183Y-68643874D01*
X81099165Y-68655379D01*
X81088375Y-68661146D01*
X81076670Y-68664697D01*
X81058362Y-68666500D01*
X80694638Y-68666500D01*
X80676330Y-68664697D01*
X80664625Y-68661146D01*
X80653835Y-68655379D01*
X80639812Y-68643870D01*
X80630796Y-68634855D01*
X80610422Y-68621241D01*
X80587783Y-68611865D01*
X80563749Y-68607085D01*
X80539245Y-68607085D01*
X80515212Y-68611866D01*
X80492574Y-68621244D01*
X80472199Y-68634858D01*
X80463183Y-68643874D01*
X80449165Y-68655379D01*
X80438375Y-68661146D01*
X80426670Y-68664697D01*
X80408362Y-68666500D01*
X80044638Y-68666500D01*
X80026330Y-68664697D01*
X80014625Y-68661146D01*
X80003835Y-68655379D01*
X79994381Y-68647619D01*
X79986621Y-68638165D01*
X79980854Y-68627375D01*
X79977303Y-68615670D01*
X79975500Y-68597362D01*
X79975500Y-67183638D01*
X79977303Y-67165330D01*
X79980854Y-67153625D01*
X79986621Y-67142835D01*
X79994381Y-67133381D01*
X80003835Y-67125621D01*
X80014625Y-67119854D01*
X80026330Y-67116303D01*
X80044638Y-67114500D01*
X80408362Y-67114500D01*
X80426670Y-67116303D01*
G37*
G36*
X97979339Y-66438019D02*
G01*
X98012681Y-66448134D01*
X98043406Y-66464557D01*
X98070340Y-66486660D01*
X98092443Y-66513594D01*
X98108866Y-66544319D01*
X98118981Y-66577661D01*
X98123000Y-66618471D01*
X98123000Y-68001529D01*
X98118981Y-68042339D01*
X98108866Y-68075681D01*
X98092443Y-68106406D01*
X98070340Y-68133340D01*
X98043406Y-68155443D01*
X98012681Y-68171866D01*
X97979339Y-68181981D01*
X97938529Y-68186000D01*
X95355471Y-68186000D01*
X95314661Y-68181981D01*
X95281319Y-68171866D01*
X95250594Y-68155443D01*
X95223660Y-68133340D01*
X95201557Y-68106406D01*
X95185134Y-68075681D01*
X95175019Y-68042339D01*
X95171000Y-68001529D01*
X95171000Y-66618471D01*
X95175019Y-66577661D01*
X95185134Y-66544319D01*
X95201557Y-66513594D01*
X95223660Y-66486660D01*
X95250594Y-66464557D01*
X95281319Y-66448134D01*
X95314661Y-66438019D01*
X95355471Y-66434000D01*
X97938529Y-66434000D01*
X97979339Y-66438019D01*
G37*
G36*
X92693499Y-66710445D02*
G01*
X92730995Y-66721820D01*
X92765554Y-66740292D01*
X92795847Y-66765153D01*
X92820708Y-66795446D01*
X92839180Y-66830005D01*
X92850555Y-66867501D01*
X92855000Y-66912638D01*
X92855000Y-67651362D01*
X92850555Y-67696499D01*
X92839180Y-67733995D01*
X92820708Y-67768554D01*
X92795847Y-67798847D01*
X92765554Y-67823708D01*
X92730995Y-67842180D01*
X92693499Y-67853555D01*
X92648362Y-67858000D01*
X92009638Y-67858000D01*
X91964501Y-67853555D01*
X91927005Y-67842180D01*
X91892446Y-67823708D01*
X91862153Y-67798847D01*
X91837292Y-67768554D01*
X91818820Y-67733995D01*
X91807445Y-67696499D01*
X91803000Y-67651362D01*
X91803000Y-66912638D01*
X91807445Y-66867501D01*
X91818820Y-66830005D01*
X91837292Y-66795446D01*
X91862153Y-66765153D01*
X91892446Y-66740292D01*
X91927005Y-66721820D01*
X91964501Y-66710445D01*
X92009638Y-66706000D01*
X92648362Y-66706000D01*
X92693499Y-66710445D01*
G37*
G36*
X113969786Y-64613746D02*
G01*
X114000461Y-64623051D01*
X114028729Y-64638161D01*
X114053506Y-64658494D01*
X114073839Y-64683271D01*
X114088949Y-64711539D01*
X114098254Y-64742214D01*
X114102000Y-64780251D01*
X114102000Y-66791749D01*
X114098254Y-66829786D01*
X114088949Y-66860461D01*
X114073839Y-66888729D01*
X114053506Y-66913506D01*
X114028729Y-66933839D01*
X114000461Y-66948949D01*
X113969786Y-66958254D01*
X113931749Y-66962000D01*
X111620251Y-66962000D01*
X111582214Y-66958254D01*
X111551539Y-66948949D01*
X111523271Y-66933839D01*
X111498494Y-66913506D01*
X111478161Y-66888729D01*
X111463051Y-66860461D01*
X111453746Y-66829786D01*
X111450000Y-66791749D01*
X111450000Y-64780251D01*
X111453746Y-64742214D01*
X111463051Y-64711539D01*
X111478161Y-64683271D01*
X111498494Y-64658494D01*
X111523271Y-64638161D01*
X111551539Y-64623051D01*
X111582214Y-64613746D01*
X111620251Y-64610000D01*
X113931749Y-64610000D01*
X113969786Y-64613746D01*
G37*
G36*
X86373562Y-65226681D02*
G01*
X86408481Y-65237274D01*
X86440663Y-65254476D01*
X86468873Y-65277627D01*
X86492024Y-65305837D01*
X86509226Y-65338019D01*
X86519819Y-65372938D01*
X86524000Y-65415395D01*
X86524000Y-66556605D01*
X86519819Y-66599062D01*
X86509226Y-66633981D01*
X86492024Y-66666163D01*
X86468873Y-66694373D01*
X86440663Y-66717524D01*
X86408481Y-66734726D01*
X86373562Y-66745319D01*
X86331105Y-66749500D01*
X84864895Y-66749500D01*
X84822438Y-66745319D01*
X84787519Y-66734726D01*
X84755337Y-66717524D01*
X84727127Y-66694373D01*
X84703976Y-66666163D01*
X84686774Y-66633981D01*
X84676181Y-66599062D01*
X84672000Y-66556605D01*
X84672000Y-65415395D01*
X84676181Y-65372938D01*
X84686774Y-65338019D01*
X84703976Y-65305837D01*
X84727127Y-65277627D01*
X84755337Y-65254476D01*
X84787519Y-65237274D01*
X84822438Y-65226681D01*
X84864895Y-65222500D01*
X86331105Y-65222500D01*
X86373562Y-65226681D01*
G37*
G36*
X103864062Y-64610181D02*
G01*
X103898981Y-64620774D01*
X103931163Y-64637976D01*
X103959373Y-64661127D01*
X103982524Y-64689337D01*
X103999726Y-64721519D01*
X104010319Y-64756438D01*
X104014500Y-64798895D01*
X104014500Y-66265105D01*
X104010319Y-66307562D01*
X103999726Y-66342481D01*
X103982524Y-66374663D01*
X103959373Y-66402873D01*
X103931163Y-66426024D01*
X103898981Y-66443226D01*
X103864062Y-66453819D01*
X103821605Y-66458000D01*
X102680395Y-66458000D01*
X102637938Y-66453819D01*
X102603019Y-66443226D01*
X102570837Y-66426024D01*
X102542627Y-66402873D01*
X102519476Y-66374663D01*
X102502274Y-66342481D01*
X102491681Y-66307562D01*
X102487500Y-66265105D01*
X102487500Y-64798895D01*
X102491681Y-64756438D01*
X102502274Y-64721519D01*
X102519476Y-64689337D01*
X102542627Y-64661127D01*
X102570837Y-64637976D01*
X102603019Y-64620774D01*
X102637938Y-64610181D01*
X102680395Y-64606000D01*
X103821605Y-64606000D01*
X103864062Y-64610181D01*
G37*
G36*
X100889062Y-64610181D02*
G01*
X100923981Y-64620774D01*
X100956163Y-64637976D01*
X100984373Y-64661127D01*
X101007524Y-64689337D01*
X101024726Y-64721519D01*
X101035319Y-64756438D01*
X101039500Y-64798895D01*
X101039500Y-66265105D01*
X101035319Y-66307562D01*
X101024726Y-66342481D01*
X101007524Y-66374663D01*
X100984373Y-66402873D01*
X100956163Y-66426024D01*
X100923981Y-66443226D01*
X100889062Y-66453819D01*
X100846605Y-66458000D01*
X99705395Y-66458000D01*
X99662938Y-66453819D01*
X99628019Y-66443226D01*
X99595837Y-66426024D01*
X99567627Y-66402873D01*
X99544476Y-66374663D01*
X99527274Y-66342481D01*
X99516681Y-66307562D01*
X99512500Y-66265105D01*
X99512500Y-64798895D01*
X99516681Y-64756438D01*
X99527274Y-64721519D01*
X99544476Y-64689337D01*
X99567627Y-64661127D01*
X99595837Y-64637976D01*
X99628019Y-64620774D01*
X99662938Y-64610181D01*
X99705395Y-64606000D01*
X100846605Y-64606000D01*
X100889062Y-64610181D01*
G37*
G36*
X92693499Y-64960445D02*
G01*
X92730995Y-64971820D01*
X92765554Y-64990292D01*
X92795847Y-65015153D01*
X92820708Y-65045446D01*
X92839180Y-65080005D01*
X92850555Y-65117501D01*
X92855000Y-65162638D01*
X92855000Y-65901362D01*
X92850555Y-65946499D01*
X92839180Y-65983995D01*
X92820708Y-66018554D01*
X92795847Y-66048847D01*
X92765554Y-66073708D01*
X92730995Y-66092180D01*
X92693499Y-66103555D01*
X92648362Y-66108000D01*
X92009638Y-66108000D01*
X91964501Y-66103555D01*
X91927005Y-66092180D01*
X91892446Y-66073708D01*
X91862153Y-66048847D01*
X91837292Y-66018554D01*
X91818820Y-65983995D01*
X91807445Y-65946499D01*
X91803000Y-65901362D01*
X91803000Y-65162638D01*
X91807445Y-65117501D01*
X91818820Y-65080005D01*
X91837292Y-65045446D01*
X91862153Y-65015153D01*
X91892446Y-64990292D01*
X91927005Y-64971820D01*
X91964501Y-64960445D01*
X92009638Y-64956000D01*
X92648362Y-64956000D01*
X92693499Y-64960445D01*
G37*
G36*
X95222170Y-64385803D02*
G01*
X95233875Y-64389354D01*
X95244665Y-64395121D01*
X95258688Y-64406630D01*
X95267704Y-64415645D01*
X95288078Y-64429259D01*
X95310717Y-64438635D01*
X95334751Y-64443415D01*
X95359255Y-64443415D01*
X95383288Y-64438634D01*
X95405926Y-64429256D01*
X95426301Y-64415642D01*
X95435317Y-64406626D01*
X95449335Y-64395121D01*
X95460125Y-64389354D01*
X95471830Y-64385803D01*
X95490138Y-64384000D01*
X95853862Y-64384000D01*
X95872170Y-64385803D01*
X95883875Y-64389354D01*
X95894665Y-64395121D01*
X95908688Y-64406630D01*
X95917704Y-64415645D01*
X95938078Y-64429259D01*
X95960717Y-64438635D01*
X95984751Y-64443415D01*
X96009255Y-64443415D01*
X96033288Y-64438634D01*
X96055926Y-64429256D01*
X96076301Y-64415642D01*
X96085317Y-64406626D01*
X96099335Y-64395121D01*
X96110125Y-64389354D01*
X96121830Y-64385803D01*
X96140138Y-64384000D01*
X96503862Y-64384000D01*
X96522170Y-64385803D01*
X96533875Y-64389354D01*
X96544665Y-64395121D01*
X96558688Y-64406630D01*
X96567704Y-64415645D01*
X96588078Y-64429259D01*
X96610717Y-64438635D01*
X96634751Y-64443415D01*
X96659255Y-64443415D01*
X96683288Y-64438634D01*
X96705926Y-64429256D01*
X96726301Y-64415642D01*
X96735317Y-64406626D01*
X96749335Y-64395121D01*
X96760125Y-64389354D01*
X96771830Y-64385803D01*
X96790138Y-64384000D01*
X97153862Y-64384000D01*
X97172170Y-64385803D01*
X97183875Y-64389354D01*
X97194665Y-64395121D01*
X97208688Y-64406630D01*
X97217704Y-64415645D01*
X97238078Y-64429259D01*
X97260717Y-64438635D01*
X97284751Y-64443415D01*
X97309255Y-64443415D01*
X97333288Y-64438634D01*
X97355926Y-64429256D01*
X97376301Y-64415642D01*
X97385317Y-64406626D01*
X97399335Y-64395121D01*
X97410125Y-64389354D01*
X97421830Y-64385803D01*
X97440138Y-64384000D01*
X97803862Y-64384000D01*
X97822170Y-64385803D01*
X97833875Y-64389354D01*
X97844665Y-64395121D01*
X97858688Y-64406630D01*
X97867704Y-64415645D01*
X97888078Y-64429259D01*
X97910717Y-64438635D01*
X97934751Y-64443415D01*
X97959255Y-64443415D01*
X97983288Y-64438634D01*
X98005926Y-64429256D01*
X98026301Y-64415642D01*
X98035317Y-64406626D01*
X98049335Y-64395121D01*
X98060125Y-64389354D01*
X98071830Y-64385803D01*
X98090138Y-64384000D01*
X98453862Y-64384000D01*
X98472170Y-64385803D01*
X98483875Y-64389354D01*
X98494665Y-64395121D01*
X98504119Y-64402881D01*
X98511879Y-64412335D01*
X98517646Y-64423125D01*
X98521197Y-64434830D01*
X98523000Y-64453138D01*
X98523000Y-65866862D01*
X98521197Y-65885170D01*
X98517646Y-65896875D01*
X98511879Y-65907665D01*
X98504119Y-65917119D01*
X98494665Y-65924879D01*
X98483875Y-65930646D01*
X98472170Y-65934197D01*
X98453862Y-65936000D01*
X98090138Y-65936000D01*
X98071830Y-65934197D01*
X98060125Y-65930646D01*
X98049335Y-65924879D01*
X98035312Y-65913370D01*
X98026296Y-65904355D01*
X98005922Y-65890741D01*
X97983283Y-65881365D01*
X97959249Y-65876585D01*
X97934745Y-65876585D01*
X97910712Y-65881366D01*
X97888074Y-65890744D01*
X97867699Y-65904358D01*
X97858683Y-65913374D01*
X97844665Y-65924879D01*
X97833875Y-65930646D01*
X97822170Y-65934197D01*
X97803862Y-65936000D01*
X97440138Y-65936000D01*
X97421830Y-65934197D01*
X97410125Y-65930646D01*
X97399335Y-65924879D01*
X97385312Y-65913370D01*
X97376296Y-65904355D01*
X97355922Y-65890741D01*
X97333283Y-65881365D01*
X97309249Y-65876585D01*
X97284745Y-65876585D01*
X97260712Y-65881366D01*
X97238074Y-65890744D01*
X97217699Y-65904358D01*
X97208683Y-65913374D01*
X97194665Y-65924879D01*
X97183875Y-65930646D01*
X97172170Y-65934197D01*
X97153862Y-65936000D01*
X96790138Y-65936000D01*
X96771830Y-65934197D01*
X96760125Y-65930646D01*
X96749335Y-65924879D01*
X96735312Y-65913370D01*
X96726296Y-65904355D01*
X96705922Y-65890741D01*
X96683283Y-65881365D01*
X96659249Y-65876585D01*
X96634745Y-65876585D01*
X96610712Y-65881366D01*
X96588074Y-65890744D01*
X96567699Y-65904358D01*
X96558683Y-65913374D01*
X96544665Y-65924879D01*
X96533875Y-65930646D01*
X96522170Y-65934197D01*
X96503862Y-65936000D01*
X96140138Y-65936000D01*
X96121830Y-65934197D01*
X96110125Y-65930646D01*
X96099335Y-65924879D01*
X96085312Y-65913370D01*
X96076296Y-65904355D01*
X96055922Y-65890741D01*
X96033283Y-65881365D01*
X96009249Y-65876585D01*
X95984745Y-65876585D01*
X95960712Y-65881366D01*
X95938074Y-65890744D01*
X95917699Y-65904358D01*
X95908683Y-65913374D01*
X95894665Y-65924879D01*
X95883875Y-65930646D01*
X95872170Y-65934197D01*
X95853862Y-65936000D01*
X95490138Y-65936000D01*
X95471830Y-65934197D01*
X95460125Y-65930646D01*
X95449335Y-65924879D01*
X95435312Y-65913370D01*
X95426296Y-65904355D01*
X95405922Y-65890741D01*
X95383283Y-65881365D01*
X95359249Y-65876585D01*
X95334745Y-65876585D01*
X95310712Y-65881366D01*
X95288074Y-65890744D01*
X95267699Y-65904358D01*
X95258683Y-65913374D01*
X95244665Y-65924879D01*
X95233875Y-65930646D01*
X95222170Y-65934197D01*
X95203862Y-65936000D01*
X94840138Y-65936000D01*
X94821830Y-65934197D01*
X94810125Y-65930646D01*
X94799335Y-65924879D01*
X94789881Y-65917119D01*
X94782121Y-65907665D01*
X94776354Y-65896875D01*
X94772803Y-65885170D01*
X94771000Y-65866862D01*
X94771000Y-64453138D01*
X94772803Y-64434830D01*
X94776354Y-64423125D01*
X94782121Y-64412335D01*
X94789881Y-64402881D01*
X94799335Y-64395121D01*
X94810125Y-64389354D01*
X94821830Y-64385803D01*
X94840138Y-64384000D01*
X95203862Y-64384000D01*
X95222170Y-64385803D01*
G37*
G36*
X87807786Y-62123746D02*
G01*
X87838461Y-62133051D01*
X87866729Y-62148161D01*
X87891506Y-62168494D01*
X87911839Y-62193271D01*
X87926949Y-62221539D01*
X87936254Y-62252214D01*
X87940000Y-62290251D01*
X87940000Y-64301749D01*
X87936254Y-64339786D01*
X87926949Y-64370461D01*
X87911839Y-64398729D01*
X87891506Y-64423506D01*
X87866729Y-64443839D01*
X87838461Y-64458949D01*
X87807786Y-64468254D01*
X87769749Y-64472000D01*
X85458251Y-64472000D01*
X85420214Y-64468254D01*
X85389539Y-64458949D01*
X85361271Y-64443839D01*
X85336494Y-64423506D01*
X85316161Y-64398729D01*
X85301051Y-64370461D01*
X85291746Y-64339786D01*
X85288000Y-64301749D01*
X85288000Y-62290251D01*
X85291746Y-62252214D01*
X85301051Y-62221539D01*
X85316161Y-62193271D01*
X85336494Y-62168494D01*
X85361271Y-62148161D01*
X85389539Y-62133051D01*
X85420214Y-62123746D01*
X85458251Y-62120000D01*
X87769749Y-62120000D01*
X87807786Y-62123746D01*
G37*
G36*
X82981786Y-62123746D02*
G01*
X83012461Y-62133051D01*
X83040729Y-62148161D01*
X83065506Y-62168494D01*
X83085839Y-62193271D01*
X83100949Y-62221539D01*
X83110254Y-62252214D01*
X83114000Y-62290251D01*
X83114000Y-64301749D01*
X83110254Y-64339786D01*
X83100949Y-64370461D01*
X83085839Y-64398729D01*
X83065506Y-64423506D01*
X83040729Y-64443839D01*
X83012461Y-64458949D01*
X82981786Y-64468254D01*
X82943749Y-64472000D01*
X80632251Y-64472000D01*
X80594214Y-64468254D01*
X80563539Y-64458949D01*
X80535271Y-64443839D01*
X80510494Y-64423506D01*
X80490161Y-64398729D01*
X80475051Y-64370461D01*
X80465746Y-64339786D01*
X80462000Y-64301749D01*
X80462000Y-62290251D01*
X80465746Y-62252214D01*
X80475051Y-62221539D01*
X80490161Y-62193271D01*
X80510494Y-62168494D01*
X80535271Y-62148161D01*
X80563539Y-62133051D01*
X80594214Y-62123746D01*
X80632251Y-62120000D01*
X82943749Y-62120000D01*
X82981786Y-62123746D01*
G37*
G36*
X113426905Y-60218789D02*
G01*
X113725350Y-60278153D01*
X114053122Y-60413921D01*
X114348109Y-60611025D01*
X114598975Y-60861891D01*
X114796079Y-61156878D01*
X114931847Y-61484650D01*
X115001060Y-61832611D01*
X115001060Y-62187389D01*
X114931847Y-62535350D01*
X114796079Y-62863122D01*
X114598975Y-63158109D01*
X114348109Y-63408975D01*
X114053122Y-63606079D01*
X113725350Y-63741847D01*
X113426905Y-63801211D01*
X113377390Y-63811060D01*
X113022610Y-63811060D01*
X112973095Y-63801211D01*
X112674650Y-63741847D01*
X112346878Y-63606079D01*
X112051891Y-63408975D01*
X111801025Y-63158109D01*
X111603921Y-62863122D01*
X111468153Y-62535350D01*
X111398940Y-62187389D01*
X111398940Y-61832611D01*
X111468153Y-61484650D01*
X111603921Y-61156878D01*
X111801025Y-60861891D01*
X112051891Y-60611025D01*
X112346878Y-60413921D01*
X112674650Y-60278153D01*
X112973095Y-60218789D01*
X113022610Y-60208940D01*
X113377390Y-60208940D01*
X113426905Y-60218789D01*
G37*
G36*
X109953500Y-61757000D02*
G01*
X107851500Y-61757000D01*
X107851500Y-59655000D01*
X109953500Y-59655000D01*
X109953500Y-61757000D01*
G37*
G36*
X106669064Y-59695389D02*
G01*
X106860333Y-59774615D01*
X106860335Y-59774616D01*
X107032473Y-59889635D01*
X107178865Y-60036027D01*
X107293885Y-60208167D01*
X107373111Y-60399436D01*
X107413500Y-60602484D01*
X107413500Y-60809516D01*
X107373111Y-61012564D01*
X107293885Y-61203833D01*
X107293884Y-61203835D01*
X107178865Y-61375973D01*
X107032473Y-61522365D01*
X106860335Y-61637384D01*
X106860334Y-61637385D01*
X106860333Y-61637385D01*
X106669064Y-61716611D01*
X106466016Y-61757000D01*
X106258984Y-61757000D01*
X106055936Y-61716611D01*
X105864667Y-61637385D01*
X105864666Y-61637385D01*
X105864665Y-61637384D01*
X105692527Y-61522365D01*
X105546135Y-61375973D01*
X105431116Y-61203835D01*
X105431115Y-61203833D01*
X105351889Y-61012564D01*
X105311500Y-60809516D01*
X105311500Y-60602484D01*
X105351889Y-60399436D01*
X105431115Y-60208167D01*
X105546135Y-60036027D01*
X105692527Y-59889635D01*
X105864665Y-59774616D01*
X105864667Y-59774615D01*
X106055936Y-59695389D01*
X106258984Y-59655000D01*
X106466016Y-59655000D01*
X106669064Y-59695389D01*
G37*
G36*
X104129064Y-59695389D02*
G01*
X104320333Y-59774615D01*
X104320335Y-59774616D01*
X104492473Y-59889635D01*
X104638865Y-60036027D01*
X104753885Y-60208167D01*
X104833111Y-60399436D01*
X104873500Y-60602484D01*
X104873500Y-60809516D01*
X104833111Y-61012564D01*
X104753885Y-61203833D01*
X104753884Y-61203835D01*
X104638865Y-61375973D01*
X104492473Y-61522365D01*
X104320335Y-61637384D01*
X104320334Y-61637385D01*
X104320333Y-61637385D01*
X104129064Y-61716611D01*
X103926016Y-61757000D01*
X103718984Y-61757000D01*
X103515936Y-61716611D01*
X103324667Y-61637385D01*
X103324666Y-61637385D01*
X103324665Y-61637384D01*
X103152527Y-61522365D01*
X103006135Y-61375973D01*
X102891116Y-61203835D01*
X102891115Y-61203833D01*
X102811889Y-61012564D01*
X102771500Y-60809516D01*
X102771500Y-60602484D01*
X102811889Y-60399436D01*
X102891115Y-60208167D01*
X103006135Y-60036027D01*
X103152527Y-59889635D01*
X103324665Y-59774616D01*
X103324667Y-59774615D01*
X103515936Y-59695389D01*
X103718984Y-59655000D01*
X103926016Y-59655000D01*
X104129064Y-59695389D01*
G37*
G36*
X99049064Y-59695389D02*
G01*
X99240333Y-59774615D01*
X99240335Y-59774616D01*
X99412473Y-59889635D01*
X99558865Y-60036027D01*
X99673885Y-60208167D01*
X99753111Y-60399436D01*
X99793500Y-60602484D01*
X99793500Y-60809516D01*
X99753111Y-61012564D01*
X99673885Y-61203833D01*
X99673884Y-61203835D01*
X99558865Y-61375973D01*
X99412473Y-61522365D01*
X99240335Y-61637384D01*
X99240334Y-61637385D01*
X99240333Y-61637385D01*
X99049064Y-61716611D01*
X98846016Y-61757000D01*
X98638984Y-61757000D01*
X98435936Y-61716611D01*
X98244667Y-61637385D01*
X98244666Y-61637385D01*
X98244665Y-61637384D01*
X98072527Y-61522365D01*
X97926135Y-61375973D01*
X97811116Y-61203835D01*
X97811115Y-61203833D01*
X97731889Y-61012564D01*
X97691500Y-60809516D01*
X97691500Y-60602484D01*
X97731889Y-60399436D01*
X97811115Y-60208167D01*
X97926135Y-60036027D01*
X98072527Y-59889635D01*
X98244665Y-59774616D01*
X98244667Y-59774615D01*
X98435936Y-59695389D01*
X98638984Y-59655000D01*
X98846016Y-59655000D01*
X99049064Y-59695389D01*
G37*
G36*
X96509064Y-59695389D02*
G01*
X96700333Y-59774615D01*
X96700335Y-59774616D01*
X96872473Y-59889635D01*
X97018865Y-60036027D01*
X97133885Y-60208167D01*
X97213111Y-60399436D01*
X97253500Y-60602484D01*
X97253500Y-60809516D01*
X97213111Y-61012564D01*
X97133885Y-61203833D01*
X97133884Y-61203835D01*
X97018865Y-61375973D01*
X96872473Y-61522365D01*
X96700335Y-61637384D01*
X96700334Y-61637385D01*
X96700333Y-61637385D01*
X96509064Y-61716611D01*
X96306016Y-61757000D01*
X96098984Y-61757000D01*
X95895936Y-61716611D01*
X95704667Y-61637385D01*
X95704666Y-61637385D01*
X95704665Y-61637384D01*
X95532527Y-61522365D01*
X95386135Y-61375973D01*
X95271116Y-61203835D01*
X95271115Y-61203833D01*
X95191889Y-61012564D01*
X95151500Y-60809516D01*
X95151500Y-60602484D01*
X95191889Y-60399436D01*
X95271115Y-60208167D01*
X95386135Y-60036027D01*
X95532527Y-59889635D01*
X95704665Y-59774616D01*
X95704667Y-59774615D01*
X95895936Y-59695389D01*
X96098984Y-59655000D01*
X96306016Y-59655000D01*
X96509064Y-59695389D01*
G37*
G36*
X93969064Y-59695389D02*
G01*
X94160333Y-59774615D01*
X94160335Y-59774616D01*
X94332473Y-59889635D01*
X94478865Y-60036027D01*
X94593885Y-60208167D01*
X94673111Y-60399436D01*
X94713500Y-60602484D01*
X94713500Y-60809516D01*
X94673111Y-61012564D01*
X94593885Y-61203833D01*
X94593884Y-61203835D01*
X94478865Y-61375973D01*
X94332473Y-61522365D01*
X94160335Y-61637384D01*
X94160334Y-61637385D01*
X94160333Y-61637385D01*
X93969064Y-61716611D01*
X93766016Y-61757000D01*
X93558984Y-61757000D01*
X93355936Y-61716611D01*
X93164667Y-61637385D01*
X93164666Y-61637385D01*
X93164665Y-61637384D01*
X92992527Y-61522365D01*
X92846135Y-61375973D01*
X92731116Y-61203835D01*
X92731115Y-61203833D01*
X92651889Y-61012564D01*
X92611500Y-60809516D01*
X92611500Y-60602484D01*
X92651889Y-60399436D01*
X92731115Y-60208167D01*
X92846135Y-60036027D01*
X92992527Y-59889635D01*
X93164665Y-59774616D01*
X93164667Y-59774615D01*
X93355936Y-59695389D01*
X93558984Y-59655000D01*
X93766016Y-59655000D01*
X93969064Y-59695389D01*
G37*
G36*
X91429064Y-59695389D02*
G01*
X91620333Y-59774615D01*
X91620335Y-59774616D01*
X91792473Y-59889635D01*
X91938865Y-60036027D01*
X92053885Y-60208167D01*
X92133111Y-60399436D01*
X92173500Y-60602484D01*
X92173500Y-60809516D01*
X92133111Y-61012564D01*
X92053885Y-61203833D01*
X92053884Y-61203835D01*
X91938865Y-61375973D01*
X91792473Y-61522365D01*
X91620335Y-61637384D01*
X91620334Y-61637385D01*
X91620333Y-61637385D01*
X91429064Y-61716611D01*
X91226016Y-61757000D01*
X91018984Y-61757000D01*
X90815936Y-61716611D01*
X90624667Y-61637385D01*
X90624666Y-61637385D01*
X90624665Y-61637384D01*
X90452527Y-61522365D01*
X90306135Y-61375973D01*
X90191116Y-61203835D01*
X90191115Y-61203833D01*
X90111889Y-61012564D01*
X90071500Y-60809516D01*
X90071500Y-60602484D01*
X90111889Y-60399436D01*
X90191115Y-60208167D01*
X90306135Y-60036027D01*
X90452527Y-59889635D01*
X90624665Y-59774616D01*
X90624667Y-59774615D01*
X90815936Y-59695389D01*
X91018984Y-59655000D01*
X91226016Y-59655000D01*
X91429064Y-59695389D01*
G37*
G36*
X113426905Y-55218789D02*
G01*
X113725350Y-55278153D01*
X114053122Y-55413921D01*
X114348109Y-55611025D01*
X114598975Y-55861891D01*
X114796079Y-56156878D01*
X114931847Y-56484650D01*
X115001060Y-56832611D01*
X115001060Y-57187389D01*
X114931847Y-57535350D01*
X114796079Y-57863122D01*
X114598975Y-58158109D01*
X114348109Y-58408975D01*
X114053122Y-58606079D01*
X113725350Y-58741847D01*
X113426905Y-58801211D01*
X113377390Y-58811060D01*
X113022610Y-58811060D01*
X112973095Y-58801211D01*
X112674650Y-58741847D01*
X112346878Y-58606079D01*
X112051891Y-58408975D01*
X111801025Y-58158109D01*
X111603921Y-57863122D01*
X111468153Y-57535350D01*
X111398940Y-57187389D01*
X111398940Y-56832611D01*
X111468153Y-56484650D01*
X111603921Y-56156878D01*
X111801025Y-55861891D01*
X112051891Y-55611025D01*
X112346878Y-55413921D01*
X112674650Y-55278153D01*
X112973095Y-55218789D01*
X113022610Y-55208940D01*
X113377390Y-55208940D01*
X113426905Y-55218789D01*
G37*
G36*
X87807786Y-55723746D02*
G01*
X87838461Y-55733051D01*
X87866729Y-55748161D01*
X87891506Y-55768494D01*
X87911839Y-55793271D01*
X87926949Y-55821539D01*
X87936254Y-55852214D01*
X87940000Y-55890251D01*
X87940000Y-57901749D01*
X87936254Y-57939786D01*
X87926949Y-57970461D01*
X87911839Y-57998729D01*
X87891506Y-58023506D01*
X87866729Y-58043839D01*
X87838461Y-58058949D01*
X87807786Y-58068254D01*
X87769749Y-58072000D01*
X85458251Y-58072000D01*
X85420214Y-58068254D01*
X85389539Y-58058949D01*
X85361271Y-58043839D01*
X85336494Y-58023506D01*
X85316161Y-57998729D01*
X85301051Y-57970461D01*
X85291746Y-57939786D01*
X85288000Y-57901749D01*
X85288000Y-55890251D01*
X85291746Y-55852214D01*
X85301051Y-55821539D01*
X85316161Y-55793271D01*
X85336494Y-55768494D01*
X85361271Y-55748161D01*
X85389539Y-55733051D01*
X85420214Y-55723746D01*
X85458251Y-55720000D01*
X87769749Y-55720000D01*
X87807786Y-55723746D01*
G37*
G36*
X82981786Y-55723746D02*
G01*
X83012461Y-55733051D01*
X83040729Y-55748161D01*
X83065506Y-55768494D01*
X83085839Y-55793271D01*
X83100949Y-55821539D01*
X83110254Y-55852214D01*
X83114000Y-55890251D01*
X83114000Y-57901749D01*
X83110254Y-57939786D01*
X83100949Y-57970461D01*
X83085839Y-57998729D01*
X83065506Y-58023506D01*
X83040729Y-58043839D01*
X83012461Y-58058949D01*
X82981786Y-58068254D01*
X82943749Y-58072000D01*
X80632251Y-58072000D01*
X80594214Y-58068254D01*
X80563539Y-58058949D01*
X80535271Y-58043839D01*
X80510494Y-58023506D01*
X80490161Y-57998729D01*
X80475051Y-57970461D01*
X80465746Y-57939786D01*
X80462000Y-57901749D01*
X80462000Y-55890251D01*
X80465746Y-55852214D01*
X80475051Y-55821539D01*
X80490161Y-55793271D01*
X80510494Y-55768494D01*
X80535271Y-55748161D01*
X80563539Y-55733051D01*
X80594214Y-55723746D01*
X80632251Y-55720000D01*
X82943749Y-55720000D01*
X82981786Y-55723746D01*
G37*
M02*
